<svg width="28" height="28" viewBox="0 0 28 28" fill="none" xmlns="http://www.w3.org/2000/svg">
<g clip-path="url(#clip0_520_1170)">
<path d="M16.3333 15.1671C14.4036 15.1671 12.8333 13.5967 12.8333 11.6671C12.8333 9.73748 14.4036 8.16714 16.3333 8.16714H18.6664V3.50059C18.6664 1.57096 17.0961 0.00062561 15.1665 0.00062561H2.62499C2.24109 0.00062561 1.88179 0.18946 1.6637 0.505605C1.44665 0.821805 1.39776 1.22447 1.5353 1.5825L9.99362 23.7491C10.1652 24.2017 10.599 24.5004 11.0833 24.5004H15.1665C17.0961 24.5004 18.6664 22.93 18.6664 21.0004V15.1671H16.3333Z" fill="#007DAC"/>
<path d="M21.7198 17.4115C21.2846 17.2306 20.9999 16.8048 20.9999 16.3334V12.8334H16.3333C15.6893 12.8334 15.1665 12.3109 15.1665 11.6668C15.1665 11.0228 15.6893 10.5003 16.3333 10.5003H20.9999V7.00029C20.9999 6.52883 21.2846 6.10309 21.7198 5.92213C21.933 5.83385 22.1676 5.8108 22.3939 5.8559C22.6203 5.901 22.8281 6.01223 22.9912 6.1755L27.658 10.842C28.1141 11.2981 28.1141 12.0355 27.658 12.4916L22.9912 17.1584C22.8281 17.3216 22.6202 17.4328 22.3939 17.4778C22.1676 17.5229 21.933 17.4998 21.7198 17.4115Z" fill="#B8E4F9"/>
<path d="M10.087 2.45252L3.07652 0.11575C1.49449 -0.370745 0 0.797095 0 2.33347V23.3333C0 24.3309 0.634642 25.2211 1.57974 25.5477L8.58886 27.8844C8.84671 27.9637 9.08361 28 9.33331 28C10.6202 28 11.6665 26.9535 11.6665 25.6666V4.66685C11.6665 3.66947 11.0318 2.77928 10.087 2.45247L10.087 2.45252Z" fill="#02C2F2"/>
<rect x="6.69604" y="11" width="4" height="1.9748" rx="0.987399" transform="rotate(20.6389 6.69604 11)" fill="white"/>
</g>
<defs>
<clipPath id="clip0_520_1170">
<rect width="28" height="28" fill="white"/>
</clipPath>
</defs>
</svg>
