<svg width="28" height="28" viewBox="0 0 28 28" fill="none" xmlns="http://www.w3.org/2000/svg">
<g clip-path="url(#clip0_520_926)">
<path d="M21.4375 28C25.0619 28 28 25.0619 28 21.4375C28 17.8131 25.0619 14.875 21.4375 14.875C17.8131 14.875 14.875 17.8131 14.875 21.4375C14.875 25.0619 17.8131 28 21.4375 28Z" fill="#FB9743"/>
<path d="M13.125 3.60938V9.51562C13.125 11.5057 11.5057 13.125 9.51562 13.125H3.60938C1.6193 13.125 0 11.5057 0 9.51562V3.60938C0 1.6193 1.6193 0 3.60938 0H9.51562C11.5057 0 13.125 1.6193 13.125 3.60938ZM28 3.60938V9.51562C28 11.5057 26.3807 13.125 24.3906 13.125H18.4844C16.4943 13.125 14.875 11.5057 14.875 9.51562V3.60938C14.875 1.6193 16.4943 0 18.4844 0H24.3906C26.3807 0 28 1.6193 28 3.60938ZM13.125 18.4844V24.3906C13.125 26.3807 11.5057 28 9.51562 28H3.60938C1.6193 28 0 26.3807 0 24.3906V18.4844C0 16.4943 1.6193 14.875 3.60938 14.875H9.51562C11.5057 14.875 13.125 16.4943 13.125 18.4844Z" fill="#02C2F2"/>
<path d="M28 21.4375C28 25.0562 25.0562 28 21.4375 28C21.1411 28 20.8485 27.9803 20.5625 27.9415C23.7694 27.5127 26.25 24.7592 26.25 21.4375C26.25 18.1158 23.7694 15.3623 20.5625 14.9335C20.8485 14.8947 21.1411 14.875 21.4375 14.875C25.0562 14.875 28 17.8188 28 21.4375Z" fill="#E5781C"/>
<path d="M13.125 3.60938V9.51562C13.125 11.5057 11.5057 13.125 9.51562 13.125H7.76562C9.7557 13.125 11.375 11.5057 11.375 9.51562V3.60938C11.375 1.6193 9.7557 0 7.76562 0H9.51562C11.5057 0 13.125 1.6193 13.125 3.60938ZM28 3.60938V9.51562C28 11.5057 26.3807 13.125 24.3906 13.125H22.6406C24.6307 13.125 26.25 11.5057 26.25 9.51562V3.60938C26.25 1.6193 24.6307 0 22.6406 0H24.3906C26.3807 0 28 1.6193 28 3.60938ZM13.125 18.4844V24.3906C13.125 26.3807 11.5057 28 9.51562 28H7.76562C9.7557 28 11.375 26.3807 11.375 24.3906V18.4844C11.375 16.4943 9.7557 14.875 7.76562 14.875H9.51562C11.5057 14.875 13.125 16.4943 13.125 18.4844Z" fill="#007DAC"/>
</g>
<defs>
<clipPath id="clip0_520_926">
<rect width="28" height="28" fill="white"/>
</clipPath>
</defs>
</svg>
