<svg width="28" height="28" viewBox="0 0 28 28" fill="none" xmlns="http://www.w3.org/2000/svg">
<g clip-path="url(#clip0_520_945)">
<path d="M2.45581 25.0376H6.80938V26.8634H2.45581V25.0376ZM21.1906 25.0376H25.5441V26.8634H21.1906V25.0376Z" fill="#007DAC"/>
<path d="M24.5101 7.32795V1.1366H23.41V7.32795C23.1506 7.50423 22.9802 7.80161 22.9802 8.13882V16.9605C22.9802 17.5016 23.4189 17.9403 23.96 17.9403C24.5011 17.9403 24.9398 17.5016 24.9398 16.9605V8.13882C24.9398 7.8016 24.7694 7.50422 24.5101 7.32795Z" fill="#02C2F2"/>
<path d="M25.0466 18.1506H22.861C22.6349 18.1506 22.45 17.9657 22.45 17.7396V16.7354C22.45 16.5094 22.6349 16.3244 22.861 16.3244H25.0466C25.2726 16.3244 25.4576 16.5094 25.4576 16.7354V17.7396C25.4576 17.9657 25.2726 18.1506 25.0466 18.1506Z" fill="#FB9743"/>
<path d="M4.60235 7.32795V1.1366H3.50224V7.32795C3.2429 7.50423 3.07251 7.80161 3.07251 8.13882V16.9605C3.07251 17.5016 3.51117 17.9403 4.0523 17.9403C4.59342 17.9403 5.03208 17.5016 5.03208 16.9605V8.13882C5.03208 7.8016 4.86168 7.50422 4.60235 7.32795Z" fill="#02C2F2"/>
<path d="M5.13888 18.1506H2.95325C2.72719 18.1506 2.54224 17.9657 2.54224 17.7396V16.7354C2.54224 16.5094 2.72719 16.3244 2.95325 16.3244H5.13887C5.36493 16.3244 5.54988 16.5094 5.54988 16.7354V17.7396C5.54989 17.9657 5.36493 18.1506 5.13888 18.1506Z" fill="#FB9743"/>
<path d="M13.9941 8.52233H13.9868C12.7294 8.52233 11.5271 8.98361 10.6009 9.82171L10.2886 10.1043L11.5684 11.3935L11.8525 11.1469C12.4466 10.631 13.204 10.3471 13.986 10.3471H13.9917C14.7761 10.3485 15.5344 10.6354 16.1267 11.155L16.409 11.4026L17.6994 10.12L17.3865 9.83551C16.4588 8.99167 15.2541 8.52533 13.9941 8.52233Z" fill="#02C2F2"/>
<path d="M14.0006 5.26007H13.9909C11.8631 5.26007 9.84062 6.05934 8.29539 7.51122L7.99463 7.79379L9.27428 9.08659L9.55967 8.82159C10.7664 7.70117 12.3375 7.08459 13.985 7.08459H13.9977C15.6492 7.0869 17.2224 7.70927 18.4277 8.83711L18.7114 9.10255L20.0011 7.81574L19.7003 7.5313C18.1557 6.07112 16.1317 5.26449 14.0006 5.26007Z" fill="#02C2F2"/>
<path d="M21.9564 5.27779C19.8081 3.21586 16.9847 2.07713 14.0062 2.07134H13.9845C11.0175 2.07134 8.1988 3.19957 6.04537 5.24957L5.7478 5.53283L7.03363 6.82652L7.31864 6.55572C9.12457 4.83993 11.4913 3.89566 13.9847 3.89566H14.0031C16.504 3.90052 18.8756 4.85372 20.6809 6.57953L20.9654 6.85155L22.2521 5.56164L21.9564 5.27779Z" fill="#02C2F2"/>
<path d="M14.0322 14.8591C14.9356 14.8591 15.668 14.1267 15.668 13.2233C15.668 12.3199 14.9356 11.5876 14.0322 11.5876C13.1288 11.5876 12.3965 12.3199 12.3965 13.2233C12.3965 14.1267 13.1288 14.8591 14.0322 14.8591Z" fill="#02C2F2"/>
<path d="M25.5442 26.1778H2.45583C1.03731 26.1778 -0.0861972 24.9241 0.00520774 23.5085L0.241335 19.8518C0.324771 18.5596 1.39713 17.6096 2.69196 17.6096H25.308C26.6029 17.6096 27.6752 18.6149 27.7587 19.9071L27.9948 23.5639C28.0862 24.9794 26.9627 26.1778 25.5442 26.1778Z" fill="#007DAC"/>
<path d="M25.5442 26.1778H2.45583C1.03731 26.1778 -0.0861972 24.9241 0.00520774 23.5085L0.241335 19.8518C0.324771 18.5596 1.39713 17.6096 2.69196 17.6096H25.308C26.6029 17.6096 27.6752 18.6149 27.7587 19.9071L27.9948 23.5639C28.0862 24.9794 26.9627 26.1778 25.5442 26.1778Z" fill="#007DAC"/>
<path d="M2.38019 17.6289C1.229 17.7675 0.318004 18.665 0.241371 19.8518L0.00524992 23.5085C0.0036562 23.5332 0.00329956 23.5577 0.00244141 23.5823V23.7765C0.0487986 24.8598 0.7968 25.8025 1.81175 26.0888H3.65399L19.6685 18.8461L25.8843 17.6779L2.38019 17.6289Z" fill="#007DAC"/>
<path d="M25.1484 26.1778V22.5399C25.1484 21.261 24.1116 20.2242 22.8327 20.2242H5.16752C3.88859 20.2242 2.85181 21.261 2.85181 22.5399V26.1778H25.1484Z" fill="#02C2F2"/>
<path d="M4.94971 22.4373H6.31381V23.8014H4.94971V22.4373ZM9.13377 22.4373H10.4979V23.8014H9.13377V22.4373ZM13.3178 22.4373H14.6819V23.8014H13.3178V22.4373ZM17.5019 22.4373H18.866V23.8014H17.5019V22.4373ZM21.686 22.4373H23.0501V23.8014H21.686V22.4373Z" fill="white"/>
</g>
<defs>
<clipPath id="clip0_520_945">
<rect width="28" height="28" fill="white"/>
</clipPath>
</defs>
</svg>
