<svg width="28" height="28" viewBox="0 0 28 28" fill="none" xmlns="http://www.w3.org/2000/svg">
<g clip-path="url(#clip0_520_1007)">
<path d="M26.9571 10.9089L24.268 10.5842C24.1928 10.5752 24.13 10.5233 24.1037 10.4488C23.9734 10.0787 23.8228 9.71612 23.6526 9.36266C23.6199 9.29452 23.6271 9.21698 23.6718 9.16016L25.3479 7.02373C25.7175 6.55244 25.6769 5.87781 25.2534 5.45442L22.5458 2.74679C22.1222 2.32313 21.4476 2.28255 20.9763 2.65234L18.8401 4.32841C18.783 4.37309 18.7055 4.38036 18.6376 4.34744C18.2841 4.17723 17.9215 4.02661 17.5515 3.89627C17.4767 3.87023 17.4248 3.80718 17.4158 3.7322L17.0911 1.04289C17.0194 0.448437 16.5135 0 15.9147 0H12.0853C11.4865 0 10.9806 0.448437 10.9089 1.04289L10.5842 3.73198C10.5752 3.80718 10.5233 3.87002 10.4488 3.89627C10.0787 4.02657 9.71612 4.17719 9.36266 4.34744C9.29452 4.38014 9.21698 4.37287 9.16016 4.32824L7.02373 2.65212C6.55244 2.28233 5.87781 2.32312 5.45442 2.74657L2.74679 5.45442C2.32313 5.87781 2.28255 6.55244 2.65234 7.02373L4.32841 9.15994C4.37309 9.21698 4.38036 9.29452 4.34744 9.36266C4.17723 9.71607 4.02661 10.0786 3.89627 10.4485C3.87002 10.5233 3.80718 10.5752 3.7322 10.5842L1.04289 10.9089C0.448437 10.9806 0 11.4865 0 12.0853V15.9147C0 16.5137 0.448437 17.0194 1.04289 17.0911L3.73198 17.4158C3.80718 17.4248 3.87002 17.4767 3.89627 17.5512C4.02661 17.9214 4.17723 18.284 4.34744 18.6376C4.38014 18.7055 4.37287 18.7832 4.32824 18.8401L2.65212 20.9763C2.28255 21.4476 2.32312 22.1222 2.74657 22.5458L5.4542 25.2534C5.87781 25.6769 6.55244 25.7175 7.02373 25.3479L9.15994 23.6716C9.21681 23.6269 9.29452 23.6196 9.36245 23.6526C9.71592 23.8228 10.0785 23.9734 10.4485 24.1037C10.5233 24.13 10.5752 24.1928 10.5842 24.2678L10.9089 26.9571C10.9806 27.5516 11.4865 28 12.0853 28H15.9147C16.5135 28 17.0194 27.5516 17.0911 26.9571L17.4158 24.268C17.4248 24.1928 17.4767 24.13 17.5513 24.1037C17.9213 23.9734 18.2839 23.8228 18.6373 23.6526C18.7055 23.6196 18.783 23.6271 18.8398 23.6718L20.9763 25.3479C21.4476 25.7175 22.1222 25.6769 22.5456 25.2534L25.2532 22.5458C25.6769 22.1222 25.7175 21.4476 25.3477 20.9763L23.6716 18.8401C23.6269 18.7832 23.6196 18.7057 23.6526 18.6376C23.8228 18.2841 23.9734 17.9215 24.1037 17.5515C24.13 17.4769 24.1928 17.425 24.2678 17.4158L26.9571 17.0911C27.5516 17.0194 28 16.5135 28 15.9147V12.0853C28 11.4865 27.5516 10.9806 26.9571 10.9089Z" fill="#02C2F2"/>
<path d="M20.8987 14C20.8987 17.81 17.8101 20.8986 14.0001 20.8986C10.1901 20.8986 7.10156 17.81 7.10156 14C7.10156 10.19 10.1901 7.10144 14.0001 7.10144C17.8101 7.10144 20.8987 10.19 20.8987 14Z" fill="#F48120"/>
<path d="M15.9406 7.37877C17.6225 8.6368 18.7111 10.6444 18.7111 12.9062C18.7111 16.7162 15.6226 19.8048 11.8126 19.8048C11.1389 19.8048 10.4877 19.7076 9.87207 19.5275C11.0231 20.3886 12.452 20.8986 14.0001 20.8986C17.8101 20.8986 20.8987 17.81 20.8987 14C20.8987 10.864 18.8057 8.21702 15.9406 7.37877Z" fill="#DD6E10"/>
<path d="M26.9571 10.9089L25.7911 10.7681C25.805 10.8407 25.8124 10.9155 25.8124 10.9915V14.821C25.8124 15.42 25.364 15.9256 24.7696 15.9974L22.0802 16.3221C22.0053 16.3311 21.9424 16.383 21.9162 16.4577C21.7858 16.8277 21.6352 17.1902 21.465 17.5436C21.4321 17.6117 21.4396 17.6893 21.484 17.7461L23.1603 19.8825C23.5299 20.3538 23.4893 21.0284 23.0659 21.4518L20.3582 24.1595C20.2156 24.3019 20.0389 24.4054 19.8449 24.4601L20.9762 25.3477C21.4475 25.7175 22.1221 25.6769 22.5457 25.2532L25.2534 22.5456C25.6768 22.1222 25.7174 21.4476 25.3478 20.9763L23.6715 18.8398C23.6271 18.783 23.6196 18.7055 23.6525 18.6373C23.8227 18.2839 23.9733 17.9214 24.1037 17.5515C24.1299 17.4767 24.1928 17.4248 24.2677 17.4158L26.9571 17.0911C27.5515 17.0194 27.9999 16.5135 27.9999 15.9147V12.0853C27.9999 11.4865 27.5515 10.9807 26.9571 10.9089ZM16.6523 22.5778C16.5954 22.5332 16.5179 22.5259 16.4498 22.5588C16.0963 22.7291 15.7337 22.8797 15.3637 23.01C15.2892 23.0362 15.2373 23.0991 15.2283 23.174L14.9036 25.8634C14.8318 26.4578 14.3259 26.9063 13.7272 26.9063H10.9028L10.9088 26.9571C10.9806 27.5516 11.4865 28 12.0852 28H15.9147C16.5134 28 17.0193 27.5516 17.0911 26.9571L17.4158 24.268C17.4248 24.1928 17.4767 24.13 17.5512 24.1037C17.7865 24.0206 18.0188 23.9291 18.2476 23.8296L16.6523 22.5778Z" fill="#007DAC"/>
<path d="M12.5891 15.9822V20.7539C13.0531 20.8502 13.5258 20.8987 13.9997 20.8986H14.0001C14.4835 20.8986 14.9552 20.8485 15.4107 20.7539V15.9858L12.5891 15.9822Z" fill="#E1E1E1"/>
<path d="M15.4482 9.66197V12.0793C15.4482 12.1586 15.4157 12.2346 15.3582 12.2893L14.1728 13.4224C14.0585 13.5318 13.8781 13.5296 13.7663 13.4178L12.6371 12.2887C12.6101 12.2617 12.5886 12.2296 12.574 12.1943C12.5594 12.159 12.5519 12.1211 12.5519 12.0829V9.66175C12.5519 9.42183 12.2893 9.27511 12.0843 9.39941C10.9724 10.0738 10.2441 11.3173 10.3037 12.7259C10.3864 14.6723 11.9992 16.237 13.9473 16.2642C16.0147 16.293 17.6997 14.6257 17.6997 12.5649C17.6997 11.2227 16.985 10.0477 15.9156 9.39919C15.7105 9.27505 15.4482 9.42205 15.4482 9.66197Z" fill="white"/>
<path d="M14.3169 15.9859V18.5905C14.3169 19.2427 13.8001 19.7778 13.1484 19.8005C13.068 19.8033 12.9873 19.8048 12.9064 19.8048H12.9057C12.7995 19.8048 12.6941 19.802 12.5891 19.7971V20.7539C13.0531 20.8503 13.5257 20.8987 13.9995 20.8986H14C14.4835 20.8986 14.9552 20.8485 15.4107 20.7539V15.986H14.3169V15.9859Z" fill="#E1E1E1"/>
<path d="M14 17.7568C13.8912 17.7568 13.7869 17.8 13.71 17.8769C13.6331 17.9538 13.5898 18.0581 13.5898 18.1669V20.886C13.7255 20.8939 13.862 20.8986 13.9998 20.8986H14.0002C14.138 20.8986 14.2745 20.8939 14.4102 20.886V18.1669C14.4102 18.0581 14.3669 17.9538 14.29 17.8769C14.2131 17.8 14.1088 17.7568 14 17.7568Z" fill="#BFCDD3"/>
<path d="M14.2038 20.8953C14.1363 20.8972 14.0684 20.8986 14.0002 20.8986H13.9998C13.9316 20.8986 13.8637 20.8972 13.7962 20.8953C13.7274 20.8931 13.6586 20.89 13.5898 20.8859V19.7001C14.0186 19.513 14.317 19.0857 14.317 18.5905V17.9065C14.3773 17.9799 14.4102 18.072 14.4102 18.1669V20.886C14.3414 20.89 14.2726 20.8931 14.2038 20.8953V20.8953Z" fill="#9FBBC9"/>
<path d="M15.9156 9.3992C15.7616 9.30585 15.5753 9.36567 15.4919 9.50283C15.8511 10.0729 16.0591 10.7476 16.0591 11.4711C16.0591 13.5319 14.3741 15.1993 12.3066 15.1704C11.9336 15.1651 11.5636 15.1026 11.2095 14.9853C11.88 15.7558 12.8614 16.249 13.9472 16.2642C16.0147 16.293 17.6997 14.6257 17.6997 12.5649C17.6997 11.2229 16.985 10.0477 15.9156 9.3992Z" fill="#E1E1E1"/>
<path d="M23.0658 4.36067C23.4894 4.78406 23.53 5.45869 23.1602 5.92999L21.4841 8.06641C21.4397 8.12328 21.4322 8.20078 21.4651 8.26892C21.6354 8.62238 21.786 8.98496 21.9163 9.35501C21.9425 9.42955 22.0054 9.48145 22.0803 9.49042L23.8066 9.69894C23.7568 9.5859 23.706 9.47352 23.6526 9.36267C23.6197 9.29453 23.627 9.21698 23.6716 9.16016L25.3477 7.02374C25.7175 6.55244 25.6769 5.87781 25.2532 5.45442L22.5456 2.74679C22.1891 2.39023 21.655 2.30628 21.2139 2.50857L23.0658 4.36067Z" fill="#007DAC"/>
</g>
<defs>
<clipPath id="clip0_520_1007">
<rect width="28" height="28" fill="white"/>
</clipPath>
</defs>
</svg>
