<svg width="160" height="125" viewBox="0 0 160 125" fill="none" xmlns="http://www.w3.org/2000/svg">
<path d="M105.162 69.2739C103.95 80.6895 85.9154 91.8207 69.7623 89.4864C60.3279 88.1207 49.0623 81.8114 48.1498 73.8051C47.5967 68.9582 51.3717 68.0614 54.6873 59.3301C59.106 47.7051 54.431 43.9676 58.6185 31.9614C61.2998 24.277 67.056 14.7739 72.056 15.3989C73.6935 15.6114 74.9498 16.8801 75.8592 18.1864L79.7592 16.3832C80.8092 15.4957 82.4217 14.4364 84.4467 14.3114C90.3342 13.9457 94.881 21.6832 95.8123 23.2676C102.181 34.1051 95.9248 40.5957 101.056 57.0176C103.553 65.002 105.587 65.277 105.162 69.2739Z" fill="#491F0B"/>
<mask id="mask0_625_3791" style="mask-type:luminance" maskUnits="userSpaceOnUse" x="68" y="46" width="20" height="27">
<path d="M68.45 46.7832H87.5V72.1863H68.45V46.7832Z" fill="white"/>
</mask>
<g mask="url(#mask0_625_3791)">
<path d="M72.0933 46.7832H83.8245V72.1863H72.0933V46.7832Z" fill="#E39C76"/>
<path d="M72.0157 57.5957C72.0157 57.5957 78.6595 61.5176 83.8251 57.1488L84.5251 46.7832L70.8032 47.6145L72.0157 57.5957Z" fill="#D48F6E"/>
</g>
<mask id="mask1_625_3791" style="mask-type:luminance" maskUnits="userSpaceOnUse" x="50" y="63" width="57" height="72">
<path d="M102.5 119.412C96.0402 91.268 104.212 72.5836 94.634 65.9742C92.6559 64.6117 90.1059 64.4117 85.009 64.0274C82.4496 63.8305 65.7996 62.5555 58.5809 71.2149C53.8934 76.8211 56.3059 83.0899 56.2871 97.4367C56.2871 105.837 55.3309 117.768 50.9746 132.302C55.0652 132.88 59.3309 133.355 63.759 133.696C77.9866 134.786 92.289 134.388 106.434 132.509C104.837 128.234 103.522 123.859 102.5 119.412Z" fill="white"/>
</mask>
<g mask="url(#mask1_625_3791)">
<path d="M102.499 119.412C96.04 91.268 104.212 72.5836 94.6337 65.9742C92.6556 64.6117 90.1056 64.4117 85.0087 64.0274C82.4494 63.8305 65.7994 62.5555 58.5806 71.2149C53.8931 76.8242 56.2994 83.0899 56.2869 97.4367C56.2869 105.83 55.3494 117.793 50.9744 132.384C55.1275 132.934 59.4431 133.38 63.9212 133.696C78.0926 134.693 92.3276 134.295 106.421 132.509C104.828 128.234 103.518 123.859 102.499 119.412Z" fill="#92C741"/>
<path d="M112.537 134.816L101.175 137.766C99.7183 122.272 95.2371 114.378 91.2402 110.016C89.1277 107.71 85.8464 104.978 82.5996 99.416C79.0996 93.416 78.9496 89.7972 77.0277 89.5847C74.5121 89.3035 73.1871 95.3378 67.0871 106.628C61.0714 117.747 57.5277 120.832 56.7058 128.685C56.3121 132.494 59.0527 136.857 57.1433 137.747L54.1246 139.166L43.5964 128.569L48.7308 119.119L54.9246 112.341C61.0089 108.953 67.1964 99.5066 68.5183 97.5566C69.8402 95.6066 71.7839 88.1441 74.4058 85.741C77.0277 83.3378 80.5246 88.5816 82.7527 93.0503C84.9808 97.5191 101.19 112.825 101.19 112.825L112.537 134.816Z" fill="#64923A"/>
</g>
<path d="M98.0093 31.1867C97.6343 39.6524 89.2812 45.2024 87.0718 46.6649C84.7218 48.2274 82.3843 49.7899 79.1843 49.9992C71.1531 50.5524 60.3718 42.4992 60.3718 31.1867C60.3714 28.716 60.8577 26.2693 61.8029 23.9865C62.7482 21.7037 64.1338 19.6295 65.8808 17.8823C67.6277 16.135 69.7017 14.749 71.9844 13.8034C74.267 12.8578 76.7136 12.3711 79.1843 12.3711C90.3374 12.3555 98.3937 22.4992 98.0093 31.1867Z" fill="#F47E20"/>
<path d="M93.2628 30.5371L88.0815 39.5996C88.0815 39.5996 92.7253 40.3809 93.2815 36.9777C93.6129 34.8452 93.6066 32.6739 93.2628 30.5434" fill="#F5B493"/>
<path d="M93.147 34.7802C93.3126 34.1052 93.4813 33.449 93.6407 32.8552C93.6407 32.8552 93.3657 19.5271 83.9251 16.1552C83.8376 16.1365 83.7563 16.1302 83.672 16.1146C80.0963 14.6703 76.0972 14.6837 72.5313 16.1521H72.5001C71.0384 16.6733 69.6947 17.4795 68.547 18.524C68.4345 18.6209 68.3751 18.6802 68.3751 18.6802C62.9907 23.7459 62.8126 32.8552 62.8126 32.8552C62.7451 33.3669 62.7201 33.8832 62.7376 34.399C62.834 36.4074 63.5102 38.3449 64.6845 39.9771C64.5032 41.124 64.997 42.849 65.3407 44.874C66.4188 51.4865 71.5907 57.7521 78.3688 57.4177C83.2626 57.174 85.5751 54.2146 86.9313 52.4552C90.6595 47.6209 91.8563 42.3396 91.8438 40.4615C92.2548 39.7511 92.5781 38.9935 92.8063 38.2052C93.1234 37.0887 93.2439 35.9256 93.1626 34.7677" fill="#F5936C"/>
<path d="M77.6719 45.3084H77.6344C76.4281 44.9959 75.7188 44.5209 75.5344 43.8771C75.3625 43.2928 75.6781 42.7709 76.0375 42.1646C76.1781 41.9365 76.3187 41.6959 76.4531 41.4303C77.0715 40.1211 77.3159 38.6665 77.1594 37.2271C77.1561 37.1857 77.1693 37.1447 77.1963 37.113C77.2233 37.0814 77.2617 37.0617 77.3031 37.0584C77.3446 37.0551 77.3856 37.0684 77.4173 37.0953C77.4489 37.1223 77.4686 37.1607 77.4719 37.2021C77.6335 38.7006 77.3783 40.2145 76.7344 41.5771C76.5937 41.8553 76.4406 42.1084 76.3062 42.3334C75.9687 42.8959 75.7031 43.3428 75.8344 43.799C75.9875 44.3271 76.6187 44.7365 77.7094 45.0115C77.7508 45.0169 77.7884 45.0385 77.8139 45.0716C77.8394 45.1048 77.8507 45.1466 77.8453 45.1881C77.8399 45.2295 77.8183 45.2671 77.7852 45.2926C77.7521 45.3181 77.7102 45.3294 77.6687 45.324L77.6719 45.3084ZM81.7125 38.1396C81.7125 39.2178 82.2781 40.0928 82.9625 40.0928C83.6469 40.0928 84.2125 39.2178 84.2125 38.1365C84.2125 37.0553 83.6469 36.1865 82.9469 36.1865C82.2469 36.1865 81.6969 37.0615 81.6969 38.1396M70.25 38.1521C70.25 39.2303 70.8156 40.1053 71.5 40.1021C72.1844 40.099 72.75 39.2271 72.75 38.149C72.75 37.0709 72.1844 36.1959 71.5 36.1959C70.8156 36.1959 70.25 37.074 70.25 38.1521ZM73.9344 47.749C74.0125 47.9553 74.7937 49.899 76.6156 50.3303C78.4906 50.774 80.7687 49.4365 81.5437 46.9803C80.1735 47.5563 78.7151 47.8945 77.2312 47.9803C76.1269 48.0451 75.0188 47.9674 73.9344 47.749Z" fill="#2D1929"/>
<path d="M119.528 108.062C119.178 109.787 118.425 113.243 115.597 115.055C111.022 117.987 103.95 114.327 102.05 113.305C98.181 111.23 95.7154 108.362 93.3904 105.658C91.8008 103.809 90.3609 101.836 89.0842 99.7585C86.8748 88.3741 84.6873 75.0741 82.4998 63.7116C84.7154 62.7429 88.6592 63.3491 93.5373 63.8022C94.754 63.9239 95.9589 64.1434 97.1404 64.4585C102.815 66.0897 105.994 72.8179 111.453 84.0147C118.697 98.8866 120.653 102.527 119.528 108.062ZM73.5498 63.8616C71.3623 75.2241 68.3967 88.3835 66.1998 99.746C64.4248 103.324 60.5748 109.608 53.2342 113.293C50.4717 114.683 44.1123 117.877 39.6873 115.043C36.856 113.23 36.1029 109.774 35.7529 108.049C34.631 102.527 36.5873 98.8866 43.8373 84.0147C49.2998 72.8179 52.4779 66.0897 58.1529 64.4585C59.3344 64.1434 60.5393 63.9239 61.756 63.8022C66.6342 63.3491 71.3342 62.8929 73.5498 63.8616Z" fill="#92C741"/>
<path d="M86.1031 60.3895V66.9926C86.1031 67.2324 86.008 67.4624 85.8387 67.6323C85.6695 67.8022 85.4398 67.898 85.2 67.8988H71.4499C71.2096 67.8988 70.9791 67.8034 70.8091 67.6334C70.6392 67.4634 70.5437 67.2329 70.5437 66.9926V60.3895C70.5437 60.2706 70.5672 60.1529 70.6127 60.0431C70.6583 59.9334 70.7251 59.8337 70.8093 59.7497C70.8935 59.6658 70.9934 59.5994 71.1034 59.5542C71.2133 59.509 71.3311 59.4859 71.4499 59.4863H85.2C85.4395 59.4863 85.6692 59.5815 85.8386 59.7509C86.0079 59.9202 86.1031 60.1499 86.1031 60.3895Z" fill="#92C741"/>
<path d="M93.9877 38.9646C92.6939 39.2458 90.6439 37.5521 89.5752 36.2365C88.0752 34.3927 88.847 33.4771 87.5002 31.2833C86.0314 28.8896 84.6002 28.9958 83.197 26.9239C82.4158 25.7708 81.5783 23.8427 81.8877 20.6739C81.8877 20.6739 79.2033 18.6771 77.672 23.6239C76.1408 28.5708 73.2439 30.6739 68.0189 31.9927C62.7939 33.3114 64.6877 36.9083 62.7064 38.8302C62.6478 38.9023 62.5661 38.952 62.4752 38.9708C62.4596 38.9727 62.4439 38.9727 62.4283 38.9708C62.2408 38.9364 59.9283 21.3083 70.1908 15.8614C71.3908 15.2364 75.0564 13.5396 81.1877 14.7271C83.7236 14.5695 86.2576 15.0655 88.547 16.1677C95.5377 19.6771 96.0939 28.0052 96.2502 30.2958C96.4845 33.6864 95.9189 38.5427 93.9877 38.9646Z" fill="#491F0B"/>
<path d="M60.4907 40.3307C61.5095 42.8588 64.0251 44.2276 66.1157 43.3869C68.2064 42.5463 69.0532 39.8151 68.0345 37.2901C67.0157 34.7651 64.5001 33.3963 62.4095 34.2369C60.3189 35.0776 59.472 37.8057 60.4939 40.3307M95.4595 40.3307C94.4407 42.8588 91.9251 44.2276 89.8345 43.3869C87.7439 42.5463 86.897 39.8151 87.9189 37.2901C88.9407 34.7651 91.4501 33.3963 93.5439 34.2369C95.6376 35.0776 96.4814 37.8057 95.4595 40.3307Z" fill="#E39C76"/>
<path d="M64.1346 41.6277C64.0978 41.6276 64.0623 41.6142 64.0346 41.5901C63.944 41.5151 63.1471 40.8245 63.1846 40.1839C63.2127 39.6214 63.794 39.3714 64.0596 39.2839C63.9908 38.1933 63.5596 36.837 62.8283 36.2589C62.6889 36.142 62.5249 36.058 62.3485 36.0131C62.1722 35.9682 61.988 35.9635 61.8096 35.9995C61.7891 36.0034 61.768 36.0032 61.7475 35.999C61.7271 35.9947 61.7077 35.9865 61.6904 35.9748C61.6731 35.963 61.6584 35.948 61.6469 35.9305C61.6354 35.913 61.6275 35.8935 61.6236 35.873C61.6197 35.8524 61.6199 35.8314 61.6242 35.8109C61.6284 35.7905 61.6367 35.771 61.6484 35.7538C61.6602 35.7365 61.6752 35.7217 61.6927 35.7103C61.7101 35.6988 61.7297 35.6909 61.7502 35.687C61.9721 35.64 62.2017 35.6437 62.4219 35.6978C62.6421 35.7519 62.8473 35.855 63.0221 35.9995C63.894 36.6901 64.3346 38.237 64.3783 39.3839C64.3792 39.42 64.3676 39.4553 64.3453 39.4838C64.3231 39.5123 64.2917 39.5322 64.2565 39.5401C64.2565 39.5401 63.5221 39.712 63.494 40.1901C63.4721 40.6026 64.0221 41.1589 64.2346 41.3402C64.2588 41.3608 64.2761 41.3884 64.2841 41.4191C64.2922 41.4499 64.2908 41.4824 64.2799 41.5123C64.269 41.5422 64.2493 41.5681 64.2233 41.5864C64.1973 41.6048 64.1664 41.6148 64.1346 41.6151V41.6277ZM91.6315 41.6277C91.5997 41.6273 91.5687 41.6173 91.5427 41.5989C91.5168 41.5806 91.497 41.5547 91.4862 41.5248C91.4753 41.4949 91.4738 41.4624 91.4819 41.4316C91.49 41.4009 91.5073 41.3733 91.5315 41.3526C91.744 41.1714 92.294 40.612 92.2721 40.2027C92.244 39.7245 91.519 39.5558 91.5096 39.5527C91.4746 39.5442 91.4435 39.5241 91.4214 39.4958C91.3993 39.4674 91.3874 39.4324 91.3877 39.3964C91.4315 38.2495 91.8721 36.7027 92.744 36.012C92.9193 35.8675 93.125 35.7643 93.3458 35.7102C93.5665 35.6561 93.7966 35.6525 94.019 35.6995C94.0391 35.7036 94.0582 35.7116 94.0752 35.7231C94.0922 35.7346 94.1068 35.7493 94.1181 35.7665C94.1294 35.7836 94.1372 35.8028 94.1411 35.8229C94.1451 35.8431 94.1449 35.8638 94.1408 35.8839C94.1318 35.9241 94.1076 35.9593 94.0732 35.982C94.0388 36.0047 93.997 36.0132 93.9565 36.0058C93.7781 35.9698 93.5939 35.9744 93.4175 36.0193C93.2412 36.0642 93.0772 36.1482 92.9377 36.2651C92.2065 36.8433 91.7752 38.1995 91.7065 39.2901C91.9721 39.3776 92.5533 39.6276 92.5846 40.1901C92.619 40.8308 91.8221 41.5214 91.7315 41.5964C91.7028 41.6182 91.6674 41.6293 91.6315 41.6277Z" fill="#2D1929"/>
<path d="M76.8749 87.1709C76.1187 88.6282 74.9431 89.8255 73.4999 90.6084L68.5312 97.574L63.2593 87.3302C65.0768 86.0805 66.6119 84.4634 67.7655 82.5834C70.3437 78.3146 69.7999 76.0209 72.1093 72.1709C73.428 69.9834 76.0624 68.5584 76.878 69.3427C76.9805 69.444 77.0529 69.5716 77.0874 69.7115C77.6624 72.4459 76.8499 77.7021 76.8499 77.7021C76.053 82.7771 78.3687 84.0552 76.8749 87.1709Z" fill="#FA8F6A"/>
<rect x="70.04" y="63.0361" width="14.7791" height="25.0602" rx="1.28514" fill="#26316B"/>
<path d="M91.2499 87.3344L85.9687 97.5781L80.9999 90.6125C79.9249 89.9875 78.4624 88.9312 77.6249 87.175C76.1968 84.1593 78.4249 82.9469 77.7406 78.0375C77.7406 78.0375 76.9124 72.1 77.4124 69.7187C77.4469 69.5789 77.5194 69.4512 77.6218 69.35C78.4374 68.5656 81.0593 69.975 82.3906 72.1781C84.6999 76.025 84.1562 78.3218 86.7343 82.5906C87.891 84.4704 89.4294 86.0865 91.2499 87.3344Z" fill="#FA8F6A"/>
<path d="M58.3224 74.3389L57.038 81.9451C55.7708 83.0437 54.8746 84.5076 54.4724 86.1357C54.0169 88.117 54.3085 90.1967 55.2911 91.9764L53.8568 92.3639C53.5849 91.8639 51.7255 88.3295 53.3255 84.6201C53.9221 83.2634 54.8691 82.0898 56.0693 81.2201C56.8151 78.9264 57.5661 76.6326 58.3224 74.3389Z" fill="#64923A"/>
<path d="M63.2468 87.3326L46.4375 97.5764C46.4375 97.5764 41.3937 99.5232 38.575 103.783C38.6375 103.558 40.4218 97.5326 45.7812 96.2482L63.2468 87.3326ZM101.122 92.3639L99.6874 91.9764C100.668 90.1961 100.96 88.1171 100.506 86.1357C100.104 84.5076 99.2078 83.0437 97.9406 81.9451C97.5114 79.4076 97.0822 76.8722 96.6531 74.3389C97.4052 76.6305 98.1562 78.9222 98.9062 81.2139C100.111 82.0846 101.06 83.2618 101.656 84.6232C103.253 88.3295 101.397 91.8639 101.122 92.3639Z" fill="#64923A"/>
<path d="M116.407 103.784C113.594 99.5246 108.544 97.5777 108.544 97.5777L91.7349 87.334L109.197 96.2496C114.557 97.5371 116.344 103.559 116.407 103.784Z" fill="#64923A"/>
<path d="M85.7189 32.5712C85.6628 32.5712 85.6078 32.556 85.5595 32.5274C84.2908 31.7618 81.3595 31.9024 80.3752 32.4368C80.3029 32.4692 80.2211 32.473 80.1462 32.4474C80.0712 32.4218 80.0088 32.3688 79.9715 32.2989C79.9342 32.2291 79.9248 32.1477 79.9452 32.0712C79.9656 31.9947 80.0143 31.9288 80.0814 31.8868C81.3314 31.2212 84.4876 31.1524 85.8814 31.9931C85.9521 32.0358 86.003 32.1049 86.023 32.1852C86.0429 32.2654 86.0302 32.3503 85.9876 32.4212C85.9596 32.4672 85.9201 32.5053 85.873 32.5316C85.8259 32.5578 85.7728 32.5715 85.7189 32.5712ZM73.3501 32.5712C73.293 32.5717 73.2368 32.5566 73.1876 32.5274C71.9189 31.7649 68.9876 31.9024 68.0064 32.4368C67.9342 32.4692 67.8523 32.473 67.7774 32.4474C67.7025 32.4218 67.6401 32.3688 67.6028 32.2989C67.5655 32.2291 67.5561 32.1477 67.5765 32.0712C67.5969 31.9947 67.6455 31.9288 67.7126 31.8868C68.9626 31.2212 72.1158 31.1524 73.5126 31.9931C73.5703 32.0288 73.6147 32.0822 73.6393 32.1454C73.6639 32.2086 73.6672 32.278 73.6489 32.3432C73.6305 32.4085 73.5915 32.466 73.5376 32.5071C73.4837 32.5482 73.4179 32.5707 73.3501 32.5712Z" fill="#2D1929"/>
</svg>
