<svg width="393" height="264" viewBox="0 0 393 264" fill="none" xmlns="http://www.w3.org/2000/svg">
<g clip-path="url(#clip0_546_1425)">
<path fill-rule="evenodd" clip-rule="evenodd" d="M-62.002 142.202C-67.1479 140.536 -74.62 137.931 -81.641 135.302C-87.4195 133.147 -93.1591 130.889 -98.857 128.529C-101.93 127.277 -105.848 125.593 -107.617 124.839C-110.303 123.665 -112.992 122.497 -115.65 121.291C-118.311 120.102 -120.681 118.981 -120.975 118.853L-121.863 118.43L-125.511 116.712L-129.365 114.862C-132.608 113.266 -135.832 111.634 -139.038 109.965L-142.261 108.27L-145.211 106.68L-147.48 105.43L-150 104.01C-149.805 103.203 -149.229 102.576 -148.303 102.11C-147.778 101.856 -147.226 101.661 -146.657 101.53C-146.027 101.373 -145.284 101.27 -144.588 101.128C-143.035 100.868 -141.303 100.914 -140.638 101.271C-139.977 101.627 -137.694 102.025 -135.606 102.129C-134.679 102.175 -133.73 102.275 -132.881 102.399C-128.686 104.551 -124.458 106.636 -120.198 108.655C-113.71 111.738 -107.156 114.682 -100.542 117.485C-98.927 118.162 -95.267 119.695 -92.363 120.854C-90.923 121.444 -89.166 122.127 -87.513 122.774C-85.864 123.425 -84.307 124.025 -83.243 124.421C-76.66 126.934 -72.196 128.487 -67.007 130.297L-61.571 132.124C-59.502 132.819 -57.308 133.499 -55.548 134.069C-54.175 134.517 -52.848 134.921 -51.575 135.306L-48.922 136.114C-47.355 136.599 -45.8 137.044 -44.276 137.48L-39.797 138.762L-35.453 139.936C-32.624 140.721 -29.845 141.388 -27.177 142.068C-16.46 144.712 -6.952 146.649 2.52301 148.245C5.02701 148.702 8.12401 149.136 11.536 149.652C13.238 149.923 15.044 150.124 16.893 150.366C18.747 150.587 20.642 150.871 22.583 151.05C30.317 151.93 38.483 152.461 45.145 152.749C46.596 152.818 48.4591 152.831 50.6591 152.875L54.203 152.926L58.1801 152.87L58.183 152.871L58.698 152.862C62.163 152.851 65.991 152.635 70.176 152.428C72.262 152.306 74.411 152.1 76.651 151.924C77.766 151.82 78.919 151.758 80.057 151.614L83.541 151.206C93.142 150.09 104.955 148.088 117.415 144.542C120.586 143.716 123.638 142.641 126.848 141.609C128.473 141.109 129.997 140.494 131.581 139.907L136.362 138.097C142.586 135.475 148.972 132.611 154.937 129.237C156.43 128.396 158 127.585 159.458 126.695C160.905 125.799 162.368 124.895 163.828 123.986C164.568 123.53 165.298 123.072 166.038 122.613C166.728 122.132 167.428 121.649 168.128 121.165C169.528 120.195 170.938 119.218 172.348 118.236C173.748 117.247 175.038 116.192 176.388 115.163C177.708 114.117 179.118 113.102 180.378 112.015C181.648 110.928 182.918 109.835 184.188 108.739L186.108 107.089C186.728 106.531 187.308 105.954 187.908 105.385C197.618 96.3099 205.968 86.3419 213.028 76.0749C220.088 65.8059 225.878 55.2399 230.728 44.9129C231.888 42.3189 233.028 39.7489 234.158 37.2089C235.268 34.6659 236.198 32.1179 237.198 29.6259C238.148 27.1919 239.088 24.7929 240.008 22.4339C240.438 21.2819 240.898 20.1539 241.368 19.0409C241.838 17.9279 242.278 16.8149 242.758 15.7319C244.648 11.3859 246.668 7.30186 248.708 3.49086C250.798 -0.291138 252.928 -3.79714 255.088 -6.95414C259.438 -13.2541 263.838 -18.2041 267.618 -21.6461C269.968 -23.8401 272.438 -25.7661 274.868 -27.5051C277.231 -29.1308 279.696 -30.6022 282.248 -31.9101C287.158 -34.3241 291.828 -35.8521 295.888 -36.6711C300.818 -37.7671 307.498 -38.3361 314.528 -37.8841C318.028 -37.6811 321.618 -37.2031 324.968 -36.6361C326.638 -36.3761 328.278 -36.0181 329.808 -35.7241C331.348 -35.3701 332.788 -35.0761 334.108 -34.7341C339.418 -33.4351 344.478 -31.8681 348.308 -30.5841C352.148 -29.2971 354.758 -28.2941 355.248 -28.1291C356.238 -27.7541 357.418 -27.2911 357.878 -27.0951C358.348 -26.9001 359.448 -26.4761 360.368 -26.1181C360.868 -25.9211 363.528 -24.8771 367.408 -23.2431C371.278 -21.5971 376.358 -19.3371 381.718 -16.7931C387.078 -14.2491 392.868 -11.3441 397.878 -8.73914C402.898 -6.13914 407.138 -3.83414 409.468 -2.57514C433.028 10.2089 460.058 26.6219 488.938 44.1359C517.828 61.6359 548.698 80.2209 580.448 97.0419C599.358 107.07 615.878 115.064 630.798 121.634C645.708 128.211 659.008 133.364 671.518 137.711C684.058 142.025 695.828 145.535 707.938 148.49C713.978 149.985 720.138 151.298 726.498 152.488C732.868 153.675 739.468 154.727 746.438 155.541C754.198 156.499 766.318 157.556 779.298 157.512C785.798 157.52 792.478 157.219 798.918 156.68L801.328 156.482C802.128 156.411 802.908 156.317 803.698 156.235L808.298 155.742L816.478 154.888C827.088 153.969 838.598 153.405 848.638 153.511L850.488 153.501L852.308 153.547L855.818 153.639C858.088 153.712 860.208 153.719 862.158 153.834L871.408 154.354C884.558 155.296 895.338 156.808 904.198 158.192C908.628 158.972 912.598 159.578 916.138 160.334C919.678 161.053 922.838 161.63 925.628 162.301C928.418 162.936 930.888 163.497 933.088 163.996L938.928 165.473C940.648 165.918 942.188 166.276 943.568 166.668C944.948 167.054 946.198 167.404 947.388 167.735C948.838 168.141 950.628 168.638 952.608 169.19C954.568 169.788 956.728 170.445 958.938 171.12C960.048 171.457 961.178 171.798 962.298 172.14C963.408 172.505 964.508 172.871 965.598 173.229L971.788 175.269C979.328 177.884 990.568 182.01 996.648 184.576C997.678 184.992 998.898 185.484 1000.28 186.045C1001.65 186.63 1003.18 187.286 1004.86 188.002C1006.53 188.725 1008.37 189.482 1010.28 190.34C1012.19 191.202 1014.23 192.118 1016.36 193.078C1024.83 196.964 1034.71 201.741 1044.46 206.895C1053.84 211.864 1063.09 217.069 1072.21 222.505C1074.28 223.757 1076.29 224.967 1078.22 226.125C1080.11 227.303 1081.92 228.428 1083.62 229.487C1087.04 231.588 1089.93 233.507 1092.31 235.016C1097.35 238.295 1102.35 241.64 1107.3 245.05C1112.39 248.551 1117.15 251.922 1120.4 254.291C1126.57 258.73 1132.69 263.311 1139.61 268.655C1147.64 274.855 1155.54 281.223 1163.3 287.755C1169.15 292.628 1177.48 299.914 1181.9 303.891C1186.08 307.627 1189.87 311.136 1193.95 314.931C1194.96 315.884 1195.99 316.855 1197.05 317.851C1197.82 318.589 1198.62 319.346 1199.44 320.129C1200.3 320.952 1201.21 321.83 1202.21 322.787C1203.48 324.025 1205.95 326.437 1207.7 328.154C1209.45 329.874 1211.66 332.077 1212.63 333.054C1216.63 337.051 1220.57 341.1 1224.47 345.2C1227.54 348.438 1230.21 351.337 1231.98 353.297C1232 353.834 1231.94 354.372 1231.81 354.893C1231.51 356.097 1231.53 357.41 1231.89 357.817C1232.25 358.227 1231.84 359.168 1230.94 359.907C1230.11 360.604 1229.14 361.13 1228.11 361.455C1227.07 361.794 1226 362.047 1224.84 362.147C1224.11 361.348 1223.25 360.402 1222.53 359.599C1221.99 359.022 1221.45 358.442 1220.92 357.858C1220.55 357.472 1219.75 356.608 1219.11 355.931C1218.19 354.938 1215.86 352.495 1213.57 350.142C1213.39 349.948 1212.4 348.922 1211.38 347.854L1209.28 345.702L1208.75 345.181C1208.59 345.011 1207.2 343.615 1205.68 342.071C1204.13 340.534 1202.04 338.451 1201.02 337.443C1200 336.436 1197.72 334.207 1195.93 332.492C1194.87 331.48 1193.38 330.063 1191.66 328.423C1189.41 326.321 1186.86 323.934 1184.25 321.492C1173.79 311.699 1162.34 301.698 1154.38 295.045C1152.66 293.604 1150.66 291.924 1148.48 290.148C1147.4 289.258 1146.28 288.337 1145.14 287.401C1143.99 286.473 1142.82 285.53 1141.64 284.586C1137.28 281.081 1132.88 277.628 1128.45 274.226C1118.98 266.993 1109.34 259.992 1099.54 253.23C1092.79 248.62 1085.35 243.628 1077.44 238.663C1069.54 233.697 1061.25 228.699 1052.94 223.979C1044.62 219.283 1036.32 214.83 1028.49 210.875C1020.64 206.951 1013.32 203.443 1006.96 200.628C1005.37 199.918 1003.85 199.24 1002.41 198.595C1000.96 197.956 999.558 197.386 998.268 196.831C995.658 195.742 993.418 194.74 991.508 194.004C987.708 192.487 985.498 191.602 985.338 191.536C985.318 191.531 984.878 191.354 984.088 191.039C983.288 190.74 982.128 190.308 980.708 189.776C979.288 189.244 977.608 188.611 975.728 187.908C973.848 187.223 971.768 186.512 969.588 185.742C968.498 185.359 967.358 184.961 966.198 184.552C965.028 184.17 963.828 183.779 962.608 183.385L958.968 182.196C958.358 181.998 957.758 181.801 957.158 181.605L955.358 181.062L948.668 179.051C946.638 178.452 944.838 177.986 943.428 177.591C941.308 177.008 938.468 176.191 934.948 175.35C933.198 174.912 931.278 174.435 929.218 173.922C927.158 173.462 924.938 172.968 922.588 172.445C913.198 170.423 901.608 168.282 888.738 166.783C875.878 165.271 861.768 164.414 847.458 164.581L844.768 164.603L843.418 164.612L842.078 164.665L836.708 164.885C833.098 164.968 829.558 165.325 825.988 165.557L823.308 165.753L820.668 166.036L815.388 166.593L809.158 167.261C806.898 167.526 804.588 167.694 802.298 167.884L800.048 168.062L797.748 168.195C796.198 168.278 794.638 168.383 793.038 168.446C789.848 168.554 786.578 168.673 783.258 168.671C776.618 168.716 769.788 168.535 763.138 168.088C749.818 167.273 737.258 165.477 727.928 163.85C734.509 165.02 741.122 166.007 747.758 166.811C754.418 167.59 761.128 168.155 767.818 168.522C774.508 168.869 781.178 168.963 787.798 168.864C794.408 168.744 800.928 168.358 807.348 167.798L823.448 166.17L830.848 165.673C833.298 165.469 835.798 165.415 838.288 165.327C843.248 165.079 848.288 165.149 853.308 165.113L860.878 165.327L862.768 165.376C863.398 165.401 864.038 165.449 864.668 165.483L868.478 165.706C888.758 166.862 909.278 170.153 929.478 175.002C939.578 177.47 949.588 180.373 959.478 183.603L963.188 184.834C964.418 185.244 965.658 185.644 966.878 186.094L974.218 188.716L981.488 191.489L983.308 192.181L985.108 192.913L988.708 194.374C998.288 198.301 1007.74 202.486 1016.97 206.969C1026.15 211.433 1035.2 216.141 1044.13 221.089C1053.01 225.996 1061.65 231.159 1070.15 236.444C1078.63 241.74 1086.95 247.182 1095.05 252.793C1127.49 275.201 1157.05 299.686 1183.84 325.161C1189.69 330.74 1195.45 336.418 1201.11 342.193C1206.7 347.906 1212.15 353.685 1217.27 359.401C1216.12 359.685 1214.41 359.842 1213.3 359.674C1212.74 359.591 1210.43 357.583 1208.13 355.211C1205.47 352.482 1203.47 350.862 1202.8 350.813C1202.2 350.771 1200.67 349.666 1199.36 348.329C1198.05 346.999 1196.27 345.726 1195.39 345.488C1194.46 345.231 1193.52 344.555 1193.14 343.836C1192.77 343.17 1192.14 342.595 1191.74 342.573C1191.34 342.545 1189.71 341.166 1188.12 339.49C1186.53 337.817 1184.44 336.008 1183.51 335.452C1182.57 334.899 1181.89 334.176 1181.99 333.831C1182.09 333.46 1181.5 332.865 1180.51 332.355C1179.6 331.885 1178.51 330.879 1178.09 330.116C1177.55 329.116 1177.11 328.806 1176.53 329.018C1176.27 329.114 1175.86 328.995 1175.4 328.75C1175.28 328.687 1175.16 328.618 1175.04 328.544L1174.95 328.486C1174.92 328.465 1174.9 328.459 1174.82 328.387C1174.68 328.273 1174.55 328.157 1174.4 328.038C1173.84 327.565 1173.25 327.047 1172.67 326.515C1170.35 324.382 1168.09 322.032 1168 321.286C1167.9 320.478 1167 319.738 1164.52 318.514C1161.88 317.204 1161.04 316.509 1160.45 315.187C1159.86 313.872 1159.26 313.379 1157.59 312.835C1155.92 312.29 1155.44 311.892 1155.25 310.912C1155.12 310.235 1153.89 308.929 1152.53 308.009C1151.16 307.091 1150.31 306.229 1150.62 306.097C1150.94 305.965 1149.07 304.013 1146.46 301.765C1144.36 299.952 1142.26 298.13 1140.18 296.299C1137.5 293.977 1134.45 291.336 1131.67 288.938C1127.55 285.381 1120.72 279.764 1112.85 273.724C1105 267.674 1096.11 261.216 1088.19 255.803C1086.63 254.728 1068.83 242.238 1047.02 229.621C1044 227.858 1041.05 226.235 1038.38 224.713C1037.32 224.117 1036.32 223.619 1035.47 223.189C1033.78 222.338 1032.65 221.839 1032.5 221.898C1032.2 222.013 1031.93 221.964 1031.91 221.779C1031.9 221.734 1031.36 221.394 1030.4 220.819C1029.45 220.232 1028.03 219.459 1026.3 218.496C1024.56 217.546 1022.53 216.38 1020.22 215.18C1017.9 213.98 1015.38 212.643 1012.71 211.298L1004.87 207.425C1002.34 206.226 999.958 205.1 997.868 204.107C993.658 202.162 990.558 200.773 989.648 200.314C987.798 199.42 983.548 197.512 980.228 195.981C978.538 195.261 976.528 194.384 974.628 193.547C973.678 193.127 972.758 192.72 971.928 192.351C971.088 191.997 970.328 191.68 969.728 191.424C967.838 190.619 966.098 189.882 964.478 189.189C962.848 188.491 961.288 187.922 959.798 187.33C958.308 186.754 956.858 186.198 955.418 185.643C953.968 185.102 952.508 184.611 950.988 184.08C950.178 183.8 949.208 183.461 948.128 183.087C946.982 182.676 945.829 182.288 944.668 181.923C942.248 181.145 939.718 180.333 937.668 179.676L928.808 177.061C926.078 176.315 923.568 175.67 921.218 175.04C920.628 174.883 920.048 174.73 919.468 174.578C918.898 174.442 918.328 174.309 917.778 174.177C916.658 173.916 915.568 173.662 914.508 173.413C912.368 172.925 910.328 172.402 908.278 172.019C908.278 172.019 907.138 171.785 905.438 171.433L902.528 170.83L900.888 170.489L899.188 170.189L892.908 169.068C892.048 168.909 891.338 168.786 890.838 168.72L890.048 168.603C884.098 167.623 872.318 166.321 861.038 165.934C858.228 165.871 855.428 165.768 852.768 165.749L845.268 165.843C844.688 165.853 844.118 165.855 843.568 165.872L841.978 165.957L839.098 166.118C837.328 166.223 835.868 166.321 834.798 166.413C833.218 166.547 831.038 166.846 828.768 167.086C826.508 167.347 824.148 167.558 822.308 167.852L816.088 168.728L809.198 169.663C807.688 169.887 805.958 170.045 803.728 170.286C801.508 170.541 798.708 170.738 795.048 171.009C787.718 171.44 776.708 172.01 759.048 170.953C756.158 170.764 750.478 170.354 743.718 169.535C736.948 168.737 729.088 167.584 721.868 166.214C714.108 164.762 706.392 163.088 698.728 161.195C694.938 160.271 691.368 159.31 688.178 158.456C685.018 157.567 682.208 156.798 680.058 156.155C672.894 154.076 665.785 151.814 658.738 149.37C651.949 147.027 645.214 144.531 638.538 141.885C630.833 138.827 623.195 135.606 615.628 132.222C605.9 127.877 596.271 123.314 586.748 118.536C568.408 109.376 550.388 99.5239 533.808 90.0989C517.218 80.6709 502.068 71.6759 489.418 64.1419C486.918 62.6549 480.428 58.6279 475.048 55.2059C469.658 51.7819 464.738 48.8899 464.078 48.7559C463.418 48.6219 462.918 48.2499 462.958 47.9159C462.998 47.5859 462.628 47.0809 462.138 46.7859C461.638 46.4959 457.088 43.5259 452.028 40.2179C446.958 36.9029 438.088 31.1419 432.288 27.4339C425.198 22.8919 413.308 15.6089 398.768 7.45986C391.498 3.41386 383.558 -0.86414 375.258 -4.95514C366.958 -9.06314 358.278 -12.9931 349.758 -16.2881C341.248 -19.5861 332.878 -22.1801 325.828 -23.5771C322.298 -24.2831 319.118 -24.7021 316.348 -24.8771C313.568 -25.0541 311.198 -24.9991 309.038 -24.7741C306.888 -24.5481 304.928 -24.1391 302.998 -23.5621C301.078 -22.9811 299.208 -22.2081 297.408 -21.3071C296.498 -20.8891 295.638 -20.3471 294.778 -19.8781C294.358 -19.6081 293.938 -19.3411 293.528 -19.0791C293.328 -18.9491 293.118 -18.8201 292.918 -18.6931C292.718 -18.5501 292.528 -18.4081 292.328 -18.2681C291.938 -17.9881 291.548 -17.7131 291.178 -17.4431C290.798 -17.1701 290.448 -16.8601 290.088 -16.5811C289.728 -16.2961 289.378 -16.0171 289.038 -15.7441C288.708 -15.4481 288.388 -15.1591 288.078 -14.8771C288.008 -14.8241 287.938 -14.7691 287.878 -14.7171L287.888 -14.7151C287.298 -14.2851 286.678 -13.6821 286.078 -13.1031C285.858 -12.8851 285.558 -12.5741 285.178 -12.1861C284.808 -11.7741 284.368 -11.2791 283.868 -10.7161C283.358 -10.1721 282.828 -9.48914 282.238 -8.77314C281.948 -8.41114 281.638 -8.04914 281.328 -7.65114C281.028 -7.24714 280.718 -6.83114 280.408 -6.40314C277.958 -2.92614 275.648 1.18186 273.548 5.31886C271.458 9.54886 269.438 13.6389 267.718 17.1029C267.128 18.6669 266.678 20.1569 266.228 21.4909C265.768 22.8209 265.418 24.0659 265.078 25.1829C264.378 27.4089 263.888 29.2329 263.448 30.6859C263.338 31.0499 263.238 31.3919 263.138 31.7139C263.018 32.0599 262.918 32.3839 262.818 32.6889C262.588 33.3369 262.378 33.9019 262.198 34.4019C261.828 35.3959 261.498 36.1149 261.188 36.6839C258.978 41.1039 252.388 55.0719 246.458 65.6049C245.318 67.7969 244.238 69.9499 243.118 72.0359C241.918 74.1119 240.758 76.1339 239.628 78.0929C239.048 79.0699 238.538 80.0429 237.928 80.9799L236.158 83.7439C234.988 85.5519 233.868 87.2909 232.798 88.9499C231.618 90.5899 230.498 92.1539 229.448 93.6299C228.918 94.3699 228.398 95.0859 227.898 95.7809C227.648 96.1279 227.408 96.4699 227.158 96.8049C226.898 97.1369 226.638 97.4629 226.388 97.7829C224.348 100.341 222.598 102.527 221.208 104.275L221.148 104.251C219.848 105.759 218.478 107.334 216.978 109.061C216.348 109.778 215.648 110.579 214.918 111.414C214.128 112.234 213.308 113.086 212.508 113.92C210.888 115.585 209.328 117.179 208.238 118.297C206.068 120.311 203.911 122.339 201.768 124.381C200.628 125.418 199.378 126.471 198.078 127.616C196.748 128.75 195.418 129.991 193.808 131.293C192.758 132.127 191.188 133.345 189.488 134.636C188.638 135.279 187.778 135.95 186.898 136.581L184.278 138.347C182.648 139.434 180.808 140.682 179.088 141.786L174.718 144.405C174.228 144.7 173.148 145.316 171.628 146.174C170.048 147.01 167.938 148.046 165.518 149.248C163.148 150.477 160.209 151.732 157.1 153.077C154.051 154.461 150.512 155.735 147.005 157.061C145.27 157.738 143.467 158.324 141.726 158.895L136.694 160.546C133.431 161.56 130.367 162.386 127.826 163.126C126.562 163.504 125.36 163.791 124.309 164.056L121.599 164.741C120.103 165.125 119.255 165.356 119.222 165.401C119.087 165.588 118.729 165.579 118.417 165.388C118.339 165.34 117.885 165.381 117.133 165.495C116.378 165.608 115.293 165.754 113.994 165.967C112.69 166.176 111.158 166.435 109.474 166.729C107.367 167.136 105.091 167.454 102.745 167.792L99.168 168.301L97.341 168.558L95.465 168.765L88.7271 169.488C86.4991 169.721 84.255 169.847 82.057 170.02C77.665 170.388 73.327 170.497 69.171 170.67C67.09 170.744 65.043 170.733 63.046 170.762C61.049 170.766 59.097 170.824 57.202 170.772L51.682 170.663L49.056 170.603L46.532 170.489L41.787 170.26L39.578 170.148L37.492 169.998L30.381 169.461L23.092 168.739C8.80704 167.235 -7.29097 164.509 -21.538 161.459C-35.808 158.425 -48.173 155.039 -55.824 152.924L-57.769 152.371L-58.664 152.116L-59.053 152.016L-60.621 151.605C-61.666 151.327 -62.7089 151.054 -63.6609 150.777C-65.1584 150.355 -66.6503 149.913 -68.136 149.451C-69.965 148.872 -71.548 148.564 -71.687 148.796C-71.823 149.027 -72.5219 148.868 -73.2339 148.439C-73.9459 148.01 -75.007 147.809 -75.6 147.989C-76.455 148.244 -76.7719 148.116 -77.114 147.366C-77.457 146.617 -77.828 146.452 -78.947 146.589C-80.066 146.725 -80.608 146.484 -81.502 145.441C-82.336 144.469 -82.8829 144.202 -83.601 144.42C-84.92 144.822 -90.982 142.434 -90.473 141.724C-90.196 141.329 -90.81 141.026 -92.662 140.638C-94.075 140.336 -96.037 139.58 -96.989 138.935C-98.023 138.234 -99.149 137.805 -99.797 137.857C-100.395 137.906 -101.773 137.409 -102.865 136.738C-103.943 136.058 -107.392 134.54 -110.479 133.288C-113.59 132.051 -116.137 130.782 -116.203 130.509C-116.26 130.237 -117.312 129.739 -118.521 129.409C-119.818 129.047 -121.059 128.32 -121.539 127.659C-121.987 127.039 -124.279 125.652 -126.651 124.551C-129.039 123.437 -130.984 122.208 -131.043 121.806C-131.113 121.339 -133.949 119.719 -138.702 117.308C-142.834 115.206 -146.316 113.053 -146.419 112.655C-146.617 111.879 -146.142 110.808 -145.49 110.15C-138.292 113.822 -131.182 117.185 -123.931 120.45C-116.642 123.713 -109.284 126.821 -101.863 129.77C-86.915 135.707 -71.463 141.132 -55.394 145.86C-46.5277 148.523 -37.5878 150.934 -28.585 153.09C-19.3575 155.291 -10.0593 157.184 -0.705994 158.767C8.74901 160.356 18.342 161.688 28.052 162.545C37.752 163.421 47.531 163.913 57.281 163.97C67.033 163.991 76.725 163.526 86.229 162.62L93.315 161.844C95.65 161.534 97.965 161.184 100.285 160.847C102.62 160.533 104.878 160.099 107.147 159.683C109.403 159.25 111.708 158.88 113.893 158.356L120.504 156.859C122.671 156.322 124.787 155.729 126.924 155.158L130.111 154.284L133.197 153.317C135.242 152.662 137.322 152.034 139.324 151.343C143.243 149.899 147.272 148.524 150.949 146.906C152.809 146.113 154.723 145.352 156.526 144.522L161.858 141.986L158.217 143.679C156.95 144.267 155.642 144.886 154.182 145.461C152.744 146.049 151.257 146.659 149.722 147.286L147.382 148.236L144.875 149.141L139.645 151.001C138.764 151.327 137.822 151.615 136.871 151.908L133.995 152.794C132.04 153.375 130.12 154.029 128.011 154.55L121.668 156.204C112.331 158.43 102.877 160.132 93.35 161.302C83.283 162.482 72.782 163.118 62.375 163.201C52.2245 163.288 42.0757 162.879 31.965 161.977C22.268 161.116 13.152 159.948 4.99902 158.622C-11.322 155.974 -23.823 152.93 -30.528 151.273C-36.705 149.746 -44.651 147.568 -52.425 145.238L-56.059 144.115L-58.215 143.44L-62.002 142.202Z" fill="#F99540"/>
<mask id="mask0_546_1425" style="mask-type:alpha" maskUnits="userSpaceOnUse" x="-138" y="-150" width="1452" height="523">
<path fill-rule="evenodd" clip-rule="evenodd" d="M-137.568 121.841L1264.81 372.618L1313.42 100.777L-88.9567 -150L-137.568 121.84V121.841Z" fill="white"/>
</mask>
<g mask="url(#mask0_546_1425)">
<path fill-rule="evenodd" clip-rule="evenodd" d="M600.648 87.534C584.518 77.7141 571.528 70.439 557.518 62.546C543.518 54.636 528.618 46.054 509.128 33.261C489.648 20.464 471.878 9.97408 455.028 0.645081C438.168 -8.68492 422.328 -16.87 406.368 -25.101C390.398 -33.326 374.568 -40.244 359.798 -45.209C352.418 -47.694 345.358 -49.712 338.818 -51.219C332.993 -52.5681 327.106 -53.633 321.178 -54.41C311.308 -55.681 302.388 -55.735 295.028 -55.064C287.658 -54.371 281.848 -53.064 277.348 -51.756C275.068 -51.124 273.188 -50.417 271.468 -49.828C269.838 -49.177 268.378 -48.62 267.188 -48.094C266.018 -47.559 265.028 -47.107 264.208 -46.734C263.428 -46.343 262.808 -46.034 262.358 -45.804C260.538 -44.888 261.188 -45.286 263.838 -46.732C266.598 -48.098 271.468 -50.529 279.228 -52.714C283.118 -53.791 287.748 -54.756 293.038 -55.39C298.328 -56.022 304.298 -56.283 310.618 -56.03C316.948 -55.784 323.598 -55.032 330.278 -53.843C336.958 -52.646 343.658 -51.019 350.238 -49.107C363.418 -45.276 376.118 -40.329 388.128 -35.077C400.138 -29.812 411.508 -24.233 422.028 -18.853C433.368 -13.043 443.238 -7.64092 452.328 -2.52892C461.408 2.58908 469.698 7.42708 477.708 12.204C493.718 21.76 508.608 31.094 526.068 42.079C543.538 53.05 549.938 56.807 554.228 59.323C558.548 61.8111 560.748 63.043 570.098 68.498C581.128 74.909 588.768 79.64 593.658 82.793C598.538 85.941 600.648 87.534 600.648 87.534ZM1097.93 221.39C1097.65 220.863 1098.25 220.581 1099.25 220.777C1099.44 220.81 1100.63 221.487 1102.69 222.738C1104.75 223.994 1107.74 225.782 1111.37 228.129C1118.69 232.78 1128.83 239.503 1140.43 247.83C1153.41 257.15 1166.1 266.876 1178.48 276.992C1191.84 287.911 1205.51 299.818 1218.53 312.022C1229.26 321.683 1239.54 331.598 1247.03 339.139C1250.78 342.908 1253.85 346.08 1255.98 348.307C1258.12 350.529 1259.35 351.829 1259.35 351.739C1259.33 351.376 1260.38 350.68 1261.68 350.196C1261.8 350.156 1260.92 348.959 1259.22 346.88C1257.52 344.799 1254.99 341.83 1251.75 338.184C1245.26 330.892 1235.88 320.89 1224.58 309.78C1196.62 282.729 1162.36 253.671 1123.26 226.973C1103.71 213.638 1082.93 200.937 1061.4 189.461C1050.65 183.718 1039.71 178.323 1028.61 173.286C1017.54 168.27 1006.43 163.598 995.308 159.424C984.178 155.259 973.128 151.518 962.288 148.252C959.578 147.446 956.858 146.691 954.188 145.925C952.848 145.548 951.528 145.159 950.198 144.799C948.858 144.452 947.528 144.107 946.198 143.764C943.548 143.088 940.948 142.383 938.348 141.76C935.728 141.154 933.158 140.555 930.608 139.966C928.078 139.354 925.538 138.854 923.038 138.342C920.548 137.837 918.088 137.315 915.658 136.852L908.458 135.577L904.948 134.96C903.788 134.764 902.628 134.606 901.488 134.431C896.898 133.756 892.488 133.053 888.238 132.591L881.998 131.847C880.997 131.723 879.993 131.619 878.988 131.536C877.988 131.446 877.008 131.356 876.038 131.267C872.158 130.924 868.468 130.546 865.008 130.376C861.528 130.177 858.258 129.935 855.218 129.818C849.138 129.641 843.908 129.413 839.698 129.472L834.088 129.468H831.838L829.988 129.513L827.448 129.576C826.868 129.588 826.558 129.592 826.528 129.586C825.108 129.268 824.408 128.869 824.998 128.701C825.118 128.668 826.378 128.585 828.698 128.46C830.998 128.295 834.408 128.26 838.788 128.18C843.148 128.044 848.548 128.167 854.818 128.27C861.118 128.5 868.308 128.78 876.328 129.475C880.328 129.741 884.528 130.228 888.918 130.695L892.238 131.055C893.358 131.178 894.488 131.35 895.628 131.498L902.598 132.448C904.968 132.745 907.358 133.176 909.798 133.567C912.238 133.973 914.718 134.366 917.228 134.808C919.738 135.288 922.268 135.776 924.848 136.271L928.748 137.031L932.658 137.887C953.718 142.402 976.478 148.941 999.328 157.371C1002.17 158.44 1005.07 159.483 1007.92 160.603L1016.5 164.005C1022.17 166.36 1027.92 168.752 1033.57 171.301C1044.95 176.375 1056.17 181.79 1067.22 187.539C1089.28 199.055 1110.51 211.778 1130.46 225.052C1150.42 238.327 1169.07 252.168 1186.26 265.944C1202.41 278.897 1218.07 292.453 1233.21 306.582C1242.23 314.685 1251.08 322.99 1259.73 331.49C1262.94 334.656 1265.49 337.204 1267.24 338.974L1269.26 341.004C1269.49 341.234 1269.67 341.409 1269.79 341.527C1269.91 341.644 1269.98 341.702 1269.99 341.7C1271.15 341.355 1269.85 339.333 1268.47 336.848C1267.09 334.368 1265.61 331.417 1266.44 329.12C1266.52 328.895 1266.07 328.649 1266.39 328.403C1266.83 328.067 1266.42 327.615 1264.77 326.622C1262.98 325.558 1262.62 325.124 1262.93 324.379C1263.2 323.724 1262.75 323.045 1261.36 322.067C1258.78 320.244 1253.58 315.114 1254.14 314.918C1254.39 314.832 1253.19 313.528 1251.49 312.029C1249.5 310.298 1247.52 308.554 1245.55 306.797C1244.7 306.035 1243.92 305.329 1243.2 304.682C1242.85 304.356 1242.51 304.045 1242.19 303.749C1241.58 303.176 1241.01 302.632 1240.46 302.116C1237.54 299.339 1235.29 297.174 1233.75 295.633C1232.22 294.088 1231.4 293.161 1231.33 292.87C1231.12 291.995 1230.4 291.409 1228.76 290.793C1227.29 290.239 1226.35 289.499 1226.09 288.733C1225.61 287.181 1219.17 281.654 1217.58 281.447C1216.91 281.353 1215.75 280.72 1214.96 280.025C1214.19 279.34 1214.36 278.922 1215.34 279.102C1216.88 279.387 1216.07 278.522 1209.92 273.454C1205.87 270.172 1202.83 267.402 1203.12 267.268C1203.44 267.127 1202.53 266.427 1201.08 265.697C1199.65 264.97 1198.27 263.998 1198 263.517C1197.72 263.035 1196.5 262.09 1195.3 261.415C1194.18 260.802 1191.2 258.547 1185.72 254.408C1180.25 250.266 1172.35 244.215 1161.12 236.116C1157.82 233.767 1154.57 231.501 1151.95 229.76C1149.32 228.024 1147.37 226.794 1146.74 226.489C1145.49 225.893 1144.26 224.955 1144.02 224.459C1143.79 223.95 1141 221.977 1137.8 220.061C1132.12 216.706 1127.7 213.674 1120.52 208.36C1118.61 206.952 1116.32 205.669 1115.49 205.49C1115.07 205.402 1113.28 204.439 1110.73 202.964C1107.56 201.163 1104.42 199.32 1101.3 197.435C1097.93 195.464 1094.54 193.462 1091.74 191.855C1088.92 190.262 1086.75 189.035 1085.91 188.564C1085.52 188.348 1084.99 188.024 1084.74 187.844C1084.34 187.539 1081.16 185.828 1078.68 184.567C1078.16 184.297 1077.11 183.742 1075.79 183.049C1074.49 182.349 1072.92 181.514 1071.33 180.701C1068.16 179.064 1065.06 177.448 1064.26 177.002C1063.35 176.505 1061.24 175.451 1059.58 174.635C1058.36 174.032 1056.26 172.989 1053.74 171.742C1051.18 170.525 1048.19 169.106 1045.25 167.713C1045.01 167.601 1044.29 167.206 1043.29 166.68C1042.29 166.152 1041.02 165.485 1039.73 164.805C1037.16 163.437 1034.8 162.22 1034.47 162.093C1034.15 161.975 1033.51 161.739 1033.04 161.582C1032.58 161.422 1029.05 159.736 1025.18 157.835C1023.26 156.872 1020.9 155.812 1018.73 154.812C1016.56 153.818 1014.55 152.908 1013.23 152.324C1011.9 151.745 1009.73 150.841 1007.32 149.826C1004.9 148.822 1002.28 147.677 999.898 146.762C994.338 144.541 984.198 140.642 973.078 137.071C967.588 135.213 961.758 133.551 956.408 131.952C953.708 131.196 951.078 130.5 948.628 129.842C946.178 129.194 943.918 128.568 941.838 128.097C940.058 127.667 937.988 127.167 935.758 126.63C933.538 126.088 931.178 125.5 928.768 124.986C923.958 123.932 919.158 122.792 915.418 122.074C910.388 121.026 899.838 119.057 886.708 117.523C873.618 115.941 857.958 114.706 843.178 114.565C842.258 114.545 841.328 114.518 840.418 114.509L837.688 114.522L832.308 114.561L827.078 114.617L822.058 114.814C818.788 114.96 815.628 115.06 812.698 115.252L804.538 115.88C802.018 116.078 799.738 116.263 797.768 116.516C795.798 116.745 794.088 116.952 792.688 117.131C789.888 117.488 788.328 117.731 788.378 117.814L787.458 117.944L786.598 118.069L785.788 118.193C784.578 118.368 782.918 118.637 781.048 118.837C779.198 119.084 777.008 119.263 774.988 119.459L772.138 119.679C771.268 119.756 770.488 119.772 769.888 119.819C768.978 119.873 767.758 119.959 766.228 119.97L763.738 120.016L760.838 119.988C756.708 119.911 751.548 119.651 745.648 119.013C739.093 118.302 732.575 117.276 726.118 115.94C719.108 114.502 711.758 112.664 704.528 110.55C698.663 108.821 692.841 106.948 687.068 104.933C682.247 103.249 677.453 101.489 672.688 99.653C664.208 96.403 656.998 93.339 650.428 90.426C644.194 87.6583 638.016 84.7658 631.898 81.75C619.908 75.825 607.728 69.395 590.078 59.314C578.468 52.684 563.028 43.59 555.708 39.319C530.388 24.621 507.108 9.67408 482.498 -6.29792C471.658 -13.33 463.628 -18.331 458.288 -21.573C452.938 -24.817 450.258 -26.306 449.958 -26.351C449.808 -26.374 449.548 -26.512 449.398 -26.666C449.118 -26.92 444.088 -29.945 436.908 -33.98C432.919 -36.225 428.902 -38.4201 424.858 -40.565C420.498 -42.861 415.978 -45.19 411.598 -47.322C405.978 -50.065 401.438 -52.225 398.248 -53.752C395.088 -55.282 393.298 -56.184 393.208 -56.414C393.018 -56.907 392.698 -57.026 392.208 -56.805C392.018 -56.726 391.138 -56.999 388.998 -57.782C387.918 -58.173 386.548 -58.693 384.808 -59.362C383.018 -60.024 380.898 -60.84 378.258 -61.806L373.928 -63.373L368.728 -65.166C366.808 -65.794 364.778 -66.468 362.538 -67.17C360.258 -67.861 357.898 -68.609 355.198 -69.352C353.848 -69.723 352.518 -70.12 351.038 -70.495C349.578 -70.871 348.068 -71.257 346.518 -71.655C344.918 -72.028 343.278 -72.412 341.578 -72.807C339.888 -73.2 338.048 -73.556 336.208 -73.936C328.748 -75.398 319.998 -76.784 309.768 -77.425C304.368 -77.741 299.868 -77.794 296.198 -77.701C294.368 -77.646 292.748 -77.596 291.318 -77.511C289.898 -77.411 288.658 -77.311 287.598 -77.213C285.478 -77.034 284.078 -76.801 283.208 -76.627C282.338 -76.449 281.998 -76.306 282.058 -76.184C282.298 -75.698 282.148 -75.693 281.428 -76.141C281.058 -76.367 278.588 -76.339 272.238 -75.344C270.678 -75.068 268.848 -74.753 266.818 -74.317L263.608 -73.569C262.468 -73.3 261.278 -73.003 260.068 -72.647C258.858 -72.3 257.568 -71.925 256.218 -71.519C254.908 -71.097 253.568 -70.631 252.148 -70.137C250.698 -69.649 249.318 -69.088 247.838 -68.497L245.588 -67.58C244.848 -67.259 244.118 -66.92 243.358 -66.575C234.758 -62.626 228.898 -58.788 224.068 -55.188C219.278 -51.568 215.498 -48.128 212.068 -44.548C205.338 -37.383 199.658 -29.636 193.738 -18.28C192.318 -15.653 189.718 -10.293 188.068 -6.37592C187.178 -4.41891 186.348 -2.20592 185.558 -0.208923C184.973 1.39358 184.417 3.00616 183.888 4.62808C183.548 5.69209 182.988 7.42808 182.368 9.36708C182.068 10.27 181.758 11.222 181.448 12.167C181.148 13.033 180.848 13.893 180.578 14.697C179.918 16.597 179.318 18.354 178.758 19.988C178.178 21.615 177.578 23.087 177.078 24.48C176.028 27.252 175.248 29.662 174.408 31.731C174.048 32.655 173.528 33.986 172.978 35.385C172.408 36.78 171.848 38.26 171.268 39.41C169.898 42.264 168.818 44.728 167.818 46.777C166.945 48.4668 166.095 50.1683 165.268 51.881C164.188 53.72 163.068 55.275 162.188 56.627C161.302 57.974 160.602 59.082 160.133 59.887C159.188 61.477 157.747 63.447 156.361 65.449L155.309 66.932C154.946 67.411 154.563 67.865 154.204 68.314L152.199 70.745C151.494 71.555 150.776 72.51 149.895 73.461L147.119 76.508L145.654 78.144C145.16 78.7 144.598 79.2141 144.069 79.761L140.847 83.03C139.771 84.112 138.607 85.1 137.548 86.107C136.46 87.089 135.484 88.097 134.433 88.923L131.63 91.299L130.45 92.322C130.084 92.64 129.711 92.9041 129.393 93.162C128.301 94.023 127.046 95.0121 125.907 95.912C125.351 96.375 124.776 96.772 124.268 97.122L122.989 98.021C122.314 98.491 121.301 99.229 120.211 100.041L116.798 102.324L115.293 103.343C114.818 103.665 114.33 103.913 113.927 104.15C113.108 104.613 112.525 104.927 112.374 104.973L111.443 105.268C111.34 105.306 110.948 105.53 110.398 105.864C110.12 106.028 109.814 106.232 109.465 106.431L108.35 107.048C106.816 107.918 105.301 108.738 104.989 108.87C104.52 109.077 104.028 109.258 103.53 109.429C103.037 109.605 102.547 109.779 102.065 109.953L99.3142 110.948C98.4722 111.28 97.6292 111.492 96.9392 111.718L95.2302 112.248C94.0552 112.598 92.5954 113.093 91.9093 113.265C91.3163 113.439 89.0483 114.075 86.7013 114.66C84.3013 115.166 81.8812 115.709 81.0692 115.839C79.1152 116.111 76.6142 116.547 76.2722 116.664C75.9641 116.766 75.6475 116.839 75.3263 116.884C74.6413 116.983 72.8592 117.237 70.5442 117.568C69.9722 117.663 69.3512 117.734 68.6972 117.795L66.6822 118.007C65.3002 118.147 63.8762 118.34 62.3982 118.415C60.8512 118.522 59.3452 118.62 57.9442 118.698C56.6505 118.72 55.3563 118.732 54.0622 118.734C51.8012 118.764 50.1953 118.602 49.8963 118.477C49.2823 118.195 47.2802 118.136 45.3822 118.264C43.5813 118.354 41.9513 118.426 40.4383 118.474C39.007 118.482 37.5757 118.46 36.1452 118.408C35.4702 118.384 34.8112 118.356 34.1612 118.32C33.5032 118.264 32.8542 118.2 32.2072 118.132C30.9122 117.995 29.6263 117.833 28.2892 117.644C25.2253 117.117 22.3362 116.879 21.8022 117.068C21.2812 117.251 19.9193 117.125 18.8443 116.781C18.2983 116.601 16.3792 116.291 13.6982 115.771C12.3592 115.513 10.8442 115.283 9.21027 114.957C7.50203 114.626 5.79201 114.304 4.08026 113.991C-8.04773 111.59 -16.9778 109.161 -23.0548 107.349C-24.409 106.957 -25.7562 106.541 -27.0957 106.102L-30.1288 105.106C-30.822 104.868 -31.5101 104.616 -32.1928 104.349C-32.4233 104.259 -32.6523 104.166 -32.8797 104.069C-33.0437 103.996 -33.0277 103.977 -33.0877 103.933C-33.4297 103.613 -33.9457 103.417 -34.2387 103.5C-34.5347 103.587 -35.0507 103.304 -35.3948 102.877C-35.7378 102.447 -36.1107 102.278 -36.2417 102.521C-36.3667 102.756 -37.9068 102.386 -39.6778 101.704C-42.3968 100.657 -42.8748 100.554 -42.8918 101.284C-42.9028 101.747 -43.2167 102.025 -43.5907 101.899C-43.9697 101.771 -44.2518 101.41 -44.2218 101.084C-44.1518 100.315 -47.0698 99.174 -48.0968 99.536C-48.6038 99.716 -48.9788 99.501 -49.1278 98.924C-49.2908 98.274 -49.5848 98.121 -50.1808 98.365C-50.5808 98.532 -52.2868 98.084 -55.2018 96.994C-58.1208 95.922 -62.2398 94.1841 -67.4078 91.778C-69.3678 90.853 -71.0868 90.232 -71.2168 90.388C-71.3688 90.5741 -73.1157 89.945 -75.1137 89.085C-77.0957 88.207 -79.3308 87.105 -80.4378 86.335C-81.6398 85.511 -82.5128 85.256 -83.4518 85.437C-84.5118 85.641 -85.0768 85.427 -86.3208 84.347C-87.4768 83.3501 -88.0218 83.093 -88.5548 83.364C-88.9398 83.557 -89.2168 83.284 -89.5398 83.333C-92.8538 83.831 -96.7448 82.837 -99.9508 81.881C-103.152 80.921 -105.653 80.0011 -106.39 80.662C-106.398 80.67 -106.288 80.742 -106.064 80.878L-105.053 81.465C-104.167 81.977 -102.831 82.716 -101.112 83.657C-97.6628 85.534 -92.6007 88.185 -86.2827 91.254C-78.9507 94.8202 -71.5176 98.1749 -63.9928 101.314C-59.7998 103.086 -55.3788 104.822 -50.8368 106.573C-46.2758 108.277 -41.5927 110.008 -36.8117 111.604C-8.4587 120.668 21.7123 126.538 48.8653 126.901C55.6583 127.026 62.2182 126.754 68.5652 126.285L73.2632 125.849C74.8262 125.709 76.3223 125.465 77.8473 125.284L80.1172 124.994C80.8763 124.904 81.5972 124.753 82.3362 124.637L86.7252 123.905C98.2212 121.735 108.487 118.579 117.382 114.948C126.288 111.318 133.8 107.208 140.115 103.24C146.495 99.312 151.462 95.359 155.592 92.095C159.56 88.722 162.688 86.012 164.678 84.029C166.738 82.083 167.908 81.014 168.058 80.956C168.508 80.758 168.868 81.265 168.798 82.056C168.798 82.081 168.548 82.362 168.068 82.882C167.588 83.4001 166.868 84.159 165.948 85.143C164.158 87.143 161.235 89.878 157.491 93.314C153.593 96.65 148.851 100.694 142.673 104.774C136.559 108.891 129.223 113.21 120.387 117.101C111.566 120.998 101.245 124.451 89.5462 126.966C88.0742 127.266 86.5662 127.529 85.0662 127.817L82.8042 128.246C82.0372 128.373 81.2552 128.478 80.4792 128.596L75.7793 129.291L70.9372 129.832C69.3282 130.042 67.6543 130.137 65.9903 130.27C64.3203 130.39 62.6642 130.561 60.9452 130.607L55.8032 130.836L50.5532 130.901C43.5012 130.914 36.2352 130.631 28.8242 130.018C21.2717 129.35 13.7467 128.399 6.26526 127.168C-8.93575 124.7 -24.3068 120.977 -39.3028 116.49C-50.1028 113.343 -60.6428 109.749 -70.3268 106.155C-79.046 102.897 -87.6751 99.4039 -96.2047 95.678C-103.616 92.454 -109.603 89.618 -113.759 87.647C-117.908 85.664 -120.201 84.55 -120.323 84.637C-121.354 85.332 -122.622 85.842 -123.13 85.779C-123.307 85.751 -120.804 87.2811 -116.219 89.804C-111.637 92.3201 -104.985 95.793 -97.0648 99.584C-88.3079 103.766 -79.425 107.679 -70.4287 111.318C-60.9207 115.19 -51.0618 118.773 -41.9958 121.774C-38.8468 122.791 -35.6978 123.694 -32.6148 124.619C-29.5068 125.482 -26.4658 126.375 -23.4428 127.144C-17.4248 128.764 -11.5688 130.101 -5.99475 131.333C5.17525 133.709 15.2873 135.303 23.7743 136.328C40.7763 138.375 51.1712 138.281 51.6352 138.53C52.5272 138.862 52.7712 139.375 52.1623 139.658C51.9763 139.779 49.2522 139.814 44.4292 139.812C43.2233 139.81 41.8754 139.745 40.4073 139.706C38.9364 139.648 37.3462 139.629 35.6272 139.524L30.1222 139.184C28.1732 139.063 26.1073 138.842 23.9383 138.66C15.2623 137.84 4.88629 136.44 -6.60571 134.236C-12.3368 133.093 -18.3688 131.835 -24.5708 130.29C-27.6868 129.559 -30.8217 128.703 -34.0277 127.874C-37.2067 126.984 -40.4568 126.113 -43.7058 125.129C-53.7517 122.303 -63.6966 119.129 -73.5227 115.614C-83.5567 112.051 -93.2768 108.19 -101.722 104.606C-108.667 101.651 -115.548 98.5484 -122.361 95.3C-127.39 92.8981 -130.325 91.419 -130.311 91.553C-130.239 92.031 -130.607 92.4971 -131.135 92.578C-132.283 92.7511 -133.371 95.668 -132.452 96.159C-132.115 96.338 -131.658 97.2681 -131.429 98.211C-131.193 99.163 -130.616 99.997 -130.152 100.057C-129.697 100.12 -129.471 100.578 -129.659 101.083C-129.724 101.256 -129.723 101.525 -129.694 101.823C-128.266 102.561 -126.834 103.291 -125.398 104.012L-122.191 105.605C-120.541 106.428 -116.457 108.4 -112.478 110.256L-108.591 112.016L-104.905 113.649L-104.011 114.056L-98.6308 116.377L-94.2328 118.217L-90.5038 119.735C-88.7338 120.467 -84.7538 122.037 -81.6598 123.225C-75.9109 125.437 -70.1237 127.547 -64.3008 129.555L-58.9627 131.358L-53.7148 133.053C-52.0228 133.61 -50.3648 134.1 -48.8288 134.575C-47.9798 134.835 -47.1448 135.089 -46.3268 135.338C-45.3738 135.636 -44.4238 135.9 -43.5008 136.168L-38.2238 137.684C-32.4298 139.288 -24.6787 141.303 -16.7727 143.084C-8.8587 144.85 -0.7957 146.348 5.4023 147.373C7.3963 147.695 9.90625 148.06 12.8492 148.506C14.3212 148.732 15.9163 148.909 17.6052 149.133C19.2992 149.335 21.0853 149.604 22.9823 149.783C30.5434 150.641 39.6592 151.345 49.6872 151.588L52.6082 151.649L54.0932 151.678L55.5862 151.666L61.7082 151.606C63.7812 151.558 65.8782 151.448 68.0192 151.364C70.1663 151.298 72.3152 151.127 74.5002 150.959C83.2372 150.3 92.3953 149.175 101.498 147.302C110.616 145.46 119.734 142.978 128.516 139.856L135.041 137.401L141.367 134.682C142.446 134.239 143.449 133.737 144.464 133.24L147.519 131.747C148.528 131.239 149.588 130.763 150.558 130.224L153.485 128.61C157.473 126.5 161.112 124.137 164.828 121.794C166.588 120.57 168.358 119.342 170.128 118.11C170.568 117.8 171.018 117.497 171.448 117.18L172.698 116.214L175.188 114.276L177.688 112.332C178.518 111.679 179.268 110.99 180.058 110.321C181.608 108.97 183.188 107.625 184.728 106.261C186.178 104.862 187.638 103.463 189.098 102.062C189.808 101.357 190.578 100.674 191.248 99.949L193.268 97.787C194.608 96.341 195.998 94.9151 197.278 93.453C198.518 91.9771 199.768 90.5031 201.008 89.03C201.618 88.291 202.258 87.56 202.848 86.818L204.558 84.567C205.698 83.067 206.828 81.57 207.958 80.077C209.058 78.574 210.048 77.0441 211.098 75.537C212.108 74.019 213.188 72.53 214.128 71.004C215.058 69.478 215.988 67.959 216.918 66.446C217.828 64.931 218.788 63.437 219.588 61.908C220.418 60.389 221.248 58.878 222.068 57.376C222.898 55.876 223.728 54.386 224.428 52.876C225.168 51.375 225.898 49.884 226.618 48.404C227.328 46.921 228.098 45.464 228.708 43.984C229.978 41.037 231.238 38.141 232.468 35.301C233.568 32.435 234.648 29.627 235.708 26.884C236.208 25.548 236.708 24.228 237.208 22.924C237.688 21.645 238.138 20.371 238.648 19.142C239.148 17.906 239.648 16.689 240.128 15.49C240.648 14.303 241.158 13.134 241.658 11.984C243.718 7.41108 245.798 3.19707 247.928 -0.54892C252.158 -8.05892 256.418 -13.77 259.648 -17.539C260.478 -18.468 261.218 -19.293 261.868 -20.009C262.508 -20.721 263.108 -21.289 263.568 -21.769C264.028 -22.242 264.388 -22.603 264.618 -22.846L264.998 -23.199C268.564 -26.5352 272.484 -29.471 276.688 -31.954C281.788 -34.955 288.348 -37.932 297.068 -39.434C308.048 -41.386 320.638 -40.401 333.338 -37.395C346.048 -34.421 358.708 -29.752 370.978 -24.422C383.278 -19.075 395.268 -13.038 407.128 -6.66692C418.988 -0.286919 430.728 6.44508 442.528 13.397C449.358 17.421 460.028 23.807 471.688 30.897C483.378 38 496.108 45.737 507.058 52.392C540.458 72.616 563.978 86.111 587.748 98.587C599.648 104.811 611.618 110.792 625.208 117C632.008 120.098 639.218 123.248 647.078 126.456C654.928 129.658 663.418 132.936 672.838 136.169C680.208 138.715 692.088 142.587 705.628 145.998C712.608 147.753 719.642 149.287 726.718 150.599C733.858 151.919 740.968 152.964 747.578 153.712C765.278 155.682 783.568 155.942 800.388 154.246L812.448 152.967C816.308 152.506 820.228 152.286 824.068 152.005C831.758 151.489 839.328 151.294 846.578 151.301C861.088 151.323 874.348 152.329 885.118 153.536L889.048 153.987C890.318 154.135 891.548 154.263 892.728 154.449C895.108 154.789 897.308 155.105 899.328 155.395C900.338 155.544 901.308 155.666 902.218 155.819L904.818 156.263L909.108 156.99L911.858 157.462C912.878 157.65 913.978 157.881 915.158 158.112C917.498 158.586 920.138 159.09 922.888 159.667L931.278 161.57C934.088 162.216 936.808 162.954 939.348 163.581C940.608 163.907 941.848 164.2 943.028 164.529L946.438 165.483L952.218 167.098C953.991 167.639 955.765 168.179 957.538 168.719L959.528 169.329C960.748 169.7 962.488 170.223 964.658 170.961C966.828 171.687 969.458 172.544 972.458 173.565C975.438 174.636 978.818 175.81 982.468 177.158C984.288 177.85 986.178 178.573 988.138 179.321C989.128 179.697 990.128 180.078 991.138 180.466C992.138 180.872 993.158 181.286 994.198 181.705C996.258 182.544 998.388 183.408 1000.58 184.293C1002.73 185.217 1004.93 186.163 1007.18 187.128C1016.13 191.045 1025.66 195.428 1035.07 200.224C1044.45 204.976 1053.7 209.966 1062.83 215.19C1071.72 220.312 1080.11 225.454 1087.66 230.243C1098.61 237.24 1109.36 244.541 1119.9 252.135C1121.94 253.626 1124.34 255.33 1126.81 257.19C1129.3 259.039 1131.95 261.001 1134.53 262.99L1138.41 265.945L1142.11 268.83C1144.52 270.695 1146.72 272.462 1148.62 273.978C1153.02 277.474 1158.36 281.863 1164.07 286.656C1169.96 291.638 1175.79 296.703 1181.54 301.852C1186.96 306.704 1192.32 311.637 1197.6 316.649C1200.02 318.964 1202.11 320.964 1203.6 322.392C1205.48 324.236 1207.93 326.621 1209.01 327.704C1210.09 328.784 1212.33 331.017 1213.96 332.674C1215.58 334.331 1217.05 335.832 1217.23 336.015C1217.41 336.193 1217.67 336.446 1217.8 336.574C1217.92 336.705 1218.92 337.744 1220.02 338.89L1222.37 341.352C1224.82 343.887 1227.3 346.529 1228.31 347.608L1230.25 349.702L1232.84 352.527C1233.29 352.585 1233.71 352.624 1233.99 352.609C1234.8 352.569 1235.46 352.771 1235.47 353.049C1235.47 353.333 1236.63 353.796 1238.05 354.093C1239.46 354.385 1240.78 354.819 1240.98 355.052C1241.52 355.665 1246.29 355.629 1246.84 354.994C1247.09 354.696 1247.9 354.576 1248.64 354.732C1248.8 354.767 1247.85 353.463 1246.04 351.21C1244.23 348.955 1241.54 345.743 1238.2 341.919C1231.53 334.268 1222.19 324.181 1212.42 314.288C1199.91 302.025 1186.75 290.03 1173.86 279.002C1160.99 267.965 1148.35 257.926 1137.16 249.45C1127.99 242.513 1118.67 235.781 1109.21 229.26C1105.75 226.825 1102.9 224.952 1100.99 223.607C1099.07 222.267 1098 221.507 1097.93 221.39Z" fill="#F99540"/>
</g>
</g>
<defs>
<clipPath id="clip0_546_1425">
<rect width="393" height="264" fill="white"/>
</clipPath>
</defs>
</svg>
