<svg width="160" height="160" viewBox="0 0 160 160" fill="none" xmlns="http://www.w3.org/2000/svg">
<path d="M46.9363 42H71.5882C89.3753 42 103.795 56.4193 103.795 74.2063C103.795 91.9934 89.3753 106.413 71.5882 106.413H62.7518C61.2741 106.413 59.8196 106.779 58.5184 107.479C57.2172 108.18 56.11 109.192 55.296 110.425L53.2214 113.568C51.6528 115.945 48.1657 115.945 46.5972 113.568L43.5696 108.981C42.3557 107.142 40.4978 105.843 38.3732 105.259C24.7428 101.509 14.73 89.028 14.73 74.2063C14.73 56.4193 29.1493 42 46.9363 42Z" fill="url(#paint0_linear_662_2300)"/>
<path d="M103.795 74.2059C103.795 91.993 89.3753 106.412 71.5882 106.412H62.7515C61.2739 106.412 59.8193 106.779 58.5181 107.479C57.2169 108.179 56.1097 109.191 55.2957 110.425L53.2211 113.568C51.6526 115.945 48.1655 115.945 46.597 113.568L43.5693 108.98C42.3555 107.141 40.4976 105.843 38.3732 105.259C24.7428 101.509 14.73 89.0275 14.73 74.2059C14.73 69.9542 15.5558 65.8957 17.0527 62.1797H101.472C102.969 65.8957 103.795 69.9539 103.795 74.2059Z" fill="url(#paint1_linear_662_2300)"/>
<path d="M71.5885 42H59.2627V107.127C60.366 106.657 61.5528 106.414 62.7521 106.413H71.5885C89.3756 106.413 103.795 91.9934 103.795 74.2063C103.795 56.4193 89.3756 42 71.5885 42Z" fill="url(#paint2_linear_662_2300)"/>
<path d="M117.725 77.4141H96.6413C81.4289 77.4141 69.0967 89.7462 69.0967 104.959C69.0967 120.171 81.4289 132.504 96.6416 132.504H104.199C105.463 132.504 106.707 132.817 107.82 133.416C108.933 134.015 109.88 134.881 110.576 135.935L112.35 138.624C113.692 140.656 116.674 140.656 118.016 138.624L120.605 134.7C121.644 133.127 123.232 132.017 125.05 131.517C136.706 128.31 145.27 117.635 145.27 104.959C145.27 89.7462 132.937 77.4141 117.725 77.4141Z" fill="url(#paint3_linear_662_2300)"/>
<path d="M117.725 77.4141H96.6415C96.5272 77.4141 96.4138 77.4171 96.2998 77.4184V132.499C96.4138 132.501 96.5272 132.504 96.6417 132.504H104.199C105.463 132.504 106.707 132.817 107.82 133.416C108.933 134.015 109.88 134.881 110.576 135.935L112.35 138.624C113.692 140.656 116.674 140.656 118.016 138.624L120.605 134.7C121.644 133.127 123.233 132.017 125.05 131.517C136.706 128.31 145.27 117.635 145.27 104.959C145.27 89.7462 132.938 77.4141 117.725 77.4141Z" fill="url(#paint4_linear_662_2300)"/>
<path d="M69.0967 104.961C69.0967 120.174 81.4289 132.506 96.6416 132.506H104.199C105.463 132.506 106.707 132.82 107.82 133.419C108.933 134.018 109.88 134.883 110.576 135.938L112.35 138.627C113.692 140.659 116.674 140.659 118.016 138.627L120.605 134.703C121.644 133.13 123.232 132.02 125.05 131.52C136.706 128.312 145.27 117.638 145.27 104.961C145.27 101.325 144.564 97.8541 143.284 94.6758H71.0831C69.8029 97.8539 69.0967 101.325 69.0967 104.961Z" fill="url(#paint5_linear_662_2300)"/>
<path d="M42.5077 77.4304C45.7946 77.4304 48.4592 74.7658 48.4592 71.4789C48.4592 68.1919 45.7946 65.5273 42.5077 65.5273C39.2207 65.5273 36.5562 68.1919 36.5562 71.4789C36.5562 74.7658 39.2207 77.4304 42.5077 77.4304Z" fill="url(#paint6_linear_662_2300)"/>
<path d="M36.5562 71.4762C36.5562 74.7631 39.2207 77.4277 42.5077 77.4277C45.7946 77.4277 48.4592 74.7631 48.4592 71.4762C48.4599 70.785 48.3399 70.0991 48.1046 69.4492H36.9108C36.6755 70.0991 36.5555 70.785 36.5562 71.4762Z" fill="url(#paint7_linear_662_2300)"/>
<path d="M38.2992 75.6852C40.6234 78.0094 44.3917 78.0094 46.716 75.6852C49.0402 73.361 49.0402 69.5927 46.716 67.2684C46.2277 66.7793 45.6578 66.3791 45.0319 66.0859L37.1167 74.0012C37.4098 74.6271 37.81 75.197 38.2992 75.6852Z" fill="url(#paint8_linear_662_2300)"/>
<path d="M59.2626 77.4304C62.5495 77.4304 65.2141 74.7658 65.2141 71.4789C65.2141 68.1919 62.5495 65.5273 59.2626 65.5273C55.9756 65.5273 53.311 68.1919 53.311 71.4789C53.311 74.7658 55.9756 77.4304 59.2626 77.4304Z" fill="url(#paint9_linear_662_2300)"/>
<path d="M53.311 71.4762C53.311 74.7631 55.9756 77.4277 59.2626 77.4277C62.5495 77.4277 65.2141 74.7631 65.2141 71.4762C65.2148 70.785 65.0947 70.0991 64.8595 69.4492H53.6657C53.4304 70.0991 53.3104 70.785 53.311 71.4762Z" fill="url(#paint10_linear_662_2300)"/>
<path d="M55.0541 75.6852C57.3783 78.0094 61.1466 78.0094 63.4708 75.6852C65.7951 73.361 65.7951 69.5927 63.4708 67.2684C62.9826 66.7793 62.4127 66.3791 61.7868 66.0859L53.8716 74.0012C54.1647 74.6271 54.5649 75.197 55.0541 75.6852Z" fill="url(#paint11_linear_662_2300)"/>
<path d="M76.0175 77.4304C79.3044 77.4304 81.969 74.7658 81.969 71.4789C81.969 68.1919 79.3044 65.5273 76.0175 65.5273C72.7305 65.5273 70.0659 68.1919 70.0659 71.4789C70.0659 74.7658 72.7305 77.4304 76.0175 77.4304Z" fill="url(#paint12_linear_662_2300)"/>
<path d="M70.0659 71.4762C70.0659 74.7631 72.7305 77.4277 76.0175 77.4277C79.3044 77.4277 81.969 74.7631 81.969 71.4762C81.9696 70.785 81.8496 70.0991 81.6144 69.4492H70.4206C70.1853 70.0991 70.0653 70.785 70.0659 71.4762Z" fill="url(#paint13_linear_662_2300)"/>
<path d="M71.8085 75.6852C74.1327 78.0094 77.901 78.0094 80.2252 75.6852C82.5495 73.361 82.5495 69.5927 80.2252 67.2684C79.737 66.7793 79.1671 66.3791 78.5412 66.0859L70.626 74.0012C70.9191 74.6271 71.3193 75.197 71.8085 75.6852Z" fill="url(#paint14_linear_662_2300)"/>
<path d="M90.4915 103.226C89.9844 103.226 89.498 103.025 89.1394 102.666C88.7808 102.308 88.5793 101.821 88.5793 101.314C88.5793 98.9538 86.659 97.0334 84.2985 97.0334C81.9381 97.0334 80.0178 98.9538 80.0178 101.314C80.0178 101.821 79.8163 102.308 79.4577 102.666C79.0991 103.025 78.6127 103.226 78.1056 103.226C77.5984 103.226 77.112 103.025 76.7534 102.666C76.3948 102.308 76.1934 101.821 76.1934 101.314C76.1934 96.845 79.8293 93.209 84.2985 93.209C88.7677 93.209 92.4037 96.845 92.4037 101.314C92.4037 101.821 92.2023 102.308 91.8437 102.666C91.4851 103.025 90.9987 103.226 90.4915 103.226Z" fill="url(#paint15_linear_662_2300)"/>
<path d="M117.959 103.226C117.451 103.226 116.965 103.025 116.606 102.666C116.248 102.308 116.046 101.821 116.046 101.314C116.046 98.9538 114.126 97.0334 111.766 97.0334C109.405 97.0334 107.485 98.9538 107.485 101.314C107.485 102.37 106.629 103.226 105.573 103.226C104.517 103.226 103.661 102.37 103.661 101.314C103.661 96.845 107.297 93.209 111.766 93.209C116.235 93.209 119.871 96.845 119.871 101.314C119.871 101.821 119.669 102.308 119.311 102.666C118.952 103.025 118.466 103.226 117.959 103.226Z" fill="url(#paint16_linear_662_2300)"/>
<path d="M85.8651 106.479C84.4414 106.479 83.391 107.833 83.7729 109.204C85.5235 115.491 91.2897 120.103 98.1338 120.103C104.978 120.103 110.744 115.491 112.495 109.204C112.877 107.833 111.826 106.479 110.403 106.479H85.8651Z" fill="url(#paint17_linear_662_2300)"/>
<defs>
<linearGradient id="paint0_linear_662_2300" x1="46.7622" y1="55.1718" x2="78.7577" y2="103.892" gradientUnits="userSpaceOnUse">
<stop stop-color="#BBF49B"/>
<stop offset="1" stop-color="#92C741"/>
</linearGradient>
<linearGradient id="paint1_linear_662_2300" x1="59.2621" y1="77.5864" x2="59.2621" y2="114.372" gradientUnits="userSpaceOnUse">
<stop stop-color="#64923A" stop-opacity="0"/>
<stop offset="0.311" stop-color="#64923A" stop-opacity="0.311"/>
<stop offset="0.664" stop-color="#64923A" stop-opacity="0.664"/>
<stop offset="1" stop-color="#64923A"/>
</linearGradient>
<linearGradient id="paint2_linear_662_2300" x1="64.3101" y1="70.4554" x2="97.0328" y2="92.6341" gradientUnits="userSpaceOnUse">
<stop stop-color="#64923A" stop-opacity="0"/>
<stop offset="0.311" stop-color="#64923A" stop-opacity="0.311"/>
<stop offset="0.664" stop-color="#64923A" stop-opacity="0.664"/>
<stop offset="1" stop-color="#64923A"/>
</linearGradient>
<linearGradient id="paint3_linear_662_2300" x1="97.4799" y1="89.1333" x2="123.6" y2="131.735" gradientUnits="userSpaceOnUse">
<stop stop-color="#FFF5C6"/>
<stop offset="1" stop-color="#FAC600"/>
</linearGradient>
<linearGradient id="paint4_linear_662_2300" x1="116.195" y1="108.304" x2="137.962" y2="122.919" gradientUnits="userSpaceOnUse">
<stop stop-color="#FEA613" stop-opacity="0"/>
<stop offset="0.177" stop-color="#FDA116" stop-opacity="0.177"/>
<stop offset="0.394" stop-color="#FA921D" stop-opacity="0.394"/>
<stop offset="0.632" stop-color="#F4792A" stop-opacity="0.633"/>
<stop offset="0.885" stop-color="#ED573B" stop-opacity="0.885"/>
<stop offset="1" stop-color="#E94444"/>
</linearGradient>
<linearGradient id="paint5_linear_662_2300" x1="107.183" y1="107.853" x2="107.183" y2="139.313" gradientUnits="userSpaceOnUse">
<stop stop-color="#FEA613" stop-opacity="0"/>
<stop offset="0.177" stop-color="#FDA116" stop-opacity="0.177"/>
<stop offset="0.394" stop-color="#FA921D" stop-opacity="0.394"/>
<stop offset="0.632" stop-color="#F4792A" stop-opacity="0.633"/>
<stop offset="0.885" stop-color="#ED573B" stop-opacity="0.885"/>
<stop offset="1" stop-color="#E94444"/>
</linearGradient>
<linearGradient id="paint6_linear_662_2300" x1="40.5544" y1="69.5256" x2="44.98" y2="73.9512" gradientUnits="userSpaceOnUse">
<stop stop-color="#444444"/>
<stop offset="1" stop-color="#0B1B4C"/>
</linearGradient>
<linearGradient id="paint7_linear_662_2300" x1="42.5077" y1="71.8367" x2="42.5077" y2="77.4096" gradientUnits="userSpaceOnUse">
<stop stop-color="#0B1B4C" stop-opacity="0"/>
<stop offset="0.281" stop-color="#0C1B48" stop-opacity="0.281"/>
<stop offset="0.566" stop-color="#101B3C" stop-opacity="0.566"/>
<stop offset="0.853" stop-color="#161A28" stop-opacity="0.853"/>
<stop offset="1" stop-color="#1A1A1A"/>
</linearGradient>
<linearGradient id="paint8_linear_662_2300" x1="43.0269" y1="71.9964" x2="46.7728" y2="75.7423" gradientUnits="userSpaceOnUse">
<stop stop-color="#0B1B4C" stop-opacity="0"/>
<stop offset="0.281" stop-color="#0C1B48" stop-opacity="0.281"/>
<stop offset="0.566" stop-color="#101B3C" stop-opacity="0.566"/>
<stop offset="0.853" stop-color="#161A28" stop-opacity="0.853"/>
<stop offset="1" stop-color="#1A1A1A"/>
</linearGradient>
<linearGradient id="paint9_linear_662_2300" x1="57.3093" y1="69.5256" x2="61.7352" y2="73.9512" gradientUnits="userSpaceOnUse">
<stop stop-color="#444444"/>
<stop offset="1" stop-color="#0B1B4C"/>
</linearGradient>
<linearGradient id="paint10_linear_662_2300" x1="59.2626" y1="71.8367" x2="59.2626" y2="77.4096" gradientUnits="userSpaceOnUse">
<stop stop-color="#0B1B4C" stop-opacity="0"/>
<stop offset="0.281" stop-color="#0C1B48" stop-opacity="0.281"/>
<stop offset="0.566" stop-color="#101B3C" stop-opacity="0.566"/>
<stop offset="0.853" stop-color="#161A28" stop-opacity="0.853"/>
<stop offset="1" stop-color="#1A1A1A"/>
</linearGradient>
<linearGradient id="paint11_linear_662_2300" x1="59.7821" y1="71.9964" x2="63.5277" y2="75.7423" gradientUnits="userSpaceOnUse">
<stop stop-color="#0B1B4C" stop-opacity="0"/>
<stop offset="0.281" stop-color="#0C1B48" stop-opacity="0.281"/>
<stop offset="0.566" stop-color="#101B3C" stop-opacity="0.566"/>
<stop offset="0.853" stop-color="#161A28" stop-opacity="0.853"/>
<stop offset="1" stop-color="#1A1A1A"/>
</linearGradient>
<linearGradient id="paint12_linear_662_2300" x1="74.0642" y1="69.5256" x2="78.4898" y2="73.9512" gradientUnits="userSpaceOnUse">
<stop stop-color="#444444"/>
<stop offset="1" stop-color="#0B1B4C"/>
</linearGradient>
<linearGradient id="paint13_linear_662_2300" x1="76.0175" y1="71.8367" x2="76.0175" y2="77.4096" gradientUnits="userSpaceOnUse">
<stop stop-color="#0B1B4C" stop-opacity="0"/>
<stop offset="0.281" stop-color="#0C1B48" stop-opacity="0.281"/>
<stop offset="0.566" stop-color="#101B3C" stop-opacity="0.566"/>
<stop offset="0.853" stop-color="#161A28" stop-opacity="0.853"/>
<stop offset="1" stop-color="#1A1A1A"/>
</linearGradient>
<linearGradient id="paint14_linear_662_2300" x1="76.5365" y1="71.9964" x2="80.2821" y2="75.7423" gradientUnits="userSpaceOnUse">
<stop stop-color="#0B1B4C" stop-opacity="0"/>
<stop offset="0.281" stop-color="#0C1B48" stop-opacity="0.281"/>
<stop offset="0.566" stop-color="#101B3C" stop-opacity="0.566"/>
<stop offset="0.853" stop-color="#161A28" stop-opacity="0.853"/>
<stop offset="1" stop-color="#1A1A1A"/>
</linearGradient>
<linearGradient id="paint15_linear_662_2300" x1="84.2988" y1="102.522" x2="84.2988" y2="92.6922" gradientUnits="userSpaceOnUse">
<stop stop-color="#444444"/>
<stop offset="1" stop-color="#0B1B4C"/>
</linearGradient>
<linearGradient id="paint16_linear_662_2300" x1="111.766" y1="102.522" x2="111.766" y2="92.6922" gradientUnits="userSpaceOnUse">
<stop stop-color="#444444"/>
<stop offset="1" stop-color="#0B1B4C"/>
</linearGradient>
<linearGradient id="paint17_linear_662_2300" x1="98.1825" y1="108.956" x2="103.817" y2="120.77" gradientUnits="userSpaceOnUse">
<stop stop-color="white"/>
<stop offset="1" stop-color="#C8EFFE"/>
</linearGradient>
</defs>
</svg>
