<svg width="1440" height="900" fill="none" xmlns="http://www.w3.org/2000/svg"><g clip-path="url(#a)"><path fill-rule="evenodd" clip-rule="evenodd" d="M776.02 103.91c-5.146-1.666-12.618-4.271-19.639-6.9a517.694 517.694 0 0 1-17.216-6.773c-3.073-1.252-6.991-2.936-8.76-3.69-2.686-1.174-5.375-2.342-8.033-3.548-2.661-1.189-5.031-2.31-5.325-2.438l-.888-.423-3.648-1.718-3.854-1.85a476.165 476.165 0 0 1-9.673-4.897l-3.223-1.695-2.95-1.59-2.269-1.25-2.52-1.42c.195-.807.771-1.434 1.697-1.9a7.833 7.833 0 0 1 1.646-.58c.63-.157 1.373-.26 2.069-.402 1.553-.26 3.285-.214 3.95.143.661.356 2.944.754 5.032.858.927.046 1.876.146 2.725.27a448.876 448.876 0 0 0 12.683 6.256 504.007 504.007 0 0 0 19.656 8.83c1.615.677 5.275 2.21 8.179 3.369 1.44.59 3.197 1.273 4.85 1.92 1.649.651 3.206 1.251 4.27 1.647 6.583 2.513 11.047 4.066 16.236 5.876l5.436 1.827c2.069.695 4.263 1.375 6.023 1.945 1.373.448 2.7.852 3.973 1.237l2.653.808c1.567.485 3.122.93 4.646 1.366l4.479 1.282 4.344 1.174c2.829.785 5.608 1.452 8.276 2.132 10.717 2.644 20.225 4.581 29.7 6.177 2.504.457 5.601.891 9.013 1.407 1.702.271 3.508.472 5.357.714 1.854.221 3.749.505 5.69.684 7.734.88 15.9 1.411 22.562 1.699 1.451.069 3.314.082 5.514.126l3.544.051 3.977-.056.003.001.515-.009c3.465-.011 7.293-.227 11.478-.434 2.086-.122 4.235-.328 6.475-.504 1.115-.104 2.268-.166 3.406-.31l3.484-.408c9.601-1.116 21.414-3.118 33.874-6.664 3.171-.826 6.223-1.901 9.433-2.933 1.625-.5 3.149-1.115 4.733-1.702l4.781-1.81c6.224-2.622 12.61-5.486 18.575-8.86 1.493-.841 3.063-1.652 4.521-2.542 1.447-.896 2.91-1.8 4.37-2.709.74-.456 1.47-.914 2.21-1.373.69-.481 1.39-.964 2.09-1.448 1.4-.97 2.81-1.947 4.22-2.929 1.4-.989 2.69-2.044 4.04-3.073 1.32-1.046 2.73-2.061 3.99-3.148 1.27-1.087 2.54-2.18 3.81-3.276l1.92-1.65c.62-.558 1.2-1.135 1.8-1.704 9.71-9.075 18.06-19.043 25.12-29.31 7.06-10.269 12.85-20.835 17.7-31.162 1.16-2.594 2.3-5.164 3.43-7.704 1.11-2.543 2.04-5.091 3.04-7.583.95-2.434 1.89-4.833 2.81-7.192.43-1.152.89-2.28 1.36-3.393.47-1.113.91-2.226 1.39-3.309 1.89-4.346 3.91-8.43 5.95-12.241 2.09-3.782 4.22-7.288 6.38-10.445 4.35-6.3 8.75-11.25 12.53-14.692 2.35-2.194 4.82-4.12 7.25-5.859a66.594 66.594 0 0 1 7.38-4.405c4.91-2.414 9.58-3.942 13.64-4.761 4.93-1.096 11.61-1.665 18.64-1.213 3.5.203 7.09.681 10.44 1.248 1.67.26 3.31.618 4.84.912 1.54.354 2.98.648 4.3.99 5.31 1.299 10.37 2.866 14.2 4.15 3.84 1.287 6.45 2.29 6.94 2.455.99.375 2.17.838 2.63 1.034.47.195 1.57.619 2.49.977.5.197 3.16 1.241 7.04 2.875 3.87 1.646 8.95 3.906 14.31 6.45 5.36 2.544 11.15 5.449 16.16 8.054 5.02 2.6 9.26 4.905 11.59 6.164 23.56 12.784 50.59 29.197 79.47 46.711 28.89 17.5 59.76 36.085 91.51 52.906 18.91 10.028 35.43 18.022 50.35 24.592 14.91 6.577 28.21 11.73 40.72 16.077 12.54 4.314 24.31 7.824 36.42 10.779 6.04 1.495 12.2 2.808 18.56 3.998 6.37 1.187 12.97 2.239 19.94 3.053 7.76.958 19.88 2.015 32.86 1.971 6.5.008 13.18-.293 19.62-.832l2.41-.198c.8-.071 1.58-.165 2.37-.247l4.6-.493 8.18-.854c10.61-.919 22.12-1.483 32.16-1.377l1.85-.01 1.82.046 3.51.092c2.27.073 4.39.08 6.34.195l9.25.52c13.15.942 23.93 2.454 32.79 3.838 4.43.78 8.4 1.386 11.94 2.142 3.54.719 6.7 1.296 9.49 1.967 2.79.635 5.26 1.196 7.46 1.695l5.84 1.477c1.72.445 3.26.803 4.64 1.195 1.38.386 2.63.736 3.82 1.067 1.45.406 3.24.903 5.22 1.455 1.96.598 4.12 1.255 6.33 1.93 1.11.337 2.24.678 3.36 1.02 1.11.365 2.21.731 3.3 1.089l6.19 2.04c7.54 2.615 18.78 6.741 24.86 9.307 1.03.416 2.25.908 3.63 1.469 1.37.585 2.9 1.241 4.58 1.957 1.67.723 3.51 1.48 5.42 2.338 1.91.862 3.95 1.778 6.08 2.738 8.47 3.886 18.35 8.663 28.1 13.817a631.427 631.427 0 0 1 27.75 15.61c2.07 1.252 4.08 2.462 6.01 3.62 1.89 1.178 3.7 2.303 5.4 3.362 3.42 2.101 6.31 4.02 8.69 5.529a685.93 685.93 0 0 1 14.99 10.034c5.09 3.501 9.85 6.872 13.1 9.241 6.17 4.439 12.29 9.02 19.21 14.364a725.31 725.31 0 0 1 23.69 19.1c5.85 4.873 14.18 12.159 18.6 16.136 4.18 3.736 7.97 7.245 12.05 11.04 1.01.953 2.04 1.924 3.1 2.92.77.738 1.57 1.495 2.39 2.278.86.823 1.77 1.701 2.77 2.658 1.27 1.238 3.74 3.65 5.49 5.367 1.75 1.72 3.96 3.923 4.93 4.9a650.75 650.75 0 0 1 11.84 12.146c3.07 3.238 5.74 6.137 7.51 8.097a5.52 5.52 0 0 1-.17 1.596c-.3 1.204-.28 2.517.08 2.924.36.41-.05 1.351-.95 2.09a8.259 8.259 0 0 1-2.83 1.548c-1.04.339-2.11.592-3.27.692-.73-.799-1.59-1.745-2.31-2.548a190 190 0 0 1-1.61-1.741c-.37-.386-1.17-1.25-1.81-1.927-.92-.993-3.25-3.436-5.54-5.789-.18-.194-1.17-1.22-2.19-2.288l-2.1-2.152-.53-.521c-.16-.17-1.55-1.566-3.07-3.11-1.55-1.537-3.64-3.62-4.66-4.628-1.02-1.007-3.3-3.236-5.09-4.951-1.06-1.012-2.55-2.429-4.27-4.069-2.25-2.102-4.8-4.489-7.41-6.931-10.46-9.793-21.91-19.794-29.87-26.447-1.72-1.441-3.72-3.121-5.9-4.897-1.08-.89-2.2-1.811-3.34-2.747-1.15-.928-2.32-1.871-3.5-2.815a718.192 718.192 0 0 0-13.19-10.36 732.204 732.204 0 0 0-28.91-20.996c-6.75-4.61-14.19-9.602-22.1-14.567-7.9-4.966-16.19-9.964-24.5-14.684-8.32-4.696-16.62-9.149-24.45-13.104-7.85-3.924-15.17-7.432-21.53-10.247-1.59-.71-3.11-1.388-4.55-2.033-1.45-.639-2.85-1.209-4.14-1.764-2.61-1.089-4.85-2.091-6.76-2.827-3.8-1.517-6.01-2.402-6.17-2.468-.02-.005-.46-.182-1.25-.497-.8-.299-1.96-.731-3.38-1.263-1.42-.532-3.1-1.165-4.98-1.868-1.88-.685-3.96-1.396-6.14-2.166-1.09-.383-2.23-.781-3.39-1.19-1.17-.382-2.37-.773-3.59-1.167l-3.64-1.189c-.61-.198-1.21-.395-1.81-.591l-1.8-.543-6.69-2.011c-2.03-.599-3.83-1.065-5.24-1.46-2.12-.583-4.96-1.4-8.48-2.241-1.75-.438-3.67-.915-5.73-1.428-2.06-.46-4.28-.954-6.63-1.477-9.39-2.022-20.98-4.163-33.85-5.662-12.86-1.512-26.97-2.369-41.28-2.202l-2.69.022-1.35.009-1.34.053-5.37.22c-3.61.083-7.15.44-10.72.672l-2.68.196-2.64.283-5.28.557-6.23.668c-2.26.265-4.57.433-6.86.623l-2.25.178-2.3.133c-1.55.083-3.11.188-4.71.251-3.19.108-6.46.227-9.78.225-6.64.045-13.47-.136-20.12-.583-13.32-.815-25.88-2.611-35.21-4.238a361.914 361.914 0 0 0 19.83 2.961c6.66.779 13.37 1.344 20.06 1.711 6.69.347 13.36.441 19.98.342 6.61-.12 13.13-.506 19.55-1.066l16.1-1.628 7.4-.497c2.45-.204 4.95-.258 7.44-.346 4.96-.248 10-.178 15.02-.214l7.57.214 1.89.049c.63.025 1.27.073 1.9.107l3.81.223c20.28 1.156 40.8 4.447 61 9.296 10.1 2.468 20.11 5.371 30 8.601l3.71 1.231c1.23.41 2.47.81 3.69 1.26l7.34 2.622 7.27 2.773 1.82.692 1.8.732 3.6 1.461c9.58 3.927 19.03 8.112 28.26 12.595a572.366 572.366 0 0 1 27.16 14.12c8.88 4.907 17.52 10.07 26.02 15.355 8.48 5.296 16.8 10.738 24.9 16.349 32.44 22.408 62 46.893 88.79 72.368a715.72 715.72 0 0 1 17.27 17.032c5.59 5.713 11.04 11.492 16.16 17.208-1.15.284-2.86.441-3.97.273-.56-.083-2.87-2.091-5.17-4.463-2.66-2.729-4.66-4.349-5.33-4.398-.6-.042-2.13-1.147-3.44-2.484-1.31-1.33-3.09-2.603-3.97-2.841-.93-.257-1.87-.933-2.25-1.652-.37-.666-1-1.241-1.4-1.263-.4-.028-2.03-1.407-3.62-3.083-1.59-1.673-3.68-3.482-4.61-4.038-.94-.553-1.62-1.276-1.52-1.621.1-.371-.49-.966-1.48-1.476-.91-.47-2-1.476-2.42-2.239-.54-1-.98-1.31-1.56-1.098-.26.096-.67-.023-1.13-.268a4.72 4.72 0 0 1-.36-.206l-.09-.058c-.03-.021-.05-.027-.13-.099-.14-.114-.27-.23-.42-.349-.56-.473-1.15-.991-1.73-1.523-2.32-2.133-4.58-4.483-4.67-5.229-.1-.808-1-1.548-3.48-2.772-2.64-1.31-3.48-2.005-4.07-3.327-.59-1.315-1.19-1.808-2.86-2.352-1.67-.545-2.15-.943-2.34-1.923-.13-.677-1.36-1.983-2.72-2.903-1.37-.918-2.22-1.78-1.91-1.912.32-.132-1.55-2.084-4.16-4.332a984.32 984.32 0 0 1-6.28-5.466c-2.68-2.322-5.73-4.963-8.51-7.361-4.12-3.557-10.95-9.174-18.82-15.214-7.85-6.05-16.74-12.508-24.66-17.921-1.56-1.075-19.36-13.565-41.17-26.182-3.02-1.763-5.97-3.386-8.64-4.908-1.06-.596-2.06-1.094-2.91-1.524-1.69-.851-2.82-1.35-2.97-1.291-.3.115-.57.066-.59-.119-.01-.045-.55-.385-1.51-.96-.95-.587-2.37-1.36-4.1-2.323-1.74-.95-3.77-2.116-6.08-3.316-2.32-1.2-4.84-2.537-7.51-3.882l-7.84-3.873c-2.53-1.199-4.91-2.325-7-3.318-4.21-1.945-7.31-3.334-8.22-3.793-1.85-.894-6.1-2.802-9.42-4.333-1.69-.72-3.7-1.597-5.6-2.434-.95-.42-1.87-.827-2.7-1.196-.84-.354-1.6-.671-2.2-.927-1.89-.805-3.63-1.542-5.25-2.235-1.63-.698-3.19-1.267-4.68-1.859-1.49-.576-2.94-1.132-4.38-1.687-1.45-.541-2.91-1.032-4.43-1.563-.81-.28-1.78-.619-2.86-.993a93.493 93.493 0 0 0-3.46-1.164c-2.42-.778-4.95-1.59-7-2.247l-8.86-2.615c-2.73-.746-5.24-1.391-7.59-2.021-.59-.157-1.17-.31-1.75-.462-.57-.136-1.14-.269-1.69-.401-1.12-.261-2.21-.515-3.27-.764-2.14-.488-4.18-1.011-6.23-1.394 0 0-1.14-.234-2.84-.586l-2.91-.603-1.64-.341-1.7-.3-6.28-1.121c-.86-.159-1.57-.282-2.07-.348l-.79-.117c-5.95-.98-17.73-2.282-29.01-2.669-2.81-.063-5.61-.166-8.27-.185l-7.5.094c-.58.01-1.15.012-1.7.029l-1.59.085-2.88.161c-1.77.105-3.23.203-4.3.295-1.58.134-3.76.433-6.03.673-2.26.261-4.62.472-6.46.766l-6.22.876-6.89.935c-1.51.224-3.24.382-5.47.623-2.22.255-5.02.452-8.68.723-7.33.431-18.34 1.001-36-.056-2.89-.189-8.57-.599-15.33-1.418-6.77-.798-14.63-1.951-21.85-3.321a413.541 413.541 0 0 1-23.14-5.019c-3.79-.924-7.36-1.885-10.55-2.739-3.16-.889-5.97-1.658-8.12-2.301a435.268 435.268 0 0 1-21.32-6.785 478.339 478.339 0 0 1-20.2-7.485 582.134 582.134 0 0 1-22.91-9.663 710.18 710.18 0 0 1-28.88-13.686c-18.34-9.16-36.36-19.012-52.94-28.437-16.59-9.428-31.74-18.423-44.39-25.957-2.5-1.487-8.99-5.514-14.37-8.936-5.39-3.424-10.31-6.316-10.97-6.45-.66-.134-1.16-.506-1.12-.84.04-.33-.33-.835-.82-1.13-.5-.29-5.05-3.26-10.11-6.568-5.07-3.315-13.94-9.076-19.74-12.784-7.09-4.542-18.98-11.825-33.52-19.974-7.27-4.046-15.21-8.324-23.51-12.415-8.3-4.108-16.98-8.038-25.5-11.333-8.51-3.298-16.88-5.892-23.93-7.289-3.53-.706-6.71-1.125-9.48-1.3-2.78-.177-5.15-.122-7.31.103-2.15.226-4.11.635-6.04 1.212-1.92.581-3.79 1.354-5.59 2.255-.91.418-1.77.96-2.63 1.429-.42.27-.84.537-1.25.799-.2.13-.41.259-.61.386-.2.143-.39.285-.59.425-.39.28-.78.555-1.15.825-.38.273-.73.583-1.09.862-.36.285-.71.564-1.05.837-.33.296-.65.585-.96.867-.07.053-.14.108-.2.16l.01.002c-.59.43-1.21 1.033-1.81 1.612-.22.218-.52.529-.9.917-.37.412-.81.907-1.31 1.47-.51.544-1.04 1.227-1.63 1.943-.29.362-.6.724-.91 1.122-.3.404-.61.82-.92 1.248-2.45 3.477-4.76 7.585-6.86 11.722-2.09 4.23-4.11 8.32-5.83 11.784-.59 1.564-1.04 3.054-1.49 4.388-.46 1.33-.81 2.575-1.15 3.692-.7 2.226-1.19 4.05-1.63 5.503-.11.364-.21.706-.31 1.028-.12.346-.22.67-.32.975-.23.648-.44 1.213-.62 1.713-.37.994-.7 1.713-1.01 2.282-2.21 4.42-8.8 18.388-14.73 28.921-1.14 2.192-2.22 4.345-3.34 6.431-1.2 2.076-2.36 4.098-3.49 6.057-.58.977-1.09 1.95-1.7 2.887l-1.77 2.764c-1.17 1.808-2.29 3.547-3.36 5.206-1.18 1.64-2.3 3.204-3.35 4.68-.53.74-1.05 1.456-1.55 2.151-.25.347-.49.689-.74 1.024-.26.332-.52.658-.77.978-2.04 2.558-3.79 4.744-5.18 6.492l-.06-.024c-1.3 1.508-2.67 3.083-4.17 4.81-.63.717-1.33 1.518-2.06 2.353-.79.82-1.61 1.672-2.41 2.506-1.62 1.665-3.18 3.259-4.27 4.377a680.858 680.858 0 0 0-6.47 6.084c-1.14 1.037-2.39 2.09-3.69 3.235-1.33 1.134-2.66 2.375-4.27 3.677-1.05.834-2.62 2.052-4.32 3.343-.85.643-1.71 1.314-2.59 1.945l-2.62 1.766c-1.63 1.087-3.47 2.335-5.19 3.439l-4.37 2.619c-.49.295-1.57.911-3.09 1.769-1.58.836-3.69 1.872-6.11 3.074-2.37 1.229-5.309 2.484-8.418 3.829-3.049 1.384-6.588 2.658-10.095 3.984-1.735.677-3.538 1.263-5.279 1.834l-5.032 1.651c-3.263 1.014-6.327 1.84-8.868 2.58-1.264.378-2.466.665-3.517.93l-2.71.685c-1.496.384-2.344.615-2.377.66-.135.187-.493.178-.805-.013-.078-.048-.532-.007-1.284.107-.755.113-1.84.259-3.139.472-1.304.209-2.836.468-4.52.762-2.107.407-4.383.725-6.729 1.063l-3.577.509-1.827.257-1.876.207-6.738.723c-2.228.233-4.472.359-6.67.532-4.392.368-8.73.477-12.886.65-2.081.074-4.128.063-6.125.092-1.997.004-3.949.062-5.844.01l-5.52-.109-2.626-.06-2.524-.114-4.745-.229-2.209-.112-2.086-.15-7.111-.537-7.289-.722c-14.285-1.504-30.383-4.23-44.63-7.28-14.27-3.034-26.635-6.42-34.286-8.535l-1.945-.553-.895-.255-.389-.1-1.568-.411c-1.045-.278-2.088-.551-3.04-.828a175.752 175.752 0 0 1-4.475-1.326c-1.829-.579-3.412-.887-3.551-.655-.136.231-.835.072-1.547-.357s-1.773-.63-2.366-.45c-.855.255-1.172.127-1.514-.623-.343-.749-.714-.914-1.833-.777-1.119.136-1.661-.105-2.555-1.148-.834-.972-1.381-1.239-2.099-1.021-1.319.402-7.381-1.986-6.872-2.696.277-.395-.337-.698-2.189-1.086-1.413-.302-3.375-1.058-4.327-1.703-1.034-.701-2.16-1.13-2.808-1.078-.598.049-1.976-.448-3.068-1.119-1.078-.68-4.527-2.198-7.614-3.45-3.111-1.237-5.658-2.506-5.724-2.779-.057-.272-1.109-.77-2.318-1.1-1.297-.362-2.538-1.089-3.018-1.75-.448-.62-2.74-2.007-5.112-3.108-2.388-1.114-4.333-2.343-4.392-2.745-.07-.467-2.906-2.087-7.659-4.498-4.132-2.102-7.614-4.255-7.717-4.653-.198-.776.277-1.847.929-2.505 7.198 3.672 14.308 7.035 21.559 10.3a560.798 560.798 0 0 0 22.068 9.32c14.948 5.937 30.4 11.362 46.469 16.09a490.104 490.104 0 0 0 26.809 7.23 427.932 427.932 0 0 0 27.879 5.677c9.455 1.589 19.048 2.921 28.758 3.778 9.7.876 19.479 1.368 29.229 1.425 9.752.021 19.444-.444 28.948-1.35l7.086-.776c2.335-.31 4.65-.66 6.97-.997 2.335-.314 4.593-.748 6.862-1.164 2.256-.433 4.561-.803 6.746-1.327l6.611-1.497c2.167-.537 4.283-1.13 6.42-1.701l3.187-.874 3.086-.967c2.045-.655 4.125-1.283 6.127-1.974 3.919-1.444 7.948-2.819 11.625-4.437 1.86-.793 3.774-1.554 5.577-2.384l5.332-2.536-3.641 1.693c-1.267.588-2.575 1.207-4.035 1.782-1.438.588-2.925 1.198-4.46 1.825l-2.34.95-2.507.905-5.23 1.86c-.881.326-1.823.614-2.774.907l-2.876.886c-1.955.581-3.875 1.235-5.984 1.756l-6.343 1.654a257.329 257.329 0 0 1-28.318 5.098c-10.067 1.18-20.568 1.816-30.975 1.899a312.02 312.02 0 0 1-30.41-1.224c-9.697-.861-18.813-2.029-26.966-3.355-16.321-2.648-28.822-5.692-35.527-7.349-6.177-1.527-14.123-3.705-21.897-6.035l-3.634-1.123-2.156-.675-3.787-1.238" fill="#34CEF9"/><mask id="b" style="mask-type:alpha" maskUnits="userSpaceOnUse" x="700" y="-189" width="1452" height="524"><path fill-rule="evenodd" clip-rule="evenodd" d="M700.454 83.549 2102.83 334.326l48.61-271.841L749.065-188.292l-48.611 271.84Z" fill="#fff"/></mask><g mask="url(#b)"><path fill-rule="evenodd" clip-rule="evenodd" d="M1438.67 49.242c-16.13-9.82-29.12-17.095-43.13-24.988-14-7.91-28.9-16.492-48.39-29.285-19.48-12.797-37.25-23.287-54.1-32.616-16.86-9.33-32.7-17.515-48.66-25.746-15.97-8.225-31.8-15.143-46.57-20.108-7.38-2.485-14.44-4.503-20.98-6.01a184.313 184.313 0 0 0-17.64-3.191c-9.87-1.271-18.79-1.325-26.15-.654-7.37.693-13.18 2-17.68 3.308-2.28.632-4.16 1.339-5.88 1.928-1.63.651-3.09 1.208-4.28 1.734-1.17.535-2.16.987-2.98 1.36-.78.391-1.4.7-1.85.93-1.82.916-1.17.518 1.48-.928 2.76-1.366 7.63-3.797 15.39-5.982 3.89-1.077 8.52-2.042 13.81-2.676 5.29-.632 11.26-.893 17.58-.64 6.33.246 12.98.998 19.66 2.187 6.68 1.197 13.38 2.824 19.96 4.736 13.18 3.831 25.88 8.778 37.89 14.03 12.01 5.265 23.38 10.844 33.9 16.224 11.34 5.81 21.21 11.212 30.3 16.324 9.08 5.118 17.37 9.956 25.38 14.733 16.01 9.556 30.9 18.89 48.36 29.875 17.47 10.971 23.87 14.728 28.16 17.244 4.32 2.488 6.52 3.72 15.87 9.175 11.03 6.411 18.67 11.142 23.56 14.295 4.88 3.148 6.99 4.741 6.99 4.741m497.28 133.856c-.28-.527.32-.809 1.32-.613.19.033 1.38.71 3.44 1.961 2.06 1.256 5.05 3.044 8.68 5.391 7.32 4.651 17.46 11.374 29.06 19.701a764.085 764.085 0 0 1 38.05 29.162c13.36 10.919 27.03 22.826 40.05 35.03 10.73 9.661 21.01 19.576 28.5 27.117 3.75 3.769 6.82 6.941 8.95 9.168 2.14 2.222 3.37 3.522 3.37 3.432-.02-.363 1.03-1.059 2.33-1.543.12-.04-.76-1.237-2.46-3.316-1.7-2.081-4.23-5.05-7.47-8.696-6.49-7.292-15.87-17.294-27.17-28.404-27.96-27.051-62.22-56.109-101.32-82.807-19.55-13.335-40.33-26.036-61.86-37.512a566.112 566.112 0 0 0-32.79-16.175c-11.07-5.016-22.18-9.688-33.3-13.862-11.13-4.165-22.18-7.906-33.02-11.172-2.71-.806-5.43-1.561-8.1-2.327-1.34-.377-2.66-.766-3.99-1.126-1.34-.347-2.67-.692-4-1.035-2.65-.676-5.25-1.381-7.85-2.004-2.62-.606-5.19-1.205-7.74-1.794-2.53-.612-5.07-1.112-7.57-1.624-2.49-.505-4.95-1.027-7.38-1.49l-7.2-1.275-3.51-.617c-1.16-.196-2.32-.354-3.46-.529-4.59-.675-9-1.378-13.25-1.84l-6.24-.744a74.31 74.31 0 0 0-3.01-.311c-1-.09-1.98-.18-2.95-.269-3.88-.343-7.57-.721-11.03-.891-3.48-.199-6.75-.441-9.79-.558-6.08-.177-11.31-.405-15.52-.346l-5.61-.004h-2.25l-1.85.045-2.54.063c-.58.012-.89.016-.92.01-1.42-.318-2.12-.717-1.53-.885.12-.033 1.38-.116 3.7-.241 2.3-.165 5.71-.2 10.09-.28 4.36-.136 9.76-.013 16.03.09 6.3.23 13.49.51 21.51 1.205 4 .266 8.2.753 12.59 1.22l3.32.36c1.12.123 2.25.295 3.39.443l6.97.95c2.37.297 4.76.728 7.2 1.119 2.44.406 4.92.799 7.43 1.241 2.51.48 5.04.968 7.62 1.463l3.9.76 3.91.856c21.06 4.515 43.82 11.054 66.67 19.484 2.84 1.069 5.74 2.112 8.59 3.232l8.58 3.402c5.67 2.355 11.42 4.747 17.07 7.296a621.321 621.321 0 0 1 33.65 16.238c22.06 11.516 43.29 24.239 63.24 37.513 19.96 13.275 38.61 27.116 55.8 40.892a826.31 826.31 0 0 1 46.95 40.638 809.854 809.854 0 0 1 26.52 24.908c3.21 3.166 5.76 5.714 7.51 7.484l2.02 2.03c.23.23.41.405.53.523.12.117.19.175.2.173 1.16-.345-.14-2.367-1.52-4.852-1.38-2.48-2.86-5.431-2.03-7.728.08-.225-.37-.471-.05-.717.44-.336.03-.788-1.62-1.781-1.79-1.064-2.15-1.498-1.84-2.243.27-.655-.18-1.334-1.57-2.312-2.58-1.823-7.78-6.953-7.22-7.149.25-.086-.95-1.39-2.65-2.889a623.453 623.453 0 0 1-5.94-5.232c-.85-.762-1.63-1.468-2.35-2.115-.35-.326-.69-.637-1.01-.933-.61-.573-1.18-1.117-1.73-1.633-2.92-2.777-5.17-4.942-6.71-6.483-1.53-1.545-2.35-2.472-2.42-2.763-.21-.875-.93-1.461-2.57-2.077-1.47-.554-2.41-1.294-2.67-2.06-.48-1.552-6.92-7.079-8.51-7.286-.67-.094-1.83-.727-2.62-1.422-.77-.685-.6-1.103.38-.923 1.54.285.73-.58-5.42-5.648-4.05-3.282-7.09-6.052-6.8-6.186.32-.141-.59-.841-2.04-1.571-1.43-.727-2.81-1.699-3.08-2.18-.28-.482-1.5-1.427-2.7-2.102-1.12-.613-4.1-2.868-9.58-7.007-5.47-4.142-13.37-10.193-24.6-18.292-3.3-2.349-6.55-4.615-9.17-6.356-2.63-1.736-4.58-2.966-5.21-3.271-1.25-.596-2.48-1.534-2.72-2.03-.23-.509-3.02-2.482-6.22-4.398-5.68-3.355-10.1-6.387-17.28-11.701-1.91-1.408-4.2-2.691-5.03-2.87-.42-.088-2.21-1.051-4.76-2.526a407.7 407.7 0 0 1-9.43-5.529c-3.37-1.971-6.76-3.973-9.56-5.58-2.82-1.593-4.99-2.82-5.83-3.291-.39-.216-.92-.54-1.17-.72-.4-.305-3.58-2.016-6.06-3.277-.52-.27-1.57-.825-2.89-1.518-1.3-.7-2.87-1.535-4.46-2.348-3.17-1.637-6.27-3.253-7.07-3.699-.91-.497-3.02-1.551-4.68-2.367-1.22-.603-3.32-1.646-5.84-2.893-2.56-1.217-5.55-2.636-8.49-4.029-.24-.112-.96-.507-1.96-1.033-1-.528-2.27-1.195-3.56-1.875-2.57-1.368-4.93-2.585-5.26-2.712-.32-.118-.96-.354-1.43-.511-.46-.16-3.99-1.846-7.86-3.747-1.92-.963-4.28-2.023-6.45-3.023-2.17-.994-4.18-1.904-5.5-2.488-1.33-.579-3.5-1.483-5.91-2.498-2.42-1.004-5.04-2.149-7.42-3.064-5.56-2.221-15.7-6.12-26.82-9.691-5.49-1.858-11.32-3.52-16.67-5.119-2.7-.756-5.33-1.452-7.78-2.11-2.45-.648-4.71-1.274-6.79-1.745-1.78-.43-3.85-.93-6.08-1.467-2.22-.542-4.58-1.13-6.99-1.644-4.81-1.054-9.61-2.194-13.35-2.912-5.03-1.048-15.58-3.017-28.71-4.551-13.09-1.582-28.75-2.817-43.53-2.958-.92-.02-1.85-.047-2.76-.056l-2.73.013-5.38.039-5.23.056-5.02.197c-3.27.146-6.43.246-9.36.438l-8.16.628c-2.52.198-4.8.383-6.77.636-1.97.229-3.68.436-5.08.615-2.8.357-4.36.6-4.31.683l-.92.13-.86.125-.81.124c-1.21.175-2.87.444-4.74.644-1.85.247-4.04.426-6.06.622l-2.85.22c-.87.077-1.65.093-2.25.14-.91.054-2.13.14-3.66.151l-2.49.046-2.9-.028c-4.13-.077-9.29-.337-15.19-.975a206.114 206.114 0 0 1-19.53-3.073c-7.01-1.438-14.36-3.276-21.59-5.39a373.476 373.476 0 0 1-17.46-5.617 485.418 485.418 0 0 1-14.38-5.28c-8.48-3.25-15.69-6.314-22.26-9.227a509.622 509.622 0 0 1-18.53-8.676c-11.99-5.925-24.17-12.355-41.82-22.436-11.61-6.63-27.05-15.724-34.37-19.995-25.32-14.698-48.6-29.645-73.21-45.617-10.84-7.032-18.87-12.033-24.21-15.275-5.35-3.244-8.03-4.733-8.33-4.778-.15-.023-.41-.161-.56-.315-.28-.254-5.31-3.279-12.49-7.314a550.63 550.63 0 0 0-12.05-6.585c-4.36-2.296-8.88-4.625-13.26-6.757-5.62-2.743-10.16-4.903-13.35-6.43-3.16-1.53-4.95-2.432-5.04-2.662-.19-.493-.51-.612-1-.391-.19.079-1.07-.194-3.21-.977-1.08-.391-2.45-.911-4.19-1.58-1.79-.662-3.91-1.478-6.55-2.444l-4.33-1.567-5.2-1.793c-1.92-.628-3.95-1.302-6.19-2.004-2.28-.691-4.64-1.439-7.34-2.182-1.35-.371-2.68-.768-4.16-1.143-1.46-.376-2.97-.762-4.52-1.16-1.6-.373-3.24-.757-4.94-1.152-1.69-.393-3.53-.749-5.37-1.129-7.46-1.462-16.21-2.848-26.44-3.489-5.4-.316-9.9-.369-13.57-.276-1.83.055-3.45.105-4.88.19-1.42.1-2.66.2-3.72.298-2.12.179-3.52.412-4.39.586-.87.178-1.21.321-1.15.443.24.486.09.491-.63.043-.37-.226-2.84-.198-9.19.797-1.56.276-3.39.591-5.42 1.027l-3.21.748c-1.14.269-2.33.566-3.54.922-1.21.347-2.5.722-3.85 1.128-1.31.422-2.65.888-4.07 1.382-1.45.488-2.83 1.049-4.31 1.64l-2.25.917c-.74.321-1.47.66-2.23 1.005-8.6 3.949-14.46 7.787-19.29 11.387-4.79 3.62-8.57 7.06-12 10.64-6.73 7.165-12.41 14.912-18.33 26.268-1.42 2.627-4.02 7.987-5.67 11.904-.89 1.957-1.72 4.17-2.51 6.167a146.72 146.72 0 0 0-1.67 4.837c-.34 1.064-.9 2.8-1.52 4.739-.3.903-.61 1.855-.92 2.8-.3.866-.6 1.726-.87 2.53-.66 1.9-1.26 3.657-1.82 5.291-.58 1.627-1.18 3.099-1.68 4.492-1.05 2.772-1.83 5.182-2.67 7.251-.36.924-.88 2.255-1.43 3.654-.57 1.395-1.13 2.875-1.71 4.025-1.37 2.854-2.45 5.318-3.45 7.367a211.805 211.805 0 0 0-2.55 5.104c-1.08 1.839-2.2 3.394-3.08 4.746-.886 1.347-1.586 2.455-2.055 3.26-.945 1.59-2.386 3.56-3.772 5.562l-1.052 1.483c-.363.479-.746.933-1.105 1.382l-2.005 2.431c-.705.81-1.423 1.765-2.304 2.716l-2.776 3.047-1.465 1.636c-.494.556-1.056 1.07-1.585 1.617l-3.222 3.269c-1.076 1.082-2.24 2.07-3.299 3.077-1.088.982-2.064 1.99-3.115 2.816l-2.803 2.376-1.18 1.023c-.366.318-.739.582-1.057.84-1.092.861-2.347 1.85-3.486 2.75-.556.463-1.131.86-1.639 1.21l-1.279.899c-.675.47-1.688 1.208-2.778 2.02l-3.413 2.283-1.505 1.019c-.475.322-.963.57-1.366.807-.819.463-1.402.777-1.553.823l-.931.295c-.103.038-.495.262-1.045.596-.278.164-.584.368-.933.567l-1.115.617c-1.534.87-3.049 1.69-3.361 1.822-.469.207-.961.388-1.459.559-.493.176-.983.35-1.465.524l-2.751.995c-.842.332-1.685.544-2.375.77l-1.709.53c-1.175.35-2.635.845-3.321 1.017-.593.174-2.861.81-5.208 1.395-2.4.506-4.82 1.049-5.632 1.179-1.954.272-4.455.708-4.797.825a5.418 5.418 0 0 1-.946.22c-.685.099-2.467.353-4.782.684-.572.095-1.193.166-1.847.227l-2.015.212c-1.382.14-2.806.333-4.284.408-1.547.107-3.053.205-4.454.283a244.91 244.91 0 0 1-3.882.036c-2.261.03-3.867-.132-4.166-.257-.614-.282-2.616-.341-4.514-.213-1.801.09-3.431.162-4.944.21a101.39 101.39 0 0 1-4.293-.066c-.675-.024-1.334-.052-1.984-.088-.658-.056-1.307-.12-1.954-.188-1.295-.137-2.581-.299-3.918-.488-3.064-.527-5.953-.765-6.487-.576-.521.183-1.883.057-2.958-.287-.546-.18-2.465-.49-5.146-1.01-1.339-.258-2.854-.488-4.488-.814a479.2 479.2 0 0 0-5.13-.966c-12.128-2.401-21.058-4.83-27.135-6.642a120.07 120.07 0 0 1-4.041-1.247l-3.033-.996a52.663 52.663 0 0 1-2.064-.757 22.531 22.531 0 0 1-.687-.28c-.164-.073-.148-.092-.208-.136-.342-.32-.858-.516-1.151-.433-.296.087-.812-.196-1.156-.623-.343-.43-.716-.599-.847-.356-.125.235-1.665-.135-3.436-.817-2.719-1.047-3.197-1.15-3.214-.42-.011.463-.325.741-.699.615-.379-.128-.661-.489-.631-.815.07-.769-2.848-1.91-3.875-1.548-.507.18-.882-.035-1.031-.612-.163-.65-.457-.803-1.053-.559-.4.167-2.106-.281-5.021-1.371-2.919-1.072-7.038-2.81-12.206-5.216-1.96-.925-3.679-1.546-3.809-1.39-.152.186-1.899-.443-3.897-1.303-1.982-.878-4.217-1.98-5.324-2.75-1.202-.824-2.075-1.079-3.014-.898-1.06.204-1.625-.01-2.869-1.09-1.156-.997-1.701-1.254-2.234-.983-.385.193-.662-.08-.985-.031-3.314.498-7.205-.496-10.411-1.452-3.201-.96-5.702-1.88-6.439-1.219-.008.008.102.08.326.216l1.011.587c.886.512 2.222 1.251 3.941 2.192 3.449 1.877 8.511 4.528 14.829 7.597a425.534 425.534 0 0 0 22.29 10.06c4.193 1.772 8.614 3.508 13.156 5.259 4.561 1.704 9.244 3.435 14.025 5.031 28.353 9.064 58.524 14.934 85.677 15.297 6.793.125 13.353-.147 19.7-.616l4.698-.436c1.563-.14 3.059-.384 4.584-.565l2.27-.29c.759-.09 1.48-.241 2.219-.357l4.389-.732c11.496-2.17 21.762-5.326 30.657-8.957 8.906-3.63 16.418-7.74 22.733-11.708 6.38-3.928 11.347-7.881 15.477-11.145 3.968-3.373 7.096-6.083 9.086-8.066 2.06-1.946 3.23-3.015 3.38-3.073.45-.198.81.309.74 1.1 0 .025-.25.306-.73.826-.48.518-1.2 1.277-2.12 2.261-1.79 2-4.713 4.735-8.457 8.171-3.898 3.336-8.64 7.38-14.818 11.46-6.114 4.117-13.45 8.436-22.286 12.327-8.821 3.897-19.142 7.35-30.841 9.865-1.472.3-2.98.563-4.48.851l-2.262.429c-.767.127-1.549.232-2.325.35l-4.7.695-4.842.541c-1.609.21-3.283.305-4.947.438-1.67.12-3.326.291-5.045.337l-5.142.229-5.25.065c-7.052.013-14.318-.27-21.729-.883a304.066 304.066 0 0 1-22.559-2.85c-15.201-2.468-30.572-6.191-45.568-10.678-10.8-3.147-21.34-6.741-31.024-10.335a514.38 514.38 0 0 1-25.878-10.477c-7.411-3.224-13.398-6.06-17.554-8.031-4.149-1.983-6.442-3.097-6.564-3.01-1.031.695-2.299 1.205-2.807 1.142-.177-.028 2.326 1.502 6.911 4.025 4.582 2.516 11.234 5.989 19.154 9.78a475.665 475.665 0 0 0 26.636 11.734c9.508 3.872 19.367 7.455 28.433 10.456 3.149 1.017 6.298 1.92 9.381 2.845 3.108.863 6.149 1.756 9.172 2.525 6.018 1.62 11.874 2.957 17.448 4.189 11.17 2.376 21.282 3.97 29.769 4.995 17.002 2.047 27.397 1.953 27.861 2.202.892.332 1.136.845.527 1.128-.186.121-2.91.156-7.733.154-1.206-.002-2.554-.067-4.022-.106-1.471-.058-3.061-.077-4.78-.182l-5.505-.34c-1.949-.121-4.015-.342-6.184-.524-8.676-.82-19.052-2.22-30.544-4.424-5.731-1.143-11.763-2.401-17.965-3.946-3.116-.731-6.251-1.587-9.457-2.416-3.179-.89-6.429-1.761-9.678-2.745a451.68 451.68 0 0 1-29.817-9.515c-10.034-3.563-19.754-7.424-28.199-11.008a531.268 531.268 0 0 1-20.639-9.306c-5.029-2.402-7.964-3.881-7.95-3.747.072.478-.296.944-.824 1.025-1.148.173-2.236 3.09-1.317 3.581.337.179.794 1.109 1.023 2.052.236.952.813 1.786 1.277 1.846.455.063.681.521.493 1.026-.065.173-.064.442-.035.74a394.936 394.936 0 0 0 4.296 2.189l3.207 1.593c1.65.823 5.734 2.795 9.713 4.651l3.887 1.76 3.686 1.633.894.407 5.38 2.321 4.398 1.84 3.729 1.518c1.77.732 5.75 2.302 8.844 3.49a525.86 525.86 0 0 0 17.359 6.33l5.338 1.803 5.248 1.695c1.692.557 3.35 1.047 4.886 1.522.849.26 1.684.514 2.502.763.953.298 1.903.562 2.826.83l5.277 1.516c5.794 1.604 13.545 3.619 21.451 5.4 7.914 1.766 15.977 3.264 22.175 4.289 1.994.322 4.504.687 7.447 1.133 1.472.226 3.067.403 4.756.627 1.694.202 3.48.471 5.377.65 7.561.858 16.677 1.562 26.705 1.805l2.921.061 1.485.029 1.493-.012 6.122-.06c2.073-.048 4.17-.158 6.311-.242 2.147-.066 4.296-.237 6.481-.405 8.737-.659 17.895-1.784 26.998-3.657 9.118-1.842 18.236-4.324 27.018-7.446l6.525-2.455 6.326-2.719c1.079-.443 2.082-.945 3.097-1.442l3.055-1.493c1.009-.508 2.069-.984 3.039-1.523l2.927-1.614c3.988-2.11 7.627-4.473 11.343-6.816 1.76-1.224 3.53-2.452 5.3-3.684.44-.31.89-.613 1.32-.93l1.25-.966 2.49-1.938 2.5-1.944c.83-.653 1.58-1.342 2.37-2.011 1.55-1.351 3.13-2.696 4.67-4.06 1.45-1.399 2.91-2.798 4.37-4.199.71-.705 1.48-1.388 2.15-2.113l2.02-2.162c1.34-1.446 2.73-2.872 4.01-4.334 1.24-1.476 2.49-2.95 3.73-4.423.61-.739 1.25-1.47 1.84-2.212l1.71-2.251c1.14-1.5 2.27-2.997 3.4-4.49 1.1-1.503 2.09-3.033 3.14-4.54 1.01-1.518 2.09-3.007 3.03-4.533.93-1.526 1.86-3.045 2.79-4.558.91-1.515 1.87-3.009 2.67-4.538.83-1.519 1.66-3.03 2.48-4.532.83-1.5 1.66-2.99 2.36-4.5.74-1.501 1.47-2.992 2.19-4.472.71-1.483 1.48-2.94 2.09-4.42 1.27-2.947 2.53-5.843 3.76-8.683 1.1-2.866 2.18-5.674 3.24-8.417.5-1.336 1-2.656 1.5-3.96.48-1.279.93-2.553 1.44-3.782.5-1.236 1-2.453 1.48-3.652.52-1.187 1.03-2.356 1.53-3.506 2.06-4.573 4.14-8.787 6.27-12.533 4.23-7.51 8.49-13.221 11.72-16.99.83-.929 1.57-1.754 2.22-2.47.64-.712 1.24-1.28 1.7-1.76.46-.473.82-.834 1.05-1.077l.38-.353a66.896 66.896 0 0 1 11.69-8.755c5.1-3.001 11.66-5.978 20.38-7.48 10.98-1.952 23.57-.967 36.27 2.039 12.71 2.974 25.37 7.643 37.64 12.973 12.3 5.347 24.29 11.384 36.15 17.755 11.86 6.38 23.6 13.112 35.4 20.064 6.83 4.024 17.5 10.41 29.16 17.5 11.69 7.103 24.42 14.84 35.37 21.495 33.4 20.224 56.92 33.719 80.69 46.195 11.9 6.224 23.87 12.205 37.46 18.413 6.8 3.098 14.01 6.248 21.87 9.456 7.85 3.202 16.34 6.48 25.76 9.713 7.37 2.546 19.25 6.418 32.79 9.829a342.873 342.873 0 0 0 21.09 4.601c7.14 1.32 14.25 2.365 20.86 3.113 17.7 1.97 35.99 2.23 52.81.534l12.06-1.279c3.86-.461 7.78-.681 11.62-.962 7.69-.516 15.26-.711 22.51-.704 14.51.022 27.77 1.028 38.54 2.235l3.93.451c1.27.148 2.5.276 3.68.462 2.38.34 4.58.656 6.6.946 1.01.149 1.98.271 2.89.424l2.6.444 4.29.727 2.75.472c1.02.188 2.12.419 3.3.65 2.34.474 4.98.978 7.73 1.555l8.39 1.903c2.81.646 5.53 1.384 8.07 2.011 1.26.326 2.5.619 3.68.948l3.41.954 5.78 1.615a10400 10400 0 0 0 5.32 1.621l1.99.61c1.22.371 2.96.894 5.13 1.632 2.17.726 4.8 1.583 7.8 2.604 2.98 1.071 6.36 2.245 10.01 3.593 1.82.692 3.71 1.415 5.67 2.163.99.376 1.99.757 3 1.145 1 .406 2.02.82 3.06 1.239 2.06.839 4.19 1.703 6.38 2.588 2.15.924 4.35 1.87 6.6 2.835 8.95 3.917 18.48 8.3 27.89 13.096a619.2 619.2 0 0 1 27.76 14.966c8.89 5.122 17.28 10.264 24.83 15.053a701.557 701.557 0 0 1 32.24 21.892c2.04 1.491 4.44 3.195 6.91 5.055 2.49 1.849 5.14 3.811 7.72 5.8l3.88 2.955 3.7 2.885c2.41 1.865 4.61 3.632 6.51 5.148 4.4 3.496 9.74 7.885 15.45 12.678a807.198 807.198 0 0 1 17.47 15.196 732.601 732.601 0 0 1 16.06 14.797c2.42 2.315 4.51 4.315 6 5.743 1.88 1.844 4.33 4.229 5.41 5.312 1.08 1.08 3.32 3.313 4.95 4.97 1.62 1.657 3.09 3.158 3.27 3.341.18.178.44.431.57.559.12.131 1.12 1.17 2.22 2.316l2.35 2.462c2.45 2.535 4.93 5.177 5.94 6.256l1.94 2.094 2.59 2.825c.45.058.87.097 1.15.082.81-.04 1.47.162 1.48.44 0 .284 1.16.747 2.58 1.044 1.41.292 2.73.726 2.93.959.54.613 5.31.577 5.86-.058.25-.298 1.06-.418 1.8-.262.16.035-.79-1.269-2.6-3.522-1.81-2.255-4.5-5.467-7.84-9.291-6.67-7.651-16.01-17.738-25.78-27.631-12.51-12.263-25.67-24.258-38.56-35.286-12.87-11.037-25.51-21.076-36.7-29.552a771.79 771.79 0 0 0-27.95-20.19c-3.46-2.435-6.31-4.308-8.22-5.653-1.92-1.34-2.99-2.1-3.06-2.217" fill="#34CEF9"/></g></g><defs><clipPath id="a"><path fill="#fff" d="M0 0h1440v900H0z"/></clipPath></defs></svg>