<svg width="1440" height="900" fill="none" xmlns="http://www.w3.org/2000/svg"><g clip-path="url(#a)"><path fill-rule="evenodd" clip-rule="evenodd" d="M1360.03 871.005c5.16 1.624 12.66 4.166 19.7 6.737a522.481 522.481 0 0 1 17.27 6.63c3.08 1.227 7.02 2.879 8.79 3.618 2.7 1.151 5.4 2.298 8.06 3.482 2.67 1.166 5.05 2.268 5.35 2.393.28.134.69.321.89.416.21.095 1.85.852 3.66 1.688 1.81.848 3.54 1.664 3.87 1.818a450.95 450.95 0 0 1 9.71 4.817l3.24 1.668c.4.211 1.56.823 2.96 1.566.72.387 1.5.808 2.28 1.23.87.479 1.74.959 2.53 1.399-.18.809-.75 1.441-1.68 1.914-.46.237-1.01.434-1.64.594-.63.162-1.37.27-2.06.419-1.55.273-3.29.242-3.95-.111-.67-.35-2.95-.729-5.04-.815-.93-.039-1.88-.131-2.73-.249-3.06-1.539-7.58-3.76-12.73-6.15a509.531 509.531 0 0 0-19.73-8.667c-1.62-.664-5.3-2.165-8.21-3.301-1.44-.578-3.21-1.247-4.87-1.88-1.65-.637-3.21-1.224-4.28-1.612-6.6-2.457-11.08-3.974-16.28-5.741-1.4-.455-3.38-1.103-5.45-1.781-2.08-.678-4.28-1.341-6.04-1.896-1.38-.436-2.71-.829-3.99-1.204-.9-.267-1.79-.529-2.66-.785-1.57-.473-3.13-.905-4.65-1.328-1.53-.424-3.03-.839-4.49-1.246l-4.36-1.138c-2.83-.761-5.62-1.405-8.29-2.063-10.74-2.554-20.26-4.413-29.75-5.931-2.51-.436-5.61-.844-9.02-1.332-1.71-.257-3.51-.443-5.37-.67-1.85-.206-3.75-.474-5.69-.637-7.74-.815-15.91-1.279-22.58-1.512-1.45-.057-3.31-.055-5.51-.08l-3.55-.022-3.97.089h-.01l-.51.013c-3.46.039-7.29.287-11.47.528-2.09.14-4.24.364-6.48.559-1.11.112-2.26.184-3.4.338l-3.48.436c-9.59 1.195-21.39 3.295-33.82 6.944-3.16.852-6.2 1.952-9.41 3.011-1.62.514-3.13 1.141-4.71 1.741l-4.77 1.851c-6.2 2.672-12.56 5.588-18.5 9.012-1.49.854-3.05 1.678-4.5 2.58-1.44.907-2.89 1.823-4.35 2.745-.73.462-1.46.926-2.19 1.391-.7.487-1.39.975-2.09 1.466-1.38.981-2.78 1.969-4.19 2.963-1.39 1-2.67 2.066-4.02 3.107-1.31 1.056-2.71 2.083-3.96 3.181-1.26 1.097-2.52 2.2-3.78 3.307-.64.554-1.27 1.109-1.9 1.666-.62.563-1.19 1.145-1.79 1.718-9.64 9.156-17.9 19.192-24.87 29.517-6.98 10.327-12.69 20.941-17.46 31.307-1.13 2.605-2.25 5.184-3.35 7.733-1.09 2.552-2 5.108-2.99 7.607-.93 2.443-1.84 4.85-2.74 7.216-.42 1.155-.88 2.287-1.33 3.403-.47 1.117-.89 2.235-1.37 3.321-1.85 4.357-3.84 8.457-5.84 12.287-2.07 3.8-4.16 7.33-6.3 10.5-4.3 6.34-8.65 11.32-12.41 14.8-2.34 2.21-4.79 4.16-7.2 5.91-2.45 1.73-4.93 3.2-7.34 4.47-4.89 2.46-9.55 4.02-13.6 4.87-4.922 1.14-11.599 1.77-18.634 1.37-3.504-.17-7.091-.62-10.449-1.16-1.676-.25-3.311-.59-4.844-.87-1.542-.34-2.986-.63-4.316-.96-5.313-1.25-10.386-2.78-14.23-4.03-3.847-1.25-6.467-2.24-6.963-2.4-.992-.36-2.17-.82-2.636-1.01-.469-.19-1.577-.6-2.497-.95-.503-.2-3.168-1.22-7.058-2.82a399.871 399.871 0 0 1-14.365-6.33c-5.381-2.5-11.195-5.36-16.232-7.92-5.04-2.56-9.3-4.83-11.636-6.07-23.665-12.59-50.834-28.778-79.852-46.052-29.041-17.261-60.064-35.589-91.952-52.147-18.987-9.871-35.577-17.728-50.548-24.175-14.964-6.453-28.305-11.496-40.851-15.739-12.573-4.21-24.371-7.622-36.506-10.477-6.059-1.444-12.221-2.707-18.598-3.844-6.378-1.134-12.986-2.132-19.958-2.888-7.769-.894-19.896-1.851-32.882-1.699-6.496.046-13.175.402-19.608.994l-2.409.219c-.797.077-1.58.178-2.367.266l-4.594.531-8.179.922c-10.594 1.007-22.108 1.666-32.142 1.643l-1.853.025-1.824-.031-3.504-.062c-2.272-.055-4.39-.044-6.346-.143l-9.252-.443c-13.155-.834-23.945-2.256-32.822-3.567-4.431-.744-8.409-1.316-11.953-2.044-3.548-.689-6.712-1.239-9.506-1.888l-7.479-1.633-5.846-1.429c-1.726-.431-3.267-.776-4.651-1.156l-3.829-1.035-5.235-1.412-6.35-1.877-3.36-.993-3.316-1.062-6.203-1.988c-7.563-2.553-18.833-6.585-24.933-9.101l-3.648-1.439-4.592-1.919c-1.676-.71-3.518-1.45-5.441-2.293l-6.097-2.687c-8.507-3.817-18.428-8.512-28.218-13.585-9.791-5.07-19.484-10.471-27.873-15.379l-6.04-3.571-5.43-3.316c-3.441-2.073-6.343-3.968-8.733-5.457a683.998 683.998 0 0 1-15.082-9.91c-5.11-3.459-9.899-6.791-13.174-9.132-6.203-4.388-12.365-8.918-19.327-14.205a733.176 733.176 0 0 1-23.849-18.903c-5.887-4.825-14.281-12.041-18.725-15.982-4.212-3.701-8.039-7.179-12.149-10.94l-3.117-2.894-2.416-2.258-2.788-2.635-5.537-5.321a586.96 586.96 0 0 1-4.964-4.86 636.876 636.876 0 0 1-11.942-12.047 506.48 506.48 0 0 1-7.58-8.034 5.948 5.948 0 0 1 .157-1.598c.294-1.206.26-2.519-.1-2.923-.365-.407.037-1.351.925-2.098a8.335 8.335 0 0 1 2.816-1.571c1.045-.347 2.114-.61 3.272-.72l2.333 2.529c.77.821 1.405 1.495 1.624 1.728l1.817 1.912c.935.985 3.285 3.409 5.59 5.743.187.192 1.18 1.211 2.215 2.269 1.045 1.057 1.994 2.015 2.114 2.135l.531.517 3.102 3.084c1.56 1.525 3.67 3.591 4.693 4.589a600.79 600.79 0 0 0 5.129 4.91l4.309 4.033 7.463 6.869c10.538 9.707 22.08 19.612 30.093 26.199 1.732 1.427 3.738 3.091 5.933 4.848l3.366 2.719 3.521 2.787a694.443 694.443 0 0 0 13.283 10.25 724.384 724.384 0 0 0 29.078 20.756c6.786 4.554 14.27 9.484 22.219 14.383 7.945 4.901 16.277 9.83 24.619 14.481 8.364 4.627 16.696 9.011 24.558 12.902 7.887 3.858 15.234 7.306 21.621 10.068l4.567 1.995c1.452.627 2.851 1.185 4.153 1.73 2.618 1.067 4.868 2.05 6.784 2.771l6.19 2.416 1.254.487 3.383 1.235 4.995 1.827c1.888.669 3.979 1.363 6.163 2.115l3.398 1.162 3.596 1.137 3.654 1.159 1.816.576 1.805.528 6.7 1.956c2.038.582 3.848 1.032 5.255 1.416 2.122.566 4.977 1.359 8.5 2.171 1.758.424 3.674.885 5.737 1.38l6.642 1.422c9.411 1.945 21.017 3.99 33.895 5.382 12.872 1.406 26.998 2.146 41.305 1.86l2.69-.044 1.348-.021 1.339-.063 5.37-.264c3.607-.114 7.142-.5 10.716-.762l2.673-.217 2.64-.305 5.275-.601 6.227-.719c2.258-.284 4.565-.471 6.852-.681l2.245-.196 2.302-.152c1.548-.096 3.108-.214 4.703-.29 3.196-.134 6.456-.28 9.783-.306 6.638-.1 13.465.025 20.122.416 13.328.705 25.899 2.397 35.248 3.947a362.309 362.309 0 0 0-19.856-2.797 327.595 327.595 0 0 0-20.074-1.545 299.664 299.664 0 0 0-19.981-.176c-6.609.175-13.125.614-19.543 1.228l-16.083 1.76-7.397.559c-2.454.224-4.953.299-7.442.407-4.959.29-9.999.261-15.011.339l-7.574-.151-1.893-.034c-.632-.019-1.268-.062-1.902-.091l-3.805-.192c-20.297-.988-40.838-4.108-61.081-8.79-10.118-2.385-20.152-5.204-30.07-8.353l-3.713-1.2c-1.238-.4-2.48-.789-3.702-1.23l-7.365-2.561-7.297-2.712-1.826-.678-1.805-.716-3.612-1.431c-9.613-3.848-19.094-7.954-28.361-12.362a573.404 573.404 0 0 1-27.273-13.894c-8.925-4.834-17.606-9.925-26.146-15.139-8.526-5.226-16.893-10.599-25.036-16.142-32.62-22.139-62.384-46.379-89.381-71.631a706.11 706.11 0 0 1-17.414-16.888c-5.64-5.667-11.138-11.401-16.307-17.074 1.151-.294 2.864-.465 3.973-.306.56.078 2.882 2.068 5.208 4.421 2.675 2.706 4.692 4.309 5.366 4.353.598.037 2.133 1.129 3.456 2.456 1.323 1.318 3.111 2.577 3.993 2.807.932.249 1.876.918 2.27 1.633.371.664 1.011 1.233 1.41 1.252.396.025 2.04 1.39 3.643 3.053 1.607 1.659 3.709 3.451 4.639 4 .947.545 1.633 1.263 1.538 1.608-.103.372.495.962 1.492 1.464.917.462 2.01 1.459 2.435 2.219.547.995.989 1.302 1.567 1.084.261-.097.675.018 1.14.26.116.06.236.128.357.203l.091.057c.032.02.048.026.133.098l.417.345c.569.469 1.163.982 1.75 1.509 2.336 2.114 4.61 4.445 4.709 5.19.11.807 1.015 1.54 3.501 2.743 2.656 1.288 3.5 1.976 4.1 3.294.602 1.309 1.203 1.797 2.879 2.328 1.677.53 2.156.925 2.356 1.903.138.676 1.372 1.972 2.746 2.88 1.372.907 2.232 1.762 1.92 1.896-.316.135 1.573 2.072 4.196 4.298a732.444 732.444 0 0 1 6.324 5.414l8.574 7.29c4.147 3.523 11.03 9.084 18.944 15.058 7.899 5.985 16.842 12.369 24.806 17.716 1.569 1.062 19.475 13.404 41.389 25.84 3.034 1.739 6.001 3.337 8.681 4.837 1.068.587 2.073 1.077 2.919 1.5 1.701.836 2.83 1.326 2.981 1.266.301-.118.567-.071.598.114.008.045.547.38 1.512.948.958.579 2.381 1.34 4.118 2.289 1.747.935 3.79 2.084 6.115 3.265 2.322 1.18 4.855 2.497 7.536 3.819l7.877 3.808 7.02 3.261c4.225 1.91 7.336 3.274 8.254 3.725 1.854.879 6.121 2.751 9.457 4.254 1.69.706 3.715 1.567 5.621 2.388l2.711 1.174 2.206.908 5.269 2.192c1.634.684 3.194 1.241 4.689 1.82l4.395 1.651c1.454.529 2.925 1.007 4.447 1.526l2.863.97c1.078.369 2.255.77 3.472 1.135l7.015 2.189 8.887 2.541c2.73.723 5.248 1.348 7.609 1.959l1.745.446 1.701.388 3.276.737c2.138.47 4.19.976 6.24 1.343l2.841.561 2.916.58 1.646.327 1.702.286 6.287 1.069c.859.152 1.574.269 2.075.33l.787.111c5.963.931 17.746 2.136 29.033 2.429 2.814.039 5.612.119 8.273.116l7.498-.155c.579-.015 1.146-.022 1.695-.044l1.59-.097 2.878-.186c1.773-.119 3.236-.23 4.297-.33 1.583-.147 3.759-.464 6.028-.723 2.262-.28 4.615-.51 6.451-.819l6.212-.928 6.885-.992c1.506-.236 3.237-.409 5.465-.668 2.221-.274 5.013-.493 8.669-.795 7.333-.492 18.339-1.153 36.002-.242 2.893.165 8.575.528 15.346 1.291 6.771.742 14.639 1.83 21.871 3.14a412.452 412.452 0 0 1 23.183 4.827c3.797.893 7.373 1.824 10.576 2.652 3.167.863 5.978 1.608 8.139 2.234a432.488 432.488 0 0 1 21.371 6.608 474.346 474.346 0 0 1 20.259 7.318 581.275 581.275 0 0 1 22.997 9.472 711.247 711.247 0 0 1 28.984 13.447c18.416 9.009 36.524 18.71 53.182 27.998 16.663 9.29 31.886 18.16 44.6 25.588 2.511 1.467 9.031 5.439 14.443 8.818 5.417 3.378 10.358 6.23 11.017 6.358.665.129 1.166.497 1.128.83-.036.331.339.833.836 1.124.501.287 5.077 3.218 10.166 6.485 5.097 3.272 14.013 8.96 19.839 12.62 7.133 4.482 19.079 11.669 33.686 19.699 7.303 3.98 15.277 8.19 23.614 12.22 8.328 4.04 17.039 7.89 25.591 11.12 8.533 3.23 16.924 5.75 23.991 7.09 3.534.68 6.715 1.07 9.488 1.22 2.781.15 5.156.08 7.308-.16 2.152-.25 4.109-.67 6.031-1.27 1.915-.59 3.782-1.38 5.572-2.3.91-.42 1.76-.97 2.62-1.45.42-.27.83-.54 1.24-.81.2-.13.41-.26.61-.39l.58-.43c.39-.28.78-.56 1.15-.83.38-.28.73-.59 1.08-.87.36-.29.7-.57 1.04-.85l.96-.87c.06-.06.13-.11.19-.16l-.01-.01c.59-.43 1.2-1.04 1.81-1.62.21-.22.51-.54.89-.93.36-.41.79-.91 1.29-1.48.51-.55 1.03-1.24 1.61-1.96.29-.36.6-.72.9-1.13.3-.4.6-.82.92-1.25 2.42-3.5 4.7-7.63 6.76-11.78 2.05-4.25 4.04-8.35 5.73-11.831.58-1.569 1.01-3.063 1.45-4.4.45-1.333.79-2.582 1.13-3.702.68-2.231 1.15-4.059 1.58-5.516.11-.364.21-.708.3-1.031.11-.346.22-.671.31-.977.23-.65.43-1.217.6-1.718.37-.997.69-1.719 1-2.291 2.17-4.437 8.64-18.46 14.49-29.041 1.12-2.201 2.18-4.363 3.29-6.459 1.18-2.086 2.32-4.117 3.43-6.085.57-.983 1.08-1.959 1.68-2.901.6-.944 1.18-1.87 1.75-2.779 1.15-1.818 2.26-3.565 3.32-5.234 1.16-1.65 2.26-3.222 3.31-4.708.52-.743 1.03-1.464 1.53-2.163.24-.349.49-.693.73-1.031.26-.333.51-.661.76-.983 2.02-2.576 3.75-4.776 5.13-6.535l.05.024c1.3-1.519 2.65-3.106 4.14-4.845.62-.722 1.31-1.529 2.04-2.369.78-.827 1.59-1.686 2.39-2.526l4.23-4.413c2.2-2.08 4.24-4.024 6.42-6.137 1.13-1.047 2.38-2.111 3.66-3.266 1.32-1.145 2.64-2.396 4.24-3.712 1.05-.842 2.6-2.074 4.29-3.378.85-.65 1.7-1.329 2.58-1.967.92-.627 1.8-1.235 2.61-1.788 1.62-1.1 3.44-2.363 5.15-3.481 1.78-1.087 3.38-2.06 4.36-2.655.48-.299 1.55-.925 3.07-1.795 1.57-.849 3.67-1.902 6.08-3.125 2.36-1.248 5.29-2.527 8.39-3.898 3.04-1.409 6.56-2.713 10.06-4.067 1.73-.692 3.53-1.293 5.26-1.879 1.74-.585 3.42-1.151 5.02-1.692 3.26-1.041 6.31-1.892 8.85-2.653 1.26-.389 2.46-.686 3.51-.959l2.7-.708c1.5-.396 2.34-.634 2.37-.679.14-.189.5-.182.81.006.08.048.53.003 1.28-.118.76-.119 1.84-.274 3.14-.497 1.3-.221 2.83-.492 4.51-.8 2.1-.424 4.38-.761 6.72-1.118l3.57-.54 1.83-.271 1.87-.223c2.27-.261 4.51-.522 6.73-.779 2.23-.251 4.47-.396 6.67-.586 4.39-.405 8.72-.55 12.88-.757 2.08-.092 4.13-.098 6.12-.143 2-.021 3.95-.094 5.85-.058l5.52.063 2.62.038 2.53.093 4.75.19 2.21.094 2.08.132 7.12.478 7.29.662c14.3 1.386 30.42 3.979 44.69 6.911 14.3 2.915 26.69 6.199 34.36 8.25.64.177 1.29.357 1.95.538l.89.247.39.097 1.58.398c1.04.269 2.09.533 3.04.803 1.92.531 3.57 1.004 4.49 1.289 1.83.563 3.42.859 3.55.626.14-.233.84-.08 1.55.343.72.423 1.78.616 2.37.431.86-.263 1.17-.137 1.52.611.35.745.72.907 1.84.761 1.12-.145 1.66.091 2.57 1.127.84.965 1.39 1.228 2.1 1.004 1.32-.414 7.4 1.924 6.9 2.638-.28.397.34.696 2.2 1.068 1.41.29 3.38 1.03 4.34 1.668 1.04.692 2.17 1.112 2.81 1.054.6-.054 1.98.431 3.08 1.093 1.08.673 4.55 2.161 7.64 3.388 3.12 1.211 5.68 2.458 5.75 2.731.06.271 1.12.761 2.33 1.082 1.3.35 2.54 1.067 3.03 1.723.45.618 2.76 1.985 5.14 3.067 2.39 1.094 4.35 2.306 4.41 2.708.07.466 2.92 2.063 7.7 4.434 4.15 2.068 7.65 4.192 7.75 4.589.21.774-.26 1.849-.91 2.513-7.22-3.612-14.36-6.917-21.64-10.121a557.78 557.78 0 0 0-22.14-9.138c-15-5.812-30.5-11.109-46.6-15.704a490.83 490.83 0 0 0-26.87-7.008 427.586 427.586 0 0 0-27.93-5.446c-9.47-1.511-19.07-2.763-28.79-3.54-9.7-.796-19.49-1.206-29.24-1.183-9.75.06-19.44.605-28.93 1.589l-7.08.836c-2.33.329-4.65.698-6.96 1.054-2.33.333-4.59.786-6.85 1.221-2.26.452-4.56.841-6.74 1.382l-6.6 1.552c-2.16.555-4.27 1.165-6.4 1.754l-3.18.9-3.08.993c-2.04.672-4.12 1.318-6.11 2.025-3.91 1.476-7.93 2.884-11.59 4.533-1.85.808-3.76 1.585-5.56 2.429l-5.31 2.581c1.16-.549 2.37-1.124 3.63-1.723 1.26-.599 2.56-1.228 4.02-1.815 1.43-.601 2.92-1.222 4.44-1.862l2.34-.969c.82-.305 1.65-.613 2.5-.926 1.69-.62 3.43-1.255 5.21-1.904.88-.333 1.82-.629 2.77-.929.94-.301 1.9-.604 2.87-.911 1.95-.596 3.86-1.267 5.97-1.805 2.07-.56 4.18-1.129 6.32-1.706a257.285 257.285 0 0 1 28.28-5.332c10.06-1.264 20.55-1.986 30.96-2.156 10.4-.177 20.71.182 30.42.973 9.7.78 18.83 1.873 26.99 3.131 16.34 2.513 28.87 5.454 35.59 7.054 6.18 1.477 14.15 3.589 21.94 5.855 1.22.366 2.44.732 3.65 1.092.73.224 1.46.444 2.16.657 1.38.441 2.68.853 3.79 1.207" fill="#34CEF9"/><mask id="b" style="mask-type:alpha" maskUnits="userSpaceOnUse" x="-15" y="651" width="1451" height="512"><path fill-rule="evenodd" clip-rule="evenodd" d="M1435.77 890.74 31.36 651.579-15 923.813l1404.41 239.157 46.36-272.23Z" fill="#fff"/></mask><g mask="url(#b)"><path fill-rule="evenodd" clip-rule="evenodd" d="M697.862 931.156c16.209 9.687 29.254 16.853 43.335 24.631 14.061 7.793 29.038 16.252 48.627 28.883 19.591 12.635 37.443 22.98 54.369 32.17 16.938 9.19 32.846 17.24 48.869 25.34 16.04 8.09 31.932 14.88 46.74 19.72 7.394 2.43 14.474 4.38 21.026 5.84 6.551 1.45 12.54 2.42 17.662 3.04 9.887 1.19 18.808 1.17 26.16.44 7.36-.75 13.16-2.11 17.65-3.45 2.28-.66 4.15-1.38 5.86-1.98 1.63-.67 3.09-1.23 4.27-1.77 1.17-.55 2.16-1.01 2.97-1.38.78-.4 1.39-.72 1.84-.95 1.82-.93 1.17-.53-1.47.94-2.75 1.39-7.6 3.86-15.35 6.11-3.87 1.11-8.49 2.11-13.78 2.79-5.29.68-11.25.99-17.576.78-6.326-.19-12.989-.89-19.679-2.02-6.688-1.14-13.394-2.71-19.992-4.57-13.208-3.72-25.955-8.56-38.008-13.72-12.053-5.16-23.467-10.65-34.028-15.94-11.39-5.71-21.303-11.03-30.437-16.07a1184.09 1184.09 0 0 1-25.499-14.52c-16.088-9.427-31.06-18.638-48.612-29.478-17.552-10.826-23.983-14.529-28.302-17.01-4.335-2.452-6.55-3.667-15.943-9.043-11.085-6.32-18.759-10.988-23.672-14.1-4.911-3.108-7.03-4.683-7.03-4.683M199.485 801.421c.284.525-.307.811-1.31.623-.19-.031-1.39-.698-3.463-1.932-2.063-1.239-5.074-3.002-8.716-5.319-7.364-4.59-17.562-11.229-29.229-19.459-11.666-8.231-24.847-18.03-38.282-28.846-13.452-10.808-27.22-22.602-40.345-34.699-10.803-9.571-21.17-19.4-28.722-26.879a686.93 686.93 0 0 1-9.03-9.094c-2.15-2.204-3.39-3.494-3.39-3.404.017.363-1.023 1.068-2.324 1.562-.112.041.778 1.231 2.491 3.296 1.716 2.067 4.268 5.014 7.542 8.633 6.545 7.239 16.008 17.163 27.403 28.179 28.182 26.819 62.681 55.592 102.006 81.966 19.657 13.172 40.546 25.701 62.168 36.998a565.202 565.202 0 0 0 32.922 15.904c11.109 4.924 22.259 9.503 33.414 13.586 11.164 4.072 22.245 7.721 33.107 10.898 2.721.783 5.443 1.515 8.12 2.259 1.343.366 2.669.744 4.003 1.093l4.003 1.002c2.657.655 5.264 1.337 7.872 1.939l7.748 1.73c2.538.591 5.084 1.07 7.583 1.562 2.502.484 4.959.986 7.393 1.428l7.211 1.215 3.516.589c1.163.185 2.324.334 3.47.5 4.589.637 9.004 1.304 13.262 1.729l6.242.693c1.018.122 2.024.208 3.018.287l2.946.244c3.881.311 7.573.659 11.044.8 3.473.17 6.751.385 9.794.476 6.072.127 11.307.312 15.514.218a29294.896 29294.896 0 0 1 7.866-.06l1.852-.061 2.532-.085c.579-.017.89-.022.918-.016 1.431.305 2.132.699 1.538.871-.115.034-1.376.128-3.69.272-2.299.184-5.715.247-10.087.364-4.358.172-9.761.093-16.037.043-6.296-.178-13.496-.399-21.513-1.028-4.008-.233-8.211-.684-12.603-1.116l-3.328-.333c-1.121-.113-2.247-.275-3.389-.414l-6.975-.891c-2.376-.279-4.767-.69-7.21-1.06-2.441-.386-4.929-.759-7.445-1.18l-7.631-1.4-3.9-.728-3.921-.823c-21.101-4.341-43.911-10.691-66.827-18.932-2.848-1.045-5.757-2.064-8.613-3.16l-8.608-3.332c-5.695-2.307-11.467-4.652-17.136-7.153a621.121 621.121 0 0 1-33.786-15.96c-22.153-11.332-43.483-23.879-63.54-36.988-20.071-13.109-38.838-26.796-56.136-40.429a826.19 826.19 0 0 1-47.287-40.248 804.596 804.596 0 0 1-26.727-24.688 831.604 831.604 0 0 1-7.568-7.421l-2.036-2.013-.538-.519c-.124-.116-.191-.174-.2-.171-1.16.354.153 2.366 1.555 4.839 1.406 2.469 2.907 5.407 2.101 7.711-.079.226.37.468.054.716-.44.34-.028.789 1.636 1.768 1.798 1.049 2.158 1.481 1.852 2.228-.26.657.19 1.333 1.595 2.299 2.587 1.802 7.835 6.889 7.277 7.088-.25.089.96 1.383 2.675 2.868a673.282 673.282 0 0 1 5.979 5.182l2.367 2.096 1.02.925 1.738 1.618c2.945 2.753 5.213 4.899 6.77 6.427 1.544 1.533 2.368 2.453 2.442 2.744.213.872.941 1.453 2.59 2.055 1.474.542 2.42 1.274 2.679 2.037.497 1.549 6.983 7.022 8.576 7.216.672.088 1.839.712 2.63 1.4.78.678.612 1.098-.374.926-1.542-.272-.726.587 5.473 5.604 4.075 3.247 7.138 5.993 6.846 6.129-.316.144.597.836 2.05 1.553 1.438.716 2.83 1.677 3.106 2.155.274.48 1.504 1.415 2.717 2.08 1.121.603 4.118 2.834 9.633 6.927 5.502 4.097 13.454 10.082 24.751 18.088 3.315 2.321 6.586 4.56 9.217 6.28 2.649 1.714 4.611 2.928 5.243 3.227 1.258.587 2.49 1.514 2.736 2.008.232.508 3.043 2.458 6.258 4.347 5.708 3.307 10.149 6.303 17.374 11.557 1.926 1.392 4.221 2.657 5.058 2.828.42.085 2.218 1.033 4.772 2.487 2.598 1.435 5.959 3.371 9.48 5.45 3.388 1.943 6.792 3.918 9.601 5.501l5.858 3.243c.392.213.923.532 1.176.71.405.302 3.6 1.987 6.094 3.227l2.894 1.494a245.45 245.45 0 0 0 4.488 2.311c3.176 1.611 6.289 3.201 7.094 3.641.912.489 3.038 1.526 4.706 2.328l5.856 2.845 8.524 3.957c.245.111.969.5 1.974 1.018l3.569 1.845c2.581 1.347 4.96 2.544 5.282 2.668.324.116.966.346 1.433.499.467.157 4.013 1.813 7.9 3.682 1.924.947 4.293 1.988 6.468 2.969 2.181.977 4.201 1.87 5.526 2.443 1.329.569 3.514 1.454 5.928 2.449 2.429.984 5.053 2.107 7.442 3.002 5.577 2.176 15.751 5.991 26.902 9.47 5.509 1.811 11.344 3.425 16.707 4.98 2.715.734 5.348 1.408 7.799 2.045 2.458.628 4.724 1.236 6.802 1.69l6.093 1.416c2.224.524 4.593 1.092 7.009 1.586 4.816 1.014 9.628 2.114 13.375 2.802 5.039 1.006 15.603 2.888 28.741 4.313 13.109 1.473 28.778 2.579 43.553 2.598.925.011 1.85.031 2.767.033l2.727-.036 5.375-.083 5.237-.1 5.013-.239c3.27-.172 6.431-.299 9.359-.514l8.156-.696c2.511-.219 4.796-.423 6.757-.692a447.18 447.18 0 0 0 5.082-.657c2.795-.381 4.348-.637 4.304-.719l.917-.138.854-.132.813-.13c1.209-.186 2.869-.468 4.73-.683 1.848-.263 4.039-.46 6.055-.673l2.855-.243c.865-.084 1.644-.107 2.244-.158.907-.063 2.13-.159 3.657-.183l2.489-.066 2.906.004c4.132.042 9.288.261 15.191.849 5.9.593 12.541 1.513 19.563 2.912 7.015 1.379 14.386 3.156 21.63 5.21a376.662 376.662 0 0 1 17.508 5.473 485.675 485.675 0 0 1 14.423 5.16c8.509 3.18 15.736 6.184 22.336 9.043a507.458 507.458 0 0 1 18.596 8.523c12.039 5.825 24.277 12.154 42.004 22.089 11.664 6.533 27.179 15.499 34.542 19.709 25.441 14.488 48.842 29.243 73.578 45.013 10.899 6.94 18.971 11.87 24.343 15.07 5.371 3.2 8.062 4.67 8.36 4.71.156.02.414.16.569.31.282.25 5.333 3.24 12.545 7.21 3.594 1.99 7.768 4.22 12.111 6.49 4.378 2.26 8.917 4.55 13.312 6.64 5.644 2.7 10.197 4.82 13.403 6.32 3.174 1.5 4.968 2.39 5.06 2.62.199.49.515.61 1.008.38.186-.08 1.069.19 3.217.96 1.077.38 2.458.89 4.2 1.54 1.793.65 3.918 1.45 6.569 2.39l4.346 1.53c1.612.54 3.347 1.12 5.212 1.75 1.925.61 3.964 1.27 6.205 1.95 2.29.68 4.658 1.4 7.364 2.12 1.349.37 2.68.75 4.161 1.11 1.467.37 2.976.74 4.529 1.13l4.952 1.11c1.69.38 3.541.72 5.382 1.08 7.474 1.4 16.231 2.72 26.47 3.27 5.401.27 9.903.29 13.563.17 1.84-.07 3.46-.14 4.88-.24 1.43-.11 2.66-.22 3.72-.32 2.12-.2 3.52-.44 4.39-.63.87-.18 1.2-.33 1.14-.45-.24-.48-.09-.49.64-.05.37.23 2.84.18 9.18-.87 1.55-.29 3.38-.62 5.41-1.07 1-.24 2.06-.5 3.2-.78 1.13-.27 2.33-.58 3.53-.95 1.21-.35 2.5-.74 3.84-1.16 1.31-.43 2.65-.91 4.07-1.41 1.44-.5 2.82-1.08 4.29-1.68.73-.3 1.48-.62 2.24-.93.74-.33 1.47-.68 2.22-1.03 8.57-4.02 14.39-7.9 19.2-11.54 4.75-3.66 8.51-7.13 11.91-10.74 6.67-7.22 12.29-15.02 18.11-26.42 1.4-2.64 3.96-8.02 5.57-11.95.87-1.97 1.68-4.19 2.46-6.19.71-2 1.3-3.78 1.63-4.85.33-1.07.87-2.81 1.48-4.75.29-.91.6-1.86.9-2.81.29-.87.58-1.73.85-2.54a923.89 923.89 0 0 0 1.77-5.302c.57-1.632 1.16-3.108 1.65-4.506 1.02-2.781 1.78-5.197 2.6-7.273.36-.927.87-2.262 1.41-3.665.55-1.401 1.1-2.885 1.67-4.039 1.35-2.866 2.41-5.339 3.39-7.396 1.03-2.035 1.85-3.721 2.51-5.125 1.06-1.848 2.17-3.412 3.04-4.771a92.833 92.833 0 0 0 2.03-3.276c.93-1.598 2.35-3.581 3.72-5.594.35-.5.7-1 1.04-1.492.36-.481.74-.939 1.1-1.39.72-.895 1.4-1.73 1.98-2.449.7-.815 1.41-1.776 2.28-2.734.87-.964 1.79-1.997 2.75-3.071.48-.54.96-1.09 1.46-1.648.48-.559 1.04-1.079 1.57-1.629 1.06-1.093 2.13-2.2 3.19-3.296 1.07-1.09 2.22-2.089 3.28-3.104 1.07-.991 2.04-2.007 3.09-2.842 1-.866 1.94-1.674 2.78-2.399.42-.366.81-.711 1.17-1.033.37-.321.74-.588 1.05-.848 1.09-.871 2.33-1.87 3.46-2.778.56-.469 1.13-.87 1.63-1.225.51-.359.94-.671 1.27-.909.68-.476 1.68-1.222 2.77-2.044 1.13-.772 2.35-1.604 3.39-2.311.52-.356 1.03-.705 1.5-1.03.47-.326.96-.578 1.36-.819.81-.47 1.39-.788 1.54-.836l.93-.303c.1-.038.49-.266 1.04-.604.28-.167.58-.373.93-.575.35-.197.72-.409 1.11-.626 1.52-.882 3.03-1.715 3.34-1.85.47-.211.96-.396 1.46-.571l1.46-.536c.96-.355 1.88-.699 2.74-1.017.84-.34 1.68-.559 2.37-.79l1.71-.544c1.17-.36 2.62-.867 3.31-1.045.59-.178 2.85-.834 5.19-1.438 2.4-.525 4.82-1.089 5.63-1.225 1.95-.289 4.44-.745 4.79-.865.2-.07.62-.189.94-.228.68-.104 2.46-.374 4.78-.723.57-.1 1.19-.177 1.84-.243l2.01-.228c1.39-.153 2.81-.357 4.28-.444 1.55-.119 3.06-.23 4.46-.319 1.42-.036 2.74-.06 3.88-.069 2.26-.048 3.87.1 4.17.223.61.276 2.62.319 4.51.175 1.8-.105 3.43-.19 4.94-.252 1.53-.028 2.95.001 4.3.032.67.018 1.33.041 1.98.071.66.051 1.31.109 1.96.172 1.29.126 2.58.278 3.92.456 3.07.502 5.96.715 6.49.522.52-.187 1.88-.073 2.96.263.55.175 2.47.469 5.16.967 1.34.247 2.85.464 4.49.777 1.64.307 3.37.613 5.14.923 12.15 2.301 21.1 4.657 27.19 6.418 1.52.425 2.87.841 4.05 1.213 1.17.375 2.18.698 3.04.97.85.282 1.53.539 2.07.74.27.102.5.194.69.274.16.073.15.092.21.135.34.317.86.509 1.15.423.3-.088.82.19 1.16.614.35.427.72.593.85.349.13-.236 1.67.121 3.45.789 2.72 1.024 3.2 1.123 3.21.393.01-.463.32-.744.7-.621.38.125.66.483.63.81-.06.769 2.87 1.886 3.89 1.516.51-.185.88.028 1.04.604.17.647.46.799 1.06.549.39-.17 2.1.264 5.03 1.33 2.93 1.048 7.06 2.752 12.25 5.115 1.96.909 3.69 1.516 3.82 1.358.15-.187 1.9.428 3.9 1.271 1.99.861 4.24 1.945 5.35 2.706 1.21.813 2.09 1.062 3.02.873 1.06-.213 1.63-.003 2.88 1.065 1.16.989 1.71 1.241 2.24.965.39-.196.67.074.99.024 3.31-.526 7.21.436 10.42 1.365 3.21.933 5.72 1.832 6.45 1.165.01-.007-.1-.079-.33-.213-.23-.13-.57-.324-1.01-.578-.89-.505-2.24-1.233-3.96-2.16a375.239 375.239 0 0 0-14.89-7.474 426.139 426.139 0 0 0-22.38-9.875c-4.2-1.737-8.64-3.436-13.2-5.149-4.57-1.667-9.27-3.359-14.06-4.916-28.43-8.828-58.65-14.449-85.8-14.586-6.8-.069-13.35.257-19.7.778l-4.69.476c-1.56.152-3.06.409-4.58.602l-2.27.309c-.76.097-1.48.253-2.21.375-1.47.258-2.93.514-4.39.768-11.47 2.267-21.71 5.507-30.58 9.211-8.87 3.704-16.35 7.876-22.63 11.896-6.35 3.98-11.29 7.974-15.39 11.272-3.94 3.406-7.04 6.142-9.02 8.141-2.04 1.963-3.2 3.042-3.35 3.101-.45.202-.82-.302-.75-1.093 0-.025.24-.309.72-.832.48-.523 1.19-1.288 2.1-2.279 1.78-2.014 4.68-4.774 8.39-8.241 3.87-3.368 8.58-7.451 14.73-11.582 6.08-4.168 13.38-8.547 22.18-12.511 8.79-3.969 19.08-7.508 30.76-10.12 1.47-.312 2.97-.587 4.47-.888.75-.149 1.5-.298 2.26-.447.76-.134 1.55-.245 2.32-.37 1.56-.243 3.12-.488 4.69-.734l4.84-.581c1.61-.223 3.28-.332 4.94-.479 1.67-.133 3.33-.318 5.05-.379l5.14-.271 5.25-.109c7.05-.07 14.32.152 21.73.704 7.42.589 14.98 1.481 22.58 2.663 15.22 2.341 30.63 5.938 45.66 10.3 10.82 3.058 21.39 6.565 31.11 10.078 9.7 3.537 18.54 7.085 25.96 10.262 7.44 3.163 13.45 5.949 17.62 7.886 4.17 1.949 6.47 3.044 6.59 2.955 1.02-.703 2.29-1.223 2.8-1.165.17.027-2.34-1.482-6.95-3.967-4.6-2.478-11.28-5.896-19.23-9.621a476.67 476.67 0 0 0-26.73-11.513c-9.54-3.794-19.43-7.295-28.52-10.221-3.16-.99-6.32-1.868-9.41-2.767-3.11-.837-6.16-1.705-9.19-2.449-6.03-1.57-11.9-2.858-17.48-4.044-11.19-2.284-21.32-3.795-29.81-4.749-17.02-1.906-27.41-1.726-27.88-1.971-.89-.325-1.14-.836-.54-1.124.19-.122 2.91-.18 7.74-.217 1.2-.009 2.55.045 4.02.072 1.47.046 3.06.051 4.78.142l5.51.295c1.95.105 4.02.308 6.19.473 8.68.748 19.07 2.062 30.58 4.17 5.74 1.096 11.78 2.304 17.99 3.797 3.12.706 6.27 1.535 9.48 2.338 3.19.864 6.44 1.708 9.7 2.665 9.49 2.58 19.85 5.76 29.89 9.268 10.07 3.479 19.82 7.261 28.29 10.774 8.48 3.52 15.67 6.776 20.72 9.135 5.05 2.361 7.99 3.815 7.98 3.681-.08-.478.29-.947.82-1.032 1.14-.182 2.21-3.107 1.28-3.592-.34-.175-.8-1.102-1.04-2.043-.24-.95-.83-1.779-1.29-1.835-.46-.06-.68-.516-.5-1.023.06-.172.06-.441.03-.739-1.97-.993-3.8-1.902-4.32-2.154-.64-.314-2.09-1.016-3.22-1.567-1.65-.809-5.75-2.747-9.75-4.57l-3.9-1.728-3.7-1.602c-.2-.091-.61-.272-.9-.4l-5.4-2.276c-1.34-.552-2.93-1.201-4.41-1.803-1.48-.59-2.85-1.133-3.74-1.488-1.78-.716-5.77-2.253-8.87-3.416a529.89 529.89 0 0 0-17.41-6.186l-5.36-1.759-5.26-1.652c-1.69-.543-3.36-1.019-4.9-1.481l-2.5-.743c-.96-.289-1.91-.545-2.84-.806-1.85-.516-3.62-1.008-5.29-1.472a467.443 467.443 0 0 0-21.49-5.222c-7.93-1.701-16-3.132-22.21-4.105-2-.307-4.51-.651-7.46-1.072-1.47-.214-3.07-.378-4.76-.587-1.69-.189-3.48-.443-5.38-.606-7.57-.796-16.69-1.424-26.72-1.584l-2.92-.037-1.49-.016-1.49.024-6.12.11c-2.07.066-4.17.193-6.31.295-2.14.083-4.29.272-6.48.459-8.73.731-17.88 1.931-26.96 3.88-9.11 1.917-18.2 4.475-26.96 7.669-2.15.83-4.32 1.666-6.5 2.509l-6.31 2.771c-1.07.452-2.07.963-3.08 1.467-1.01.505-2.03 1.012-3.04 1.519-1.01.516-2.06 1.001-3.03 1.548-.97.544-1.94 1.091-2.91 1.638-3.97 2.143-7.59 4.536-11.29 6.91-1.75 1.238-3.51 2.481-5.27 3.728-.43.313-.88.62-1.31.94l-1.24.977c-.83.652-1.65 1.305-2.48 1.959l-2.48 1.964c-.82.66-1.57 1.355-2.35 2.031-1.55 1.364-3.12 2.721-4.64 4.099-1.44 1.41-2.89 2.821-4.33 4.234-.71.711-1.47 1.401-2.13 2.131l-2.01 2.178c-1.33 1.457-2.7 2.895-3.97 4.367-1.24 1.487-2.47 2.972-3.7 4.455-.6.743-1.23 1.479-1.82 2.226l-1.69 2.266c-1.13 1.509-2.25 3.015-3.37 4.517-1.08 1.513-2.06 3.051-3.09 4.567-1 1.526-2.07 3.023-2.99 4.557-.93 1.534-1.84 3.061-2.76 4.581-.9 1.522-1.85 3.024-2.63 4.56-.82 1.526-1.64 3.044-2.45 4.552-.81 1.508-1.63 3.004-2.32 4.519-.72 1.508-1.44 3.005-2.15 4.491-.7 1.489-1.45 2.952-2.05 4.437-1.25 2.957-2.48 5.864-3.69 8.713-1.08 2.876-2.14 5.693-3.17 8.444-.49 1.34-.98 2.665-1.46 3.972-.48 1.283-.92 2.561-1.42 3.795-.49 1.239-.97 2.461-1.45 3.66-.51 1.2-1 2.37-1.5 3.52-2.02 4.59-4.06 8.82-6.16 12.59-4.17 7.54-8.39 13.29-11.59 17.08-.82.94-1.55 1.77-2.19 2.49-.64.72-1.23 1.29-1.68 1.77-.46.48-.82.85-1.05 1.09-.25.24-.38.36-.38.36a66.88 66.88 0 0 1-11.61 8.85c-5.08 3.04-11.61 6.07-20.32 7.65-10.961 2.04-23.562 1.16-36.282-1.74-12.736-2.87-25.436-7.43-37.751-12.66-12.34-5.25-24.384-11.19-36.296-17.46-11.914-6.28-23.705-12.91-35.559-19.77-6.871-3.97-17.586-10.264-29.308-17.256l-35.543-21.202c-33.575-19.947-57.201-33.246-81.07-45.526-11.956-6.125-23.976-12.006-37.617-18.102a598.733 598.733 0 0 0-21.942-9.275c-7.882-3.136-16.395-6.344-25.839-9.499-7.399-2.485-19.305-6.258-32.878-9.557a341.26 341.26 0 0 0-21.124-4.426 303.813 303.813 0 0 0-20.88-2.94c-17.724-1.824-36.013-1.933-52.815-.098l-12.047 1.38c-3.86.492-7.781.745-11.615 1.057-7.684.58-15.25.838-22.501.891-14.511.098-27.778-.798-38.563-1.916l-3.931-.419c-1.271-.137-2.502-.255-3.688-.431l-6.604-.892c-1.011-.141-1.979-.254-2.893-.4l-2.601-.422-4.299-.692-2.758-.449c-1.016-.179-2.12-.401-3.297-.622-2.352-.455-4.995-.937-7.745-1.492l-8.411-1.832c-2.808-.624-5.539-1.339-8.077-1.945-1.265-.315-2.509-.598-3.695-.917l-3.416-.926-5.792-1.568-5.335-1.577-1.996-.593c-1.216-.36-2.965-.869-5.136-1.589-2.176-.708-4.819-1.543-7.831-2.539-2.982-1.047-6.37-2.193-10.036-3.51l-5.691-2.117-3.007-1.12-3.064-1.213-6.4-2.536-6.629-2.78c-8.979-3.842-18.55-8.146-28.002-12.865a619.3 619.3 0 0 1-27.873-14.735c-8.935-5.049-17.366-10.121-24.958-14.847a701.244 701.244 0 0 1-32.417-21.624c-2.059-1.474-4.467-3.159-6.955-4.998-2.507-1.828-5.171-3.768-7.771-5.736l-3.898-2.922c-1.268-.973-2.515-1.93-3.723-2.855-2.427-1.845-4.642-3.593-6.553-5.094-4.428-3.46-9.805-7.804-15.553-12.55a798.502 798.502 0 0 1-17.603-15.051 733.747 733.747 0 0 1-16.174-14.663l-6.052-5.694c-1.899-1.828-4.367-4.192-5.452-5.267a613.443 613.443 0 0 1-4.988-4.928l-3.304-3.314-.569-.555-2.248-2.296-2.368-2.444a546.325 546.325 0 0 1-5.986-6.206l-1.961-2.077-2.615-2.804c-.453-.055-.867-.09-1.144-.073-.816.047-1.478-.15-1.486-.428-.005-.284-1.17-.737-2.589-1.022-1.411-.28-2.742-.703-2.944-.935-.541-.608-5.313-.533-5.858.107-.249.3-1.057.427-1.791.277-.163-.034.794 1.262 2.623 3.5 1.831 2.24 4.546 5.43 7.92 9.226 6.732 7.595 16.15 17.605 26.007 27.416 12.61 12.159 25.875 24.045 38.85 34.966 12.957 10.93 25.687 20.864 36.939 29.247a772.807 772.807 0 0 0 28.125 19.958c3.48 2.406 6.345 4.256 8.266 5.585 1.928 1.324 3.006 2.076 3.072 2.192" fill="#34CEF9"/></g></g><defs><clipPath id="a"><path fill="#fff" d="M0 0h1440v900H0z"/></clipPath></defs></svg>